<svg width="19" height="19" viewBox="0 0 19 19" fill="none" xmlns="http://www.w3.org/2000/svg">
<path fill-rule="evenodd" clip-rule="evenodd" d="M6.55998 2.1001H10.1C10.3387 2.1001 10.5676 2.19492 10.7364 2.3637C10.9052 2.53248 11 2.7614 11 3.0001C11 3.23879 10.9052 3.46771 10.7364 3.63649C10.5676 3.80528 10.3387 3.9001 10.1 3.9001H6.59998C5.59998 3.9001 4.90998 3.9001 4.36998 3.9401C3.84998 3.9901 3.54998 4.0701 3.31998 4.1801C2.82878 4.42971 2.42959 4.82891 2.17998 5.3201C2.06998 5.5501 1.97998 5.8501 1.93998 6.3701C1.89998 6.9101 1.89998 7.6101 1.89998 8.6001V12.4001C1.89998 13.4001 1.89998 14.0901 1.93998 14.6301C1.98998 15.1501 2.06998 15.4501 2.17998 15.6801C2.42998 16.1701 2.82998 16.5701 3.31998 16.8201C3.54998 16.9301 3.84998 17.0201 4.36998 17.0601C4.90998 17.1001 5.60998 17.1001 6.59998 17.1001H10.4C11.4 17.1001 12.09 17.1001 12.63 17.0601C13.15 17.0101 13.45 16.9301 13.68 16.8201C14.1712 16.5705 14.5704 16.1713 14.82 15.6801C14.93 15.4501 15.02 15.1501 15.06 14.6301C15.1 14.0901 15.1 13.3901 15.1 12.4001V8.9001C15.1 8.6614 15.1948 8.43248 15.3636 8.2637C15.5324 8.09492 15.7613 8.0001 16 8.0001C16.2387 8.0001 16.4676 8.09492 16.6364 8.2637C16.8052 8.43248 16.9 8.6614 16.9 8.9001V12.4401C16.9 13.3901 16.9 14.1501 16.85 14.7701C16.8234 15.3697 16.6772 15.9579 16.42 16.5001C15.9984 17.3265 15.3264 17.9985 14.5 18.4201C13.9578 18.6774 13.3695 18.8236 12.77 18.8501C12.15 18.9001 11.39 18.9001 10.44 18.9001H6.55998C5.60998 18.9001 4.84998 18.9001 4.22998 18.8501C3.6304 18.8236 3.0422 18.6774 2.49998 18.4201C1.67357 17.9985 1.00156 17.3265 0.579976 16.5001C0.322967 15.9578 0.176779 15.3696 0.149976 14.7701C0.0999758 14.1501 0.0999756 13.3901 0.0999756 12.4401V8.5601C0.0999756 7.6101 0.0999758 6.8501 0.149976 6.2301C0.199976 5.5901 0.309976 5.0301 0.579976 4.5001C1.00156 3.67369 1.67357 3.00168 2.49998 2.5801C3.04229 2.32309 3.63044 2.1769 4.22998 2.1501C4.84998 2.1001 5.60998 2.1001 6.55998 2.1001V2.1001Z" fill="#17171B"/>
<path fill-rule="evenodd" clip-rule="evenodd" d="M16.12 1.33006C16.2206 1.22282 16.3418 1.13686 16.4762 1.07726C16.6107 1.01766 16.7558 0.985638 16.9028 0.983077C17.0499 0.980516 17.196 1.00747 17.3324 1.06236C17.4689 1.11724 17.5929 1.19893 17.6973 1.3026C17.8016 1.40626 17.8841 1.5298 17.9399 1.66591C17.9956 1.80201 18.0235 1.94791 18.0219 2.09499C18.0203 2.24206 17.9892 2.38732 17.9305 2.52216C17.8717 2.65701 17.7865 2.77871 17.68 2.88006L17.33 3.23006C17.2927 3.26785 17.2484 3.29787 17.1994 3.31835C17.1505 3.33884 17.098 3.34939 17.045 3.34939C16.9919 3.34939 16.9394 3.33884 16.8905 3.31835C16.8415 3.29787 16.7972 3.26785 16.76 3.23006L15.77 2.24006C15.6967 2.16529 15.6556 2.06476 15.6556 1.96006C15.6556 1.85536 15.6967 1.75483 15.77 1.68006L16.12 1.33006ZM15.52 3.90006L15.1 3.48006C14.66 3.04006 14.38 3.06006 13.97 3.48006L8.83996 8.60006C6.88996 10.5601 5.64996 12.4901 6.07996 12.9201C6.50996 13.3501 8.43996 12.1201 10.4 10.1601L15.52 5.03006C15.96 4.59006 15.94 4.31006 15.52 3.90006V3.90006Z" fill="#0F172A"/>
</svg>
