<svg width="637" height="379" viewBox="0 0 637 379" fill="none" xmlns="http://www.w3.org/2000/svg">
<path opacity="0.53" d="M58.2709 157.851C66.5102 150.841 95.1555 151.527 111.916 151.527C128.676 151.527 161.736 152.269 170.834 163.804C179.931 175.339 154.671 187.622 115.568 187.622C76.466 187.622 33.807 178.683 58.2709 157.851Z" fill="#99ADF9"/>
<path d="M520.2 191.708C520.2 191.708 580.512 192.999 602.264 196.672C624.016 200.345 651.7 227.089 627.476 255.247C603.252 283.404 567.384 280.116 465.711 280.116C483.123 224.274 520.2 191.708 520.2 191.708Z" fill="#99ADF9"/>
<path d="M134.924 204.788C134.924 204.788 101.191 199.254 54.5218 206.326C25.849 210.672 -2.32255 225.99 0.279703 247.914C4.08352 280.04 80.7571 267.825 101.211 285.533C121.665 303.241 77.0906 308.411 64.5875 326.949C52.0843 345.488 63.4546 370.645 121.871 374.469C180.288 378.294 361.786 380.244 403.717 374.984C445.649 369.725 471.403 320.619 404.637 294.212C300.39 272.975 134.924 204.788 134.924 204.788Z" fill="#99ADF9"/>
<path d="M550.172 217.366C550.172 271.56 469.543 315.496 319.382 315.496C169.22 315.496 92.8008 271.554 92.8008 217.366C92.8008 163.179 169.262 119.236 319.382 119.236C469.502 119.236 550.172 163.172 550.172 217.366Z" fill="#F0F6FF"/>
<path opacity="0.36" d="M217.084 170.752C217.084 170.752 134.601 179.06 128.669 289.295C161.297 347.623 289.83 333.788 289.83 333.788C289.83 333.788 284.962 222.042 329.104 161.147C420.835 164.113 486.09 163.207 510.808 286.796C561.233 261.09 565.112 205.138 565.112 205.138C565.112 205.138 540.394 126.04 504.306 117.142C468.218 108.244 409.883 119.119 409.883 119.119L217.084 170.752Z" fill="#FF97C9"/>
<g style="mix-blend-mode:multiply" opacity="0.64">
<path d="M478.674 177.495C478.674 204.019 423.251 225.523 320.068 225.523C216.884 225.523 164.297 204.019 164.297 177.495C164.297 150.971 216.857 129.474 320.068 129.474C423.279 129.474 478.674 150.985 478.674 177.495Z" fill="#E1ECFF"/>
</g>
<path d="M391.324 184.629C391.324 184.629 401.431 196.054 402.749 205.282C404.068 214.51 402.969 225.935 413.735 229.67C424.501 233.405 452.872 235.603 461.633 224.397C470.394 213.192 464.489 195.175 448.67 181.553C427.385 162.657 403.189 161.119 403.189 161.119L391.324 184.629Z" fill="#FEC272"/>
<g style="mix-blend-mode:multiply" opacity="0.45">
<path d="M388.166 206.696C388.166 206.696 433.482 203.195 432.452 155.269C397.778 156.986 379.975 181.216 379.975 181.216L388.166 206.696Z" fill="#FEC272"/>
</g>
<path d="M240.283 184.629C240.283 184.629 250.39 196.054 251.708 205.282C253.027 214.51 251.928 225.935 262.694 229.67C273.46 233.405 301.831 235.603 310.592 224.397C319.353 213.192 313.448 195.175 297.629 181.553C276.344 162.657 252.148 161.119 252.148 161.119L240.283 184.629Z" fill="#FEC272"/>
<g style="mix-blend-mode:multiply" opacity="0.45">
<path d="M250.741 172.201C250.741 172.201 274.216 211.125 316.58 188.68C299.477 158.469 269.829 153.436 269.829 153.436L250.741 172.201Z" fill="#FEC272"/>
</g>
<path d="M373.424 16.5743C379.604 16.7803 399.248 15.3453 407.446 39.5277C415.644 63.7101 421.995 81.3422 433.063 97.1204C444.131 112.899 455.405 141.592 433.063 161.662C410.721 181.731 384.499 176.849 372.408 170.897C360.317 164.944 345.96 155.105 349.448 121.509C352.936 87.913 363.592 67.404 364.821 48.9548C366.05 30.5056 367.931 24.3605 373.424 16.5743Z" fill="#FF8D76"/>
<path d="M315.749 0.0957589C347.821 -1.2088 373.885 10.9717 385.749 27.1207C397.614 43.2697 404.535 82.4888 406.018 94.1887C407.501 105.888 412.774 112.15 418.377 119.895C424.385 128.203 434.691 153.841 423.65 170.979C412.609 188.117 394.62 192.511 375.484 183.118C356.204 190.671 339.822 194.543 308.677 189.298C277.533 184.052 247.631 157.611 240.016 104.488C235.622 73.7277 235.567 36.1565 250.316 16.6018C274.917 9.85935 285.388 1.30419 315.749 0.0957589Z" fill="#FEC272"/>
<path d="M250.391 16.5743C243.799 16.7941 222.707 15.2561 213.918 41.1824C205.129 67.1088 198.339 86.0042 186.454 102.922C174.568 119.84 162.505 150.6 186.454 172.132C210.403 193.665 238.526 188.391 251.489 182.02C264.452 175.648 279.832 165.102 276.097 129.068C272.362 93.0351 260.937 71.0636 259.619 51.2893C258.3 31.515 256.323 24.9235 250.391 16.5743Z" fill="#FF8D76"/>
<path d="M317.596 109.953C322.51 109.953 326.494 105.969 326.494 101.055C326.494 96.1403 322.51 92.1563 317.596 92.1563C312.681 92.1563 308.697 96.1403 308.697 101.055C308.697 105.969 312.681 109.953 317.596 109.953Z" fill="#1C3177"/>
<path d="M389.882 109.953C394.796 109.953 398.78 105.969 398.78 101.055C398.78 96.1403 394.796 92.1563 389.882 92.1563C384.967 92.1563 380.983 96.1403 380.983 101.055C380.983 105.969 384.967 109.953 389.882 109.953Z" fill="#1C3177"/>
<path d="M303.665 78.4585C302.978 75.2314 310.984 71.2628 315.062 68.2829C319.141 65.303 325.286 64.1633 328.52 69.6012C331.754 75.0392 320.672 80.1544 316.586 81.0264C312.501 81.8984 304.392 81.9945 303.665 78.4585Z" fill="#FF8D76"/>
<path d="M398.774 77.25C399.042 74.277 392.059 71.1324 388.413 68.6606C384.767 66.1888 379.563 65.5022 377.352 70.638C375.141 75.7738 384.795 79.7768 388.262 80.3398C391.729 80.9028 398.479 80.5114 398.774 77.25Z" fill="#FF8D76"/>
<path d="M360.852 130.277C361.484 126.569 387.63 125.333 389.882 130.277C392.134 135.22 385.076 147.909 377.825 147.909C370.575 147.909 359.205 139.999 360.852 130.277Z" fill="#1C3177"/>
<path d="M378.519 137.363C378.79 144.408 378.468 151.464 377.558 158.455" stroke="#1C3177" stroke-width="7" stroke-miterlimit="10" stroke-linecap="round"/>
<g style="mix-blend-mode:multiply">
<path d="M277.21 229.698C277.21 229.698 280.286 221.458 276.523 214.05" stroke="#FEC272" stroke-width="7" stroke-miterlimit="10" stroke-linecap="round"/>
</g>
<g style="mix-blend-mode:multiply">
<path d="M301.482 228.05C302.511 223.31 301.855 218.359 299.628 214.05" stroke="#FEC272" stroke-width="7" stroke-miterlimit="10" stroke-linecap="round"/>
</g>
<g style="mix-blend-mode:multiply">
<path d="M428.25 229.698C428.25 229.698 431.326 221.458 427.563 214.05" stroke="#FEC272" stroke-width="7" stroke-miterlimit="10" stroke-linecap="round"/>
</g>
<g style="mix-blend-mode:multiply">
<path d="M452.522 228.05C453.555 223.311 452.902 218.359 450.675 214.05" stroke="#FEC272" stroke-width="7" stroke-miterlimit="10" stroke-linecap="round"/>
</g>
<path opacity="0.53" d="M493.444 313.581C501.683 306.564 530.322 307.25 547.089 307.25C563.856 307.25 596.909 307.999 606.007 319.534C615.104 331.069 589.844 343.345 550.741 343.345C511.639 343.345 469.007 334.413 493.444 313.581Z" fill="#99ADF9"/>
</svg>
