<svg width="435" height="234" viewBox="0 0 435 234" fill="none" xmlns="http://www.w3.org/2000/svg">
<g clip-path="url(#clip0_34_1699)">
<path d="M114.878 233.681C63.0134 234.525 39.2314 233.597 58.0377 231.573C76.9284 229.549 57.9534 229.296 28.6897 229.549C-0.573948 229.802 -13.477 227.272 29.7861 224.658C73.049 222.043 231.68 219.345 213.464 222.718C195.248 226.091 181.839 226.85 192.887 228.115C203.934 229.38 186.224 232.501 114.878 233.681Z" fill="#99ADF9"/>
<path d="M330.856 217.068C277.051 217.574 252.426 219.176 271.991 220.778C291.641 222.381 282.786 222.971 252.341 223.477C221.897 223.983 197.946 227.188 242.812 228.874C287.761 230.477 452.211 229.043 433.236 225.923C414.261 222.802 400.346 222.381 411.731 220.694C423.285 219.092 404.9 216.393 330.856 217.068Z" fill="#99ADF9"/>
<path d="M202.247 223.055H44.7126C43.3633 223.055 42.1826 221.959 42.1826 220.525V214.116C42.1826 212.767 43.279 211.586 44.7126 211.586H202.332C203.681 211.586 204.862 212.682 204.862 214.116V220.525C204.777 221.959 203.681 223.055 202.247 223.055Z" fill="#E1ECFF"/>
<path d="M205.452 223.055H107.204C105.854 223.055 104.674 221.959 104.674 220.525V214.116C104.674 212.767 105.77 211.586 107.204 211.586H205.452C206.802 211.586 207.982 212.682 207.982 214.116V220.525C207.982 221.959 206.886 223.055 205.452 223.055Z" fill="#CDE0FC"/>
<path d="M161.936 211.755H47.2428C45.3875 211.755 43.7008 210.574 43.0261 208.803L16.8828 136.529C15.7865 133.578 17.9791 130.542 21.0995 130.542H135.793C137.648 130.542 139.335 131.722 140.009 133.493L166.153 205.767C167.165 208.634 165.056 211.755 161.936 211.755Z" fill="#CDE0FC"/>
<path d="M154.936 207.622H50.1101C48.2548 207.622 46.5681 206.442 45.8935 204.671L22.7861 140.662C21.6898 137.71 23.8825 134.674 27.0028 134.674H131.913C133.769 134.674 135.455 135.855 136.13 137.626L159.237 201.635C160.249 204.502 158.057 207.622 154.936 207.622Z" fill="#FF8D76"/>
<path d="M60.3991 219.007H49.4358C49.0141 219.007 48.6768 218.67 48.6768 218.248V216.393C48.6768 215.971 49.0141 215.634 49.4358 215.634H60.3991C60.8208 215.634 61.1581 215.971 61.1581 216.393V218.248C61.1581 218.67 60.8208 219.007 60.3991 219.007Z" fill="#CDE0FC"/>
<path d="M75.6633 219.007H64.6999C64.2783 219.007 63.9409 218.67 63.9409 218.248V216.393C63.9409 215.971 64.2783 215.634 64.6999 215.634H75.6633C76.0849 215.634 76.4223 215.971 76.4223 216.393V218.248C76.5066 218.67 76.0849 219.007 75.6633 219.007Z" fill="#CDE0FC"/>
<path d="M69.0851 201.129H129.383C132.419 201.129 134.106 197.587 132.251 195.225L92.7828 145.047C91.0961 142.854 87.6384 143.36 86.5421 145.89L65.7118 196.069C64.6998 198.43 66.4708 201.129 69.0851 201.129Z" fill="#FEC272"/>
<path d="M86.8796 158.962L94.048 180.72C94.3853 181.816 95.4816 182.575 96.6623 182.575H97.7586C99.1923 182.575 100.204 181.479 100.12 180.045L98.1803 158.456C98.096 157.107 96.9153 156.01 95.566 156.01L89.241 155.842C87.47 155.757 86.2893 157.36 86.8796 158.962Z" fill="white"/>
<path d="M102.734 189.406C102.903 191.599 101.216 193.37 99.0236 193.37C96.8309 193.37 94.8912 191.599 94.7226 189.406C94.5539 187.214 96.2406 185.443 98.4332 185.443C100.626 185.443 102.566 187.214 102.734 189.406Z" fill="white"/>
<path d="M0.353516 119.578L10.7265 127.759C10.7265 127.759 13.5095 123.879 19.4972 121.855C25.4848 119.831 33.5808 121.349 33.5808 121.349L37.7975 97.5673C37.7975 97.5673 32.7375 113.422 25.3162 114.518C17.8948 115.615 11.8228 105.663 11.8228 105.663C11.8228 105.663 16.2082 116.542 11.9915 119.831C7.60618 123.205 0.353516 119.578 0.353516 119.578Z" fill="#EDF2F7"/>
<path d="M169.779 188.985L178.044 201.55L199.549 176.588L178.044 209.309L169.779 188.985Z" fill="#E1EAF6"/>
<path d="M182.092 109.711L200.982 75.978L186.646 110.639L182.092 109.711Z" fill="#E1EAF6"/>
<path d="M277.895 125.144C276.63 126.747 274.943 128.602 273.172 130.626C263.895 140.746 249.053 154.661 241.378 158.793C232.186 163.685 224.09 164.865 220.295 159.468C216.5 154.071 216.247 149.854 222.066 143.36C227.885 136.867 249.727 107.94 261.281 98.495C269.461 91.8327 279.666 94.8687 283.461 101.447C287.34 107.856 285.738 115.446 277.895 125.144Z" fill="#F774B9"/>
<path d="M273.172 130.542C263.895 140.662 249.053 154.577 241.378 158.709C232.186 163.6 224.09 164.781 220.295 159.384C234.547 158.203 261.534 127.674 261.534 127.674L273.172 130.542Z" fill="#F261B4"/>
<path d="M238.849 155.504C231.006 170.516 217.175 161.155 206.38 150.613C195.586 140.071 183.526 123.289 181.755 118.313C181.165 116.711 180.996 115.024 181.165 113.338C181.418 109.88 183.189 106.844 185.634 106.844C189.261 106.844 217.681 125.903 227.126 133.746C234.126 139.565 239.355 144.541 240.029 149.77C240.198 151.709 239.861 153.565 238.849 155.504Z" fill="#F774B9"/>
<path d="M238.849 155.504C231.006 170.516 217.175 161.155 206.38 150.613C195.586 140.071 183.526 123.289 181.755 118.313C181.165 116.711 180.996 115.024 181.165 113.338C183.104 113.591 185.128 114.687 187.152 116.88C187.152 116.88 211.356 148.589 223.584 154.83C227.885 157.022 233.957 154.324 239.945 149.77C240.198 151.709 239.861 153.565 238.849 155.504Z" fill="#F261B4"/>
<path d="M188.501 117.892C187.658 122.024 185.803 131.975 182.261 133.578C178.634 135.18 172.225 133.409 170.623 129.277C169.02 125.06 173.153 119.578 177.201 114.35C181.249 109.121 183.779 106.844 186.056 107.013C188.333 107.181 189.345 113.422 188.501 117.892Z" fill="#F774B9"/>
<path d="M171.044 126.915C171.044 127.337 170.623 124.807 171.044 127.337C171.466 129.867 175.514 129.614 176.104 128.518C178.044 125.06 185.297 109.964 183.947 108.784C182.598 107.603 171.297 119.831 171.044 126.915Z" fill="#FF97C9"/>
<path d="M361.553 191.683C361.553 191.683 382.299 189.912 392.166 173.467C402.033 157.022 386.179 118.482 385.251 103.218C384.323 87.9534 396.889 75.978 410.045 87.9534C423.201 99.9287 422.864 139.397 418.141 157.866C413.334 176.419 399.082 190.587 380.107 197.249C366.698 201.972 359.023 199.02 359.023 199.02L361.553 191.683Z" fill="#F774B9"/>
<path d="M301.845 199.948C297.291 214.706 285.232 222.381 272.413 223.73C259.594 225.079 236.824 226.091 234.632 224.658C233.62 223.983 233.114 222.549 233.282 220.947C233.451 219.007 234.547 216.73 236.656 214.959C240.535 211.67 254.45 211.67 254.45 211.67C254.45 211.67 251.92 211.333 248.294 208.55C244.667 205.683 236.15 200.032 242.896 179.118C249.643 158.203 269.461 153.396 289.195 160.311C293.749 161.914 297.123 165.54 299.4 170.094C303.954 178.78 304.544 191.262 301.845 199.948Z" fill="#F774B9"/>
<path d="M267.1 211.417C267.1 212.176 266.426 212.682 265.751 212.682C265.582 212.682 246.101 212.345 240.114 214.032C235.138 215.465 234.885 218.586 234.801 220.525V220.947C234.632 222.634 235.56 222.802 235.728 222.802C236.487 222.887 236.993 223.561 236.909 224.32C236.825 224.995 236.234 225.501 235.56 225.501C235.475 225.501 235.475 225.501 235.391 225.501C233.873 225.332 231.765 223.899 232.102 220.694V220.272C232.271 218.164 232.608 213.357 239.355 211.417C241.8 210.743 246.27 210.321 250.74 210.152C248.547 209.478 246.607 208.719 245.258 207.791C238.174 202.815 236.909 194.804 240.957 180.214C243.993 169.335 250.149 163.347 256.39 159.974C257.065 159.637 257.908 159.89 258.161 160.649C258.414 161.239 258.161 161.914 257.571 162.251C251.92 165.287 246.27 170.853 243.487 180.889C239.186 196.49 241.716 201.972 246.776 205.598C251.499 208.887 265.667 209.984 265.835 209.984C266.51 210.068 267.1 210.658 267.1 211.417Z" fill="#F774B9"/>
<path d="M301.845 199.948C297.291 214.706 285.232 222.381 272.413 223.73C259.594 225.079 236.824 226.091 234.632 224.658C233.62 223.983 233.114 222.549 233.282 220.947C238.005 221.453 255.462 222.549 276.883 212.092C297.207 202.225 299.4 178.78 299.484 170.01C303.954 178.78 304.544 191.262 301.845 199.948Z" fill="#F774B9"/>
<path d="M242.812 186.202C242.812 186.202 249.39 196.406 258.836 202.225C268.281 208.044 273.51 209.225 273.51 209.225C273.51 209.225 264.992 211.164 256.812 210.996C248.631 210.827 242.475 206.189 240.367 198.767C238.174 191.262 242.812 186.202 242.812 186.202Z" fill="#F774B9"/>
<path d="M304.123 221.284C302.858 221.284 301.677 221.284 300.496 221.284C297.545 221.284 294.593 221.2 291.81 221.031C287.172 220.778 282.871 220.272 278.823 219.598C254.113 215.212 240.788 202.056 241.8 173.805C242.644 150.866 249.643 123.373 254.788 106.001C255.294 104.314 255.715 102.796 256.221 101.362C257.908 95.7964 259.342 91.7484 259.932 89.8087C260.185 89.0497 260.354 88.628 260.354 88.628L331.362 76.2311L332.037 76.0624C332.037 76.0624 334.567 81.8814 338.278 91.0737C338.952 92.6761 339.627 94.3627 340.302 96.1337C341.061 98.0734 341.904 100.097 342.747 102.29C348.735 117.301 356.156 136.698 362.144 154.492C363.915 159.721 365.517 164.781 366.951 169.504C368.3 173.973 369.481 178.274 370.409 182.154C376.649 207.369 344.94 220.863 304.123 221.284Z" fill="#FF97C9"/>
<path d="M332.711 212.092H317.194C312.303 212.092 304.207 212.345 301.761 216.983C301.002 218.333 300.665 219.851 300.58 221.284C297.629 221.284 294.677 221.2 291.894 221.031L291.219 217.489C291.219 217.489 291.219 217.489 294.593 213.188C297.882 209.056 308.592 186.961 309.182 185.864C308.929 186.623 304.966 197.755 311.628 204.839C318.122 211.923 331.278 212.092 332.711 212.092Z" fill="#F774B9"/>
<path d="M283.039 217.236C282.955 217.321 282.87 217.321 282.786 217.405C281.605 218.164 280.256 218.923 278.822 219.598C254.028 215.212 240.788 202.056 241.8 173.805C242.475 155.926 246.86 135.349 251.161 118.904C252.426 114.181 253.607 109.88 254.787 106.001C257.908 102.965 262.377 100.266 268.449 100.266C282.533 100.266 290.545 104.145 296.279 148.42C301.845 192.274 294.593 209.393 283.039 217.236Z" fill="#FFBDE0"/>
<path opacity="0.5" d="M283.039 217.236C282.955 217.321 282.87 217.321 282.786 217.405C281.605 218.164 280.256 218.923 278.822 219.598C254.028 215.212 240.788 202.056 241.8 173.805C242.475 155.926 246.86 135.349 251.161 118.904C250.318 131.048 249.474 162.504 261.534 188.141C268.787 203.574 276.714 212.345 283.039 217.236Z" fill="#F9BC93"/>
<path d="M338.362 91.0737C333.133 94.7 322.592 100.856 308.508 104.483C303.111 105.832 297.207 106.844 290.882 107.181C270.389 108.278 260.522 104.145 256.221 101.194C257.908 95.6277 259.342 91.5797 259.932 89.64C264.064 90.9893 274.606 93.435 292.147 91.5797C295.268 91.2423 298.388 90.652 301.424 89.893C314.074 86.6883 325.206 80.1103 331.362 75.978L332.037 75.8937C332.121 75.978 334.567 81.8814 338.362 91.0737Z" fill="#738DE0"/>
<path d="M308.508 104.483C303.111 105.832 297.207 106.844 290.882 107.181C270.389 108.278 260.522 104.145 256.221 101.194C257.908 95.6277 259.342 91.5797 259.932 89.64C264.064 90.9893 274.606 93.435 292.147 91.5797C295.268 91.2423 298.388 90.652 301.424 89.893L308.508 104.483Z" fill="#5A7FDB"/>
<path d="M276.377 111.061C276.377 111.567 276.377 112.073 276.292 112.579C275.618 117.807 271.485 121.855 266.425 121.855C260.944 121.855 256.474 116.964 256.474 110.976C256.474 108.193 257.402 105.663 259.088 103.724C260.944 101.531 263.558 100.182 266.425 100.182C271.907 100.266 276.377 105.073 276.377 111.061Z" fill="#FCBD92"/>
<path d="M276.377 111.061C276.377 111.567 276.377 112.073 276.292 112.579C274.521 114.771 271.823 116.121 268.955 116.121C263.474 116.121 259.004 111.229 259.004 105.326C259.004 104.82 259.004 104.314 259.088 103.808C260.944 101.615 263.558 100.266 266.425 100.266C271.907 100.266 276.377 105.073 276.377 111.061Z" fill="#FFD3B3"/>
<path d="M265.751 113.422C269.244 113.422 272.076 112.063 272.076 110.386C272.076 108.709 269.244 107.35 265.751 107.35C262.258 107.35 259.426 108.709 259.426 110.386C259.426 112.063 262.258 113.422 265.751 113.422Z" fill="#1C3177"/>
<path d="M264.233 120.59V112.579C264.233 111.904 264.823 111.314 265.582 111.314C266.341 111.314 266.932 111.904 266.932 112.579V120.59C266.932 121.265 266.341 121.855 265.582 121.855C264.823 121.855 264.233 121.265 264.233 120.59Z" fill="#1C3177"/>
<path d="M362.228 154.492C360.036 156.601 357.084 158.372 353.289 157.866C343.253 156.516 344.35 152.215 342.41 142.18C340.47 132.144 326.387 133.325 327.567 113.591C328.326 100.435 335.663 96.977 340.47 96.218C341.229 98.1577 342.073 100.182 342.916 102.374C348.819 117.301 356.241 136.698 362.228 154.492Z" fill="#F774B9"/>
<path d="M369.312 199.948C364.758 214.706 352.698 222.381 339.879 223.73C327.061 225.079 304.291 226.091 302.098 224.658C301.086 223.983 300.58 222.549 300.749 220.947C300.917 219.007 302.014 216.73 304.122 214.959C308.001 211.67 321.916 211.67 321.916 211.67C321.916 211.67 319.386 211.333 315.76 208.55C312.134 205.683 303.616 200.032 310.363 179.118C317.109 158.203 336.928 153.396 356.662 160.311C361.216 161.914 364.589 165.54 366.866 170.094C371.42 178.78 372.01 191.262 369.312 199.948Z" fill="#FF97C9"/>
<path d="M334.567 211.417C334.567 212.176 333.892 212.682 333.217 212.682C333.049 212.682 313.568 212.345 307.58 214.032C302.604 215.465 302.351 218.586 302.267 220.525V220.947C302.098 222.634 303.026 222.802 303.195 222.802C303.954 222.887 304.46 223.561 304.375 224.32C304.291 224.995 303.701 225.501 303.026 225.501C302.942 225.501 302.942 225.501 302.857 225.501C301.339 225.332 299.231 223.899 299.568 220.694V220.272C299.737 218.164 300.074 213.357 306.821 211.417C309.267 210.743 313.736 210.321 318.206 210.152C316.013 209.478 314.074 208.719 312.724 207.791C305.64 202.815 304.375 194.804 308.423 180.214C311.459 169.335 317.616 163.347 323.856 159.974C324.531 159.637 325.374 159.89 325.627 160.649C325.88 161.239 325.627 161.914 325.037 162.251C319.387 165.287 313.736 170.853 310.953 180.889C306.652 196.49 309.182 201.972 314.242 205.598C318.965 208.887 333.133 209.984 333.302 209.984C333.976 210.068 334.567 210.658 334.567 211.417Z" fill="#F774B9"/>
<path d="M369.312 199.948C364.758 214.706 352.698 222.381 339.879 223.73C327.061 225.079 304.291 226.091 302.098 224.658C301.086 223.983 300.58 222.549 300.749 220.947C305.471 221.453 322.928 222.549 344.349 212.092C364.673 202.225 366.866 178.78 366.95 170.01C371.42 178.78 372.01 191.262 369.312 199.948Z" fill="#FF8AC7"/>
<path d="M310.279 186.202C310.279 186.202 316.857 196.406 326.302 202.225C335.747 208.044 340.976 209.225 340.976 209.225C340.976 209.225 332.458 211.164 324.278 210.996C316.098 210.827 309.941 206.189 307.833 198.767C305.64 191.262 310.279 186.202 310.279 186.202Z" fill="#FF8AC7"/>
<path d="M292.485 217.489C292.485 217.489 291.135 219.26 292.232 221.959C293.328 224.658 293.159 227.525 290.461 228.874C289.111 229.549 284.389 229.633 279.582 229.549C279.076 229.549 278.485 229.549 277.979 229.465C275.112 229.38 272.413 229.212 270.389 229.043C269.63 228.959 268.956 228.959 268.45 228.874C268.365 228.874 268.365 228.874 268.281 228.874C264.823 228.537 261.872 226.26 261.872 223.055C261.872 222.296 262.04 221.453 262.462 220.61C264.486 216.14 273.004 212.514 273.004 212.514C273.004 212.514 280.425 200.876 285.569 177.768C290.714 154.661 290.461 144.372 291.388 133.156C291.979 126.409 292.063 114.097 305.303 112.747C312.978 111.988 317.7 114.265 320.315 118.313C322.254 121.265 323.182 125.144 323.435 129.53C324.11 140.071 322.339 149.517 314.917 172.118C307.496 194.804 292.485 217.489 292.485 217.489Z" fill="#FF97C9"/>
<path d="M292.485 217.489C292.485 217.489 291.135 219.26 292.232 221.959C293.328 224.658 293.159 227.525 290.461 228.874C289.111 229.549 284.389 229.633 279.582 229.549C279.076 229.549 278.485 229.549 277.979 229.465C275.112 229.38 272.413 229.212 270.389 229.043C269.63 228.959 268.956 228.959 268.45 228.874C268.365 228.874 268.365 228.874 268.281 228.874C264.823 228.537 261.872 226.26 261.872 223.055C263.474 222.887 265.245 222.887 266.932 223.055C271.233 223.477 284.895 225.332 286.244 222.381C287.593 219.429 285.569 215.887 285.569 215.887C285.569 215.887 295.436 198.43 304.629 175.997C313.315 154.745 319.724 121.855 320.315 118.398C322.254 121.349 323.182 125.229 323.435 129.614C324.11 140.156 322.339 149.601 314.917 172.202C307.496 194.804 292.485 217.489 292.485 217.489Z" fill="#FF8AC7"/>
<path d="M288.015 230.73C283.798 230.73 268.534 230.308 266.004 229.802C264.317 229.465 262.799 228.284 261.787 226.682C260.691 224.995 260.438 222.971 260.944 220.947C261.956 217.068 270.305 212.851 271.991 212.008C272.666 211.67 273.425 211.923 273.762 212.598C274.1 213.273 273.847 214.032 273.172 214.369C269.461 216.14 264.064 219.598 263.558 221.537C263.221 222.802 263.474 224.067 264.148 225.164C264.739 226.176 265.666 226.85 266.594 227.103C269.04 227.609 287.34 228.115 288.858 227.947C289.701 227.862 291.304 227.188 291.557 224.995C291.81 223.055 290.545 220.104 290.039 219.176C289.786 218.754 289.87 218.164 290.123 217.742C290.123 217.658 293.749 212.767 299.484 203.237C305.556 193.201 313.062 173.805 319.049 152.468C325.121 131.132 319.893 119.916 319.808 119.831C319.471 119.157 319.724 118.398 320.399 118.06C321.073 117.723 321.832 117.976 322.17 118.651C322.423 119.157 327.904 130.795 321.579 153.227C315.507 174.732 307.917 194.466 301.677 204.671C297.038 212.261 293.834 216.983 292.653 218.67C293.243 220.019 294.424 222.887 294.087 225.332C293.665 228.79 291.135 230.477 288.942 230.645C288.858 230.73 288.521 230.73 288.015 230.73Z" fill="#F774B9"/>
<path d="M273.594 217.236C273.594 217.236 270.558 219.092 269.799 222.296C269.208 225.164 270.136 228.368 270.389 229.127C269.63 229.043 268.955 229.043 268.449 228.959C268.028 227.525 267.437 224.658 268.028 221.875C268.871 217.995 272.497 215.803 272.666 215.718C273.088 215.465 273.678 215.634 273.931 216.056C274.1 216.393 274.015 216.983 273.594 217.236Z" fill="#F774B9"/>
<path d="M282.28 217.658C282.196 217.742 279.919 219.345 279.413 223.055C278.907 226.935 279.666 228.706 279.666 228.706C279.75 228.959 279.75 229.296 279.582 229.549C279.076 229.549 278.485 229.549 277.979 229.465C277.895 229.212 276.967 227.188 277.558 222.802C278.148 218.164 281.1 216.224 281.184 216.14C281.606 215.887 282.112 215.971 282.449 216.393C282.786 216.815 282.618 217.405 282.28 217.658Z" fill="#F774B9"/>
<path d="M332.121 75.978C332.121 75.978 330.181 77.749 326.555 80.3633C322.928 82.9776 306.568 92.3386 284.894 93.0133C266.762 93.6036 240.45 93.435 232.017 75.1347C230.33 71.5083 229.403 67.123 229.318 61.9786C228.897 30.6066 266.509 18.6313 281.774 18.2097C298.134 17.788 315.254 19.6433 322.085 30.8597C325.458 36.4257 328.41 49.413 329.928 58.6053C331.446 67.9663 332.121 75.978 332.121 75.978Z" fill="#FF97C9"/>
<path d="M281.268 20.318C279.075 22.848 276.208 24.366 273.341 25.2937C265.666 27.7394 257.402 25.9684 257.402 25.9684C257.402 25.9684 256.558 16.1857 256.643 10.957C256.727 8.84868 256.896 7.33069 257.317 6.23436C257.992 4.54769 259.004 3.87302 260.606 3.70436C263.305 3.45136 281.268 20.318 281.268 20.318Z" fill="#FF97C9"/>
<path d="M271.569 23.4383C264.738 22.5106 259.763 24.1973 259.763 24.1973C259.763 24.1973 258.245 16.1856 258.329 12.0533C258.329 10.3666 258.582 9.18597 258.919 8.2583C260.1 9.18597 262.377 11.21 265.413 14.8363C268.365 18.547 270.473 21.7516 271.569 23.4383Z" fill="#FFBDE0"/>
<path d="M325.037 38.534L316.013 34.992L295.604 26.9803C295.604 26.9803 297.966 10.451 301.761 5.05366C301.761 4.96933 301.845 4.96933 301.845 4.885C305.725 -0.343668 309.351 0.0780009 310.953 2.608C312.555 5.138 319.133 19.812 321.832 27.8237C324.615 36.004 325.037 38.534 325.037 38.534Z" fill="#FF97C9"/>
<path d="M314.073 23.9444L299.315 23.0167C299.315 23.0167 301.002 11.8004 303.785 7.49935C304.881 7.24635 305.977 7.41501 306.989 8.42701C309.435 10.957 312.808 19.306 313.82 22.9323C313.905 23.1853 313.989 23.607 314.073 23.9444Z" fill="#FFBDE0"/>
<path d="M302.351 57.003C301.761 57.003 301.171 56.5813 301.086 55.991C300.918 55.232 301.339 54.5573 302.098 54.3887L315.423 51.184C316.182 51.0153 316.857 51.437 317.025 52.196C317.194 52.955 316.772 53.6297 316.013 53.7983L302.689 57.003C302.604 56.9187 302.436 57.003 302.351 57.003Z" fill="#F774B9"/>
<path d="M315.339 68.641C315.254 68.641 315.17 68.641 315.086 68.641L302.773 66.1953C302.014 66.0267 301.592 65.352 301.677 64.593C301.845 63.834 302.52 63.4123 303.279 63.4967L315.592 65.9423C316.351 66.111 316.772 66.7857 316.688 67.5447C316.519 68.2193 316.013 68.641 315.339 68.641Z" fill="#F774B9"/>
<path d="M232.692 65.0147C232.017 65.0147 231.427 64.5087 231.343 63.834C231.258 63.075 231.764 62.4003 232.523 62.316L244.752 60.8823C245.511 60.798 246.185 61.304 246.27 62.063C246.354 62.822 245.848 63.4967 245.089 63.581L232.861 65.0147C232.776 65.0147 232.776 65.0147 232.692 65.0147Z" fill="#F774B9"/>
<path d="M244.836 55.0633C244.667 55.0633 244.583 55.0633 244.414 54.979L232.355 50.8466C231.68 50.5936 231.258 49.8346 231.511 49.16C231.764 48.4853 232.523 48.0636 233.198 48.3166L245.258 52.449C245.932 52.702 246.354 53.461 246.101 54.1357C245.848 54.726 245.342 55.0633 244.836 55.0633Z" fill="#F774B9"/>
<path d="M304.291 24.5347H295.773C295.014 24.5347 294.424 23.9443 294.424 23.1853C294.424 22.4263 295.014 21.836 295.773 21.836H304.291C305.05 21.836 305.64 22.4263 305.64 23.1853C305.64 23.9443 305.05 24.5347 304.291 24.5347Z" fill="#F774B9"/>
<path d="M274.268 24.5347H265.751C264.992 24.5347 264.401 23.9443 264.401 23.1853C264.401 22.4263 264.992 21.836 265.751 21.836H274.268C275.027 21.836 275.618 22.4263 275.618 23.1853C275.533 23.9443 274.943 24.5347 274.268 24.5347Z" fill="#F774B9"/>
<path d="M332.121 75.978C332.121 75.978 330.181 77.749 326.555 80.3633C322.928 82.9777 306.568 92.3387 284.894 93.0133C266.762 93.6037 240.45 93.435 232.017 75.1347C234.378 77.243 246.185 85.9293 280.256 84.4113C312.471 82.8933 326.217 64.7617 329.928 58.6053C331.446 67.9663 332.121 75.978 332.121 75.978Z" fill="#FF8AC7"/>
<path d="M267.606 70.918C267.353 70.918 267.1 70.8336 266.931 70.7493C266.257 70.3276 266.088 69.5686 266.51 68.894L269.04 64.6773C269.799 63.4123 271.148 62.6533 272.582 62.569C274.015 62.4846 275.449 63.1593 276.292 64.34L279.497 68.7253C279.919 69.3156 279.834 70.159 279.16 70.5806C278.569 71.0023 277.726 70.918 277.304 70.2433L274.1 65.858C273.762 65.352 273.256 65.1833 272.666 65.1833C272.076 65.1833 271.57 65.5206 271.317 66.0266L268.787 70.2433C268.534 70.665 268.112 70.918 267.606 70.918Z" fill="#1C3177"/>
<path d="M250.318 38.6184C250.318 42.582 252.173 45.7867 254.366 45.7867C256.643 45.7867 258.414 42.582 258.414 38.6184C258.414 37.1004 258.161 35.6667 257.655 34.486L250.824 35.0764C250.487 36.0884 250.318 37.3534 250.318 38.6184Z" fill="#1C3177"/>
<path d="M259.763 36.51H251.245C250.486 36.51 249.896 35.9197 249.896 35.1607C249.896 34.4017 250.486 33.8113 251.245 33.8113H259.763C260.522 33.8113 261.112 34.4017 261.112 35.1607C261.112 35.9197 260.438 36.51 259.763 36.51Z" fill="#1C3177"/>
<path d="M296.195 40.558C296.195 45.0277 294.255 48.654 291.81 48.654C289.364 48.654 287.424 45.0277 287.424 40.558C287.424 38.787 287.762 37.1847 288.268 35.8353L295.689 36.51C295.942 37.6907 296.195 39.1243 296.195 40.558Z" fill="#1C3177"/>
<path d="M296.785 37.9437H288.268C287.509 37.9437 286.918 37.3533 286.918 36.5943C286.918 35.8353 287.509 35.245 288.268 35.245H296.785C297.544 35.245 298.135 35.8353 298.135 36.5943C298.135 37.3533 297.46 37.9437 296.785 37.9437Z" fill="#1C3177"/>
</g>
<defs>
<clipPath id="clip0_34_1699">
<rect width="435" height="234" fill="white"/>
</clipPath>
</defs>
</svg>
