<svg width="595" height="360" viewBox="0 0 595 360" fill="none" xmlns="http://www.w3.org/2000/svg">
<path d="M208.866 198.058C208.866 198.058 188.468 179.964 200.999 163.117C213.53 146.27 235.51 164.833 235.51 164.833C235.51 164.833 219.803 146.887 233.795 132.72C247.787 118.554 265.833 143.114 265.833 143.114C265.833 143.114 260.325 117.18 278.271 113.059C296.217 108.938 303.3 133.25 303.3 133.25C303.3 133.25 309.519 108.341 328.403 109.97C347.287 111.598 345.23 137.619 345.23 137.619L208.866 198.058Z" fill="#99ADF9"/>
<path d="M254.26 123.453L285.086 173.357L376.826 163.305L367.042 94.0878C367.042 94.0878 269.425 97.177 254.26 123.453Z" fill="#7791E5"/>
<path d="M80.2887 17.4457C80.2887 17.4457 80.6372 0.853381 96.0902 0.022427C111.543 -0.808528 113.038 21.7278 113.038 21.7278C113.038 21.7278 122.701 5.34322 137.986 13.76C153.272 22.1767 141.216 40.4041 141.216 40.4041C141.216 40.4041 156.415 32.758 165.455 47.0719C174.495 61.3857 157.279 73.3274 157.279 73.3274C157.279 73.3274 173.362 75.1166 175.071 88.7402C176.78 102.364 161.669 108.408 161.669 108.408L80.2887 17.4457Z" fill="#99ADF9"/>
<path d="M154.982 26.6063L117.207 62.6657L139.187 129.631L195.504 106.626L181.773 44.2975L154.982 26.6063Z" fill="#7791E5"/>
<path d="M567.791 263.388H27.2086C20.0668 263.39 13.2182 266.228 8.16888 271.279C3.11954 276.329 0.282959 283.179 0.282959 290.32C0.282959 293.857 0.979634 297.359 2.33319 300.626C3.68675 303.893 5.67067 306.862 8.17166 309.362C10.6726 311.862 13.6417 313.846 16.9092 315.198C20.1768 316.551 23.6788 317.247 27.2153 317.246H42.6281C44.6653 317.256 46.6802 317.671 48.5563 318.464C50.4324 319.258 52.1325 320.416 53.5583 321.872C54.9841 323.327 56.1072 325.05 56.8629 326.942C57.6185 328.834 57.9916 330.856 57.9606 332.893V333.068C57.9597 336.604 58.6555 340.106 60.0083 343.374C61.361 346.641 63.3442 349.61 65.8445 352.111C68.3449 354.612 71.3135 356.596 74.5807 357.95C77.8479 359.303 81.3497 360 84.8862 360H407.049C410.585 360 414.087 359.303 417.354 357.95C420.621 356.596 423.59 354.612 426.09 352.111C428.591 349.61 430.574 346.641 431.927 343.374C433.279 340.106 433.975 336.604 433.974 333.068V332.893C433.943 330.856 434.316 328.834 435.072 326.942C435.828 325.05 436.951 323.327 438.376 321.872C439.802 320.416 441.502 319.258 443.379 318.464C445.255 317.671 447.269 317.256 449.307 317.246H567.791C574.932 317.246 581.781 314.409 586.831 309.36C591.88 304.31 594.717 297.462 594.717 290.32C594.718 286.784 594.022 283.282 592.669 280.014C591.317 276.747 589.333 273.778 586.833 271.277C584.333 268.776 581.364 266.792 578.097 265.438C574.83 264.085 571.328 263.388 567.791 263.388Z" fill="#E1ECFF"/>
<path d="M159.96 263.388C159.96 263.388 166.916 148.174 159.96 88.4252C153.004 28.6769 112.643 13.3713 70.3311 18.1962C34.8145 22.2169 8.8606 45.8991 11.3602 70.1643C13.8597 94.4296 34.714 105.996 73.407 106.793C73.7488 141.593 66.7058 263.388 66.7058 263.388H159.96Z" fill="#FF97C9"/>
<g style="mix-blend-mode:soft-light" opacity="0.79">
<path d="M73.3274 118.246C73.3274 118.246 87.5675 107.43 100.421 117.328C123.312 134.952 113.012 263.415 113.012 263.415H66.7065L73.3274 118.246Z" fill="white"/>
</g>
<g style="mix-blend-mode:multiply" opacity="0.21">
<path d="M162.025 114.312C162.025 114.312 156.53 206.729 123.392 273.346C161.783 283.137 175.186 275.41 175.186 275.41L162.025 114.312Z" fill="#FF97C9"/>
</g>
<path d="M71.9864 151.739C71.1652 151.735 70.374 151.43 69.7629 150.881C69.1519 150.333 68.7637 149.579 68.6719 148.763C68.5801 147.946 68.7912 147.125 69.2651 146.455C69.739 145.784 70.4427 145.311 71.2426 145.125C72.0333 144.944 90.9509 140.755 119.552 143.523C120.441 143.612 121.257 144.05 121.823 144.741C122.388 145.432 122.656 146.32 122.567 147.209C122.479 148.097 122.04 148.914 121.349 149.48C120.658 150.045 119.77 150.313 118.882 150.224C91.4066 147.544 72.8911 151.645 72.7035 151.685C72.4669 151.728 72.2266 151.745 71.9864 151.739Z" fill="#FF97C9"/>
<path d="M67.4166 187.885C66.5796 187.895 65.7694 187.591 65.1453 187.033C64.5213 186.475 64.1286 185.704 64.0445 184.871C63.9605 184.038 64.1912 183.204 64.6912 182.533C65.1913 181.862 65.9245 181.402 66.7465 181.244C67.6109 181.077 88.2374 177.136 119.465 179.743C119.905 179.78 120.334 179.903 120.726 180.105C121.119 180.307 121.468 180.584 121.753 180.921C122.038 181.258 122.254 181.648 122.389 182.069C122.524 182.489 122.574 182.932 122.538 183.372C122.501 183.812 122.378 184.24 122.176 184.633C121.974 185.026 121.697 185.374 121.36 185.66C121.023 185.945 120.633 186.161 120.212 186.296C119.792 186.43 119.349 186.481 118.909 186.444C88.6797 183.918 68.2342 187.785 68.0331 187.845C67.8292 187.876 67.6229 187.89 67.4166 187.885Z" fill="#FF97C9"/>
<path d="M67.4172 230.773C66.596 230.769 65.8048 230.464 65.1937 229.916C64.5827 229.367 64.1944 228.613 64.1027 227.797C64.0109 226.981 64.222 226.16 64.6959 225.489C65.1698 224.818 65.8735 224.345 66.6734 224.159C67.4641 223.978 86.3817 219.79 114.983 222.557C115.871 222.646 116.688 223.085 117.254 223.776C117.819 224.467 118.087 225.354 117.998 226.243C117.909 227.132 117.471 227.949 116.78 228.514C116.089 229.08 115.201 229.348 114.313 229.259C86.8709 226.578 68.3219 230.679 68.1342 230.72C67.8977 230.762 67.6574 230.78 67.4172 230.773Z" fill="#FF97C9"/>
<path d="M186.979 263.388C186.979 263.388 194.82 194.707 243.156 156.838C291.492 118.97 360.099 129.276 391.334 162.561C431.24 205.094 428.861 263.361 428.861 263.361H358.9C358.9 263.361 351.307 215.347 314.879 215.347C278.451 215.347 270.497 263.361 270.497 263.361L186.979 263.388Z" fill="#FF97C9"/>
<g style="mix-blend-mode:multiply" opacity="0.21">
<path d="M326.499 133.303C326.499 133.303 395.368 159.164 390.731 263.388H437.097L418.548 122.427L326.499 133.303Z" fill="#FF97C9"/>
</g>
<path d="M451.86 263.388C451.86 263.388 462.334 219.716 491.183 192.831C520.031 165.945 542.588 156.825 549.731 167.922C554.08 174.677 530.157 198.654 522.926 263.388H451.86Z" fill="#FF97C9"/>
<g style="mix-blend-mode:multiply" opacity="0.21">
<path d="M485.514 270.773C485.514 270.773 505.088 188.87 556.084 177.538C548.874 226.216 529.816 278.499 529.816 278.499L485.514 270.773Z" fill="#FF97C9"/>
</g>
<path d="M35.6525 55.2809C38.6873 55.2809 41.1475 52.8207 41.1475 49.7859C41.1475 46.751 38.6873 44.2908 35.6525 44.2908C32.6177 44.2908 30.1575 46.751 30.1575 49.7859C30.1575 52.8207 32.6177 55.2809 35.6525 55.2809Z" fill="#1C3177"/>
<path d="M74.794 55.2809C77.8288 55.2809 80.289 52.8207 80.289 49.7859C80.289 46.751 77.8288 44.2908 74.794 44.2908C71.7592 44.2908 69.299 46.751 69.299 49.7859C69.299 52.8207 71.7592 55.2809 74.794 55.2809Z" fill="#1C3177"/>
<path d="M39.0833 72.2819C48.1015 71.3514 57.1916 71.3514 66.2099 72.2819" stroke="#1C3177" stroke-width="8" stroke-miterlimit="10" stroke-linecap="round"/>
<g style="mix-blend-mode:multiply" opacity="0.21">
<path d="M323.103 153.08C323.65 150.306 319.842 147.22 314.599 146.186C309.356 145.153 304.662 146.564 304.115 149.338C303.568 152.112 307.376 155.199 312.619 156.232C317.862 157.266 322.556 155.855 323.103 153.08Z" fill="#FF97C9"/>
</g>
<g style="mix-blend-mode:multiply" opacity="0.21">
<path d="M349.56 169.927C350.02 167.593 347.123 165.055 343.089 164.26C339.055 163.465 335.411 164.713 334.951 167.048C334.491 169.383 337.388 171.92 341.422 172.715C345.457 173.51 349.1 172.262 349.56 169.927Z" fill="#FF97C9"/>
</g>
<g style="mix-blend-mode:multiply" opacity="0.49">
<path d="M322.209 176.987C322.673 174.634 319.658 172.058 315.475 171.233C311.292 170.409 307.525 171.648 307.061 174.001C306.597 176.354 309.612 178.93 313.796 179.754C317.979 180.579 321.746 179.34 322.209 176.987Z" fill="#FF97C9"/>
</g>
<g style="mix-blend-mode:multiply">
<path d="M300.585 294.984H149.318C141.542 294.984 135.239 301.288 135.239 309.064C135.239 316.84 141.542 323.143 149.318 323.143H300.585C308.361 323.143 314.665 316.84 314.665 309.064C314.665 301.288 308.361 294.984 300.585 294.984Z" fill="#E1ECFF"/>
</g>
</svg>
