<svg width="519" height="482" viewBox="0 0 519 482" fill="none" xmlns="http://www.w3.org/2000/svg">
<path d="M319.191 137.193C279.096 136.097 215.042 167.584 181.306 209.638C129.595 274.092 79.8811 242.5 31.7738 286.151C-4.61232 319.176 -16.0228 390.489 38.0954 427.476C92.2135 464.462 185.71 424.773 240.971 447.183C296.233 469.593 345.72 487.984 401.93 479.518C466.468 469.82 523.431 411.529 512.906 307.36C499.446 174.095 404.769 139.527 319.191 137.193Z" fill="#E1ECFF"/>
<path d="M473.216 330.755C473.216 330.755 506.873 345.611 508.849 374.479C510.603 400.124 497.107 426.448 473.216 438.749C445.923 452.772 434.07 429.44 442.709 414.69C451.349 399.94 499.403 377.287 466.737 348.282C466.737 335.886 473.216 330.755 473.216 330.755Z" fill="#F774B9"/>
<path opacity="0.58" d="M130.933 327.299C119.001 326.045 97.0179 326.567 85.1544 329.649C74.3444 332.457 64.0824 344.926 80.4132 350.721C96.744 356.516 83.1578 363.622 61.4484 364.66C39.7389 365.698 30.0037 380.011 45.2809 387.95C60.5581 395.889 91.7025 396.379 117.51 396.379C143.318 396.379 176.691 392.37 190.783 383.92C204.875 375.47 194.044 367.452 189.15 365.229C184.256 363.006 179.51 362.484 180.842 359.002C182.175 355.52 188.217 345.374 179.309 337.54C164.216 324.296 143.719 328.648 130.933 327.299Z" fill="#99ADF9"/>
<path d="M247.398 311.964C247.398 311.964 246.376 334.3 244.532 336.961C242.689 339.621 226.094 344.236 225.178 349.462C224.261 354.687 224.361 363.806 232.758 365.445C241.156 367.083 259.099 366.677 263.697 366.498C268.296 366.319 277.832 353.381 282.03 323.875C257.033 312.459 247.398 311.964 247.398 311.964Z" fill="#F774B9"/>
<path d="M290.991 32.4492C290.991 32.4492 278.437 8.55357 269.666 3.02217C260.895 -2.50923 255.084 0.187982 252.93 5.99332C250.775 11.7987 250.227 35.1464 250.227 35.1464C250.227 35.1464 225.931 57.6882 216.754 82.6585C207.577 107.629 205.549 158.249 263.455 164.987C321.361 171.725 381.026 152.581 406.545 135.302C398.168 93.0523 386.289 37.9806 383.587 22.7508C380.884 7.52104 372.524 -0.0332761 363.342 0.0194039C354.16 0.0720839 342.802 21.3811 339.314 34.3404C315.155 31.501 290.991 32.4492 290.991 32.4492Z" fill="#FF97C9"/>
<path opacity="0.3" d="M345.768 35.6416C345.768 35.6416 353.759 9.85997 360.713 9.99694C366.94 10.1181 369.821 29.4885 370.343 39.0289C370.361 39.3679 370.301 39.7065 370.167 40.0185C370.033 40.3304 369.829 40.6072 369.57 40.8274C369.312 41.0476 369.006 41.2052 368.677 41.288C368.348 41.3707 368.004 41.3765 367.672 41.3047C359.18 39.4925 345.768 35.6416 345.768 35.6416Z" fill="white"/>
<path opacity="0.3" d="M250.085 35.236C250.085 35.236 249.432 8.04789 255.216 6.01445C261.09 3.94412 270.493 21.1389 274.297 29.9206C274.43 30.2328 274.49 30.5716 274.472 30.9107C274.453 31.2498 274.357 31.5801 274.191 31.876C274.024 32.172 273.792 32.4256 273.511 32.6173C273.231 32.8089 272.91 32.9335 272.574 32.9813C263.987 34.214 250.085 35.236 250.085 35.236Z" fill="white"/>
<path d="M406.544 135.302C410.664 151.906 435.16 196.042 450.142 220.343C465.125 244.644 478.358 275.13 477.536 313.655C476.714 352.18 462.185 362.7 442.051 368.548C421.916 374.395 409.505 372.762 397.8 374.311C386.094 375.86 373.867 380.88 365.944 374.311C358.021 367.742 353.885 363.87 345.067 368.458C336.248 373.047 313.843 371.787 307.996 370.26C302.148 368.732 299.267 357.032 309.05 351C293.03 356.131 252.155 351.432 242.367 311.859C234.539 280.135 258.171 214.548 263.439 199.555C268.828 184.173 271.267 175.66 268.296 161.758C287.888 156.226 406.544 135.302 406.544 135.302Z" fill="#FF97C9"/>
<path d="M423.27 173.057C423.27 173.057 402.146 196.068 406.545 219.532C409.6 235.894 429.761 244.908 431.92 258.947C434.08 272.986 449.473 296.35 475.387 284.276C472.136 244.096 423.27 173.057 423.27 173.057Z" fill="#F774B9"/>
<g style="mix-blend-mode:multiply" opacity="0.19">
<path d="M458.64 233.334C458.64 233.334 475.94 338.831 410.596 373.405C456.08 400.983 518.031 317.564 518.031 317.564L458.64 233.334Z" fill="#FF97C9"/>
</g>
<path d="M362.715 324.908C362.715 324.908 363.768 347.492 383.408 351.184C380.889 356.31 362.983 352.891 362.172 370.797C358.843 368.764 354.702 363.87 345.072 368.458C358.121 346.501 362.715 324.908 362.715 324.908Z" fill="#F774B9"/>
<path opacity="0.3" d="M262.201 186.022C262.201 186.022 268.923 180.048 288.541 182.861C308.159 185.674 333.103 242.121 329.911 275.847C326.719 309.573 330.901 348.514 299.699 355.841C268.586 367.921 201.619 321.973 201.619 321.973L262.201 186.022Z" fill="white"/>
<path d="M329.21 239.218C329.242 258.768 327.467 278.244 325.565 297.693C324.622 307.365 323.763 317.069 322.035 326.667C320.76 333.716 319.217 346.354 310.135 347.523C307.153 347.908 307.111 352.654 310.135 352.264C319.238 351.09 323.305 342.892 325.201 334.801C327.577 324.665 328.673 314.256 329.7 303.904C331.807 282.416 333.983 260.88 333.952 239.255C333.952 236.205 329.21 236.2 329.21 239.255V239.218Z" fill="#F774B9"/>
<path d="M369.521 277.195C368.041 292.615 364.738 307.787 360.513 322.674C358.406 330.002 356.125 337.266 353.696 344.483C352.484 348.09 351.245 351.69 349.977 355.283C348.749 358.77 347.564 362.331 345.025 365.113C342.97 367.362 346.316 370.723 348.375 368.463C353.369 362.995 355.145 354.94 357.473 348.097C360.107 340.417 362.573 332.688 364.812 324.886C369.289 309.277 372.714 293.373 374.262 277.195C374.557 274.161 369.811 274.182 369.521 277.195Z" fill="#F774B9"/>
<path d="M393.622 273.824C386.247 277.364 379.272 283.512 373.846 289.58C368.42 295.649 365.254 303.119 363.473 310.974C361.693 318.828 360.018 327.995 363.089 335.733C365.681 342.26 370.933 347.502 377.096 350.752C385.562 355.22 395.334 356.052 404.748 355.91C407.793 355.868 407.804 351.126 404.748 351.168C395.308 351.311 385.315 350.536 377.154 345.3C369.431 340.343 365.607 332.657 366.302 323.527C366.998 314.398 369.105 304.562 374.204 296.808C376.838 292.788 380.436 289.549 384.029 286.404C387.743 283.148 391.531 280.082 396.003 277.922C398.753 276.6 396.351 272.512 393.612 273.829L393.622 273.824Z" fill="#F774B9"/>
<path d="M385.789 350.199C379.673 352.57 373.304 354.635 367.351 357.395C365.109 358.406 363.237 360.089 361.994 362.211C360.751 364.332 360.199 366.788 360.413 369.238C360.681 372.251 365.423 372.277 365.154 369.238C364.68 363.928 368.357 362.015 372.666 360.345L387.053 354.772C389.871 353.681 388.633 349.093 385.794 350.199H385.789Z" fill="#F774B9"/>
<path d="M310.14 359.26C308.768 362.181 308.187 365.411 308.455 368.627C308.734 371.64 313.475 371.672 313.196 368.627C312.93 366.25 313.293 363.844 314.249 361.652C314.776 360.477 314.581 359.118 313.401 358.412C312.39 357.806 310.683 358.096 310.156 359.26H310.14Z" fill="#F774B9"/>
<path d="M325.871 359.545C324.243 362.669 324.116 366.045 324.222 369.496C324.311 372.541 329.052 372.551 328.963 369.496C328.884 366.946 328.752 364.27 329.964 361.942C331.37 359.234 327.282 356.837 325.871 359.545Z" fill="#F774B9"/>
<path d="M269.129 166.383C269.129 166.383 342.554 172.557 406.534 135.302C410 145.311 414.726 155.952 414.726 155.952C414.726 155.952 351.078 194.583 268.196 184.273C265.22 179.363 269.129 166.383 269.129 166.383Z" fill="#738DE0"/>
<path d="M237.542 86.0774C239.407 84.4444 255.221 84.0545 256.886 85.0923C258.551 86.1301 256.707 97.3299 247.214 97.3299C237.721 97.3299 236.098 87.3418 237.542 86.0774Z" fill="#1C3177"/>
<path d="M305.568 86.0774C307.438 84.4444 323.252 84.0545 324.917 85.0923C326.582 86.1301 324.738 97.3299 315.245 97.3299C305.752 97.3299 304.129 87.3418 305.568 86.0774Z" fill="#1C3177"/>
<path d="M271.647 131.798C271.647 131.798 276.594 119.292 279.549 119.561C282.504 119.83 289.284 131.798 289.284 131.798" stroke="#1C3177" stroke-width="9" stroke-miterlimit="10" stroke-linecap="round"/>
<path d="M203.795 110.679C210.093 110.437 216.4 110.542 222.686 110.995C225.731 111.216 225.72 106.475 222.686 106.254C216.4 105.801 210.093 105.695 203.795 105.938C200.755 106.054 200.739 110.795 203.795 110.679Z" fill="#F774B9"/>
<path d="M205.907 134.085C211.15 131.736 216.513 129.666 221.975 127.884C224.862 126.941 223.629 122.364 220.716 123.317C214.869 125.236 209.128 127.462 203.516 129.986C200.739 131.235 203.147 135.323 205.907 134.085Z" fill="#F774B9"/>
<path d="M335.321 111.606C340.527 108.462 345.976 105.738 351.615 103.462C354.412 102.34 353.196 97.7566 350.356 98.8892C344.327 101.295 338.499 104.178 332.93 107.513C330.296 109.093 332.698 113.181 335.321 111.606Z" fill="#F774B9"/>
<path d="M337.149 124.86C342.544 125.182 347.917 125.724 353.264 126.52C356.246 126.962 357.536 122.395 354.523 121.947C348.728 121.089 342.965 120.467 337.139 120.119C334.088 119.935 334.099 124.676 337.139 124.86H337.149Z" fill="#F774B9"/>
<path d="M276.615 33.5924C280.975 33.1186 285.365 32.9759 289.748 33.1657C292.798 33.2974 292.793 28.5562 289.748 28.4245C285.365 28.2347 280.975 28.3774 276.615 28.8512C273.617 29.1778 273.58 33.9243 276.615 33.5924Z" fill="#F774B9"/>
<path d="M341.337 35.4784C344.493 35.533 347.611 36.178 350.53 37.3801C353.359 38.518 354.586 33.9348 351.789 32.8075C348.464 31.4748 344.919 30.7727 341.337 30.7372C338.287 30.6898 338.287 35.431 341.337 35.4784Z" fill="#F774B9"/>
<path d="M271.647 210.081C279.747 210.081 286.313 203.935 286.313 196.353C286.313 188.771 279.747 182.624 271.647 182.624C263.547 182.624 256.981 188.771 256.981 196.353C256.981 203.935 263.547 210.081 271.647 210.081Z" fill="#FFD3B3"/>
<path d="M276.681 196.012C276.957 193.974 274.214 191.921 270.555 191.427C266.896 190.933 263.707 192.185 263.431 194.223C263.156 196.262 265.899 198.315 269.558 198.809C273.217 199.303 276.406 198.051 276.681 196.012Z" fill="#1C3177"/>
<path d="M270.066 195.594C268.153 200.61 267.565 206.035 268.36 211.345" stroke="#1C3177" stroke-width="7" stroke-miterlimit="10"/>
<path d="M74.1338 377.277L107.954 415.507L126.324 407.552L113.038 400.925L117.221 382.234L74.1338 377.277Z" fill="#738DE0"/>
<path d="M143.297 382.65L158.327 368.806L166.434 384.03L143.297 382.65Z" fill="#738DE0"/>
<path d="M100.226 298.415L196.293 308.903C196.293 308.903 206.877 333.826 195.456 351.627L122.231 356.189L127.772 340.564L115.514 336.413L125.154 314.972L100.226 298.415Z" fill="#738DE0"/>
</svg>
