<svg width="23" height="22" viewBox="0 0 23 22" fill="none" xmlns="http://www.w3.org/2000/svg">
<g clip-path="url(#clip0_879_6539)">
<path d="M16.1179 13.6364C17.614 13.5066 19.0754 14.0995 19.3862 15.2105C19.6967 16.3208 18.3504 17.4787 16.9016 17.8839C15.4528 18.2892 14.0054 17.4023 13.6948 16.292C13.3839 15.1804 14.474 13.7774 16.1179 13.6364Z" fill="#EDF2F7"/>
<path d="M14.3317 11.907C13.7191 10.9251 14.3814 9.3045 15.9381 8.74772C17.3548 8.24256 18.94 8.43154 19.5546 9.41554C20.1688 10.3983 19.1854 11.8489 17.8925 12.6061C16.5993 13.3647 14.9462 12.8884 14.3317 11.907Z" fill="#EDF2F7"/>
<path d="M11.8558 5.27858C12.9509 4.27231 14.4982 3.82773 15.4845 4.47747C16.4711 5.12319 16.1791 6.8147 15.3057 8.00232C14.4341 9.1888 12.7013 9.40058 11.7139 8.75181C10.728 8.10391 10.6516 6.3849 11.8558 5.27858Z" fill="#EDF2F7"/>
<path d="M9.14758 2.95111C10.2285 3.12699 10.6512 4.61335 10.3867 5.8957C10.1234 7.17769 8.75438 7.97456 7.67279 7.79886C6.59056 7.62334 5.84915 6.24516 6.42081 4.9097C6.94264 3.69315 8.06552 2.7762 9.14758 2.95111Z" fill="#EDF2F7"/>
<path d="M13.167 11.2708C14.0847 13.8809 12.8832 17.7941 10.2777 18.5229C7.67228 19.2517 4.84052 16.9828 4.0523 14.3306C2.84027 10.2351 4.86872 8.69616 7.55747 8.4361C10.3445 8.16825 12.5114 9.41207 13.167 11.2708Z" fill="#EDF2F7"/>
</g>
<defs>
<clipPath id="clip0_879_6539">
<rect width="17.5152" height="17.5152" fill="white" transform="matrix(-0.269368 -0.963037 -0.963037 0.269368 22.4958 17.2397)"/>
</clipPath>
</defs>
</svg>
