<svg width="24" height="24" viewBox="0 0 24 24" fill="none" xmlns="http://www.w3.org/2000/svg">
<g clip-path="url(#clip0_153_2643)">
<path d="M6.37205 7.22508L6.37219 7.22581C6.54558 8.14129 6.33089 8.98761 5.9295 9.59419C5.51993 10.2131 4.97193 10.5139 4.49914 10.5139C3.36607 10.5139 1.96484 9.30039 1.96484 7.61988C1.96484 6.70027 2.19756 5.76388 2.58138 5.08206C2.97461 4.38353 3.42543 4.10449 3.82566 4.10449C4.32916 4.10449 4.86243 4.37663 5.34481 4.94659C5.82533 5.51435 6.20216 6.32316 6.37205 7.22508Z" stroke="#0F172A" stroke-width="1.5"/>
<path d="M11.1988 1.71289L11.199 1.71296C11.6912 1.85744 12.1417 2.2774 12.4643 2.96987C12.7851 3.65839 12.9423 4.54822 12.8782 5.46635C12.8121 6.39815 12.3905 7.1465 11.8568 7.61077C11.3134 8.08339 10.7171 8.21855 10.2618 8.08541C9.73075 7.92862 9.18489 7.47284 8.82501 6.80532C8.47018 6.14719 8.33083 5.34387 8.53872 4.55534L8.53885 4.55483C8.77144 3.67008 9.23143 2.83758 9.76948 2.2937C10.3181 1.7391 10.8139 1.59978 11.1988 1.71289Z" stroke="#0F172A" stroke-width="1.5"/>
<path d="M19.0424 9.28567L19.0424 9.28561C19.4529 8.4783 19.6529 7.59832 19.6248 6.82787C19.5964 6.05332 19.3443 5.46182 18.9367 5.10747L18.935 5.10601C18.6165 4.82747 18.1117 4.75048 17.4129 5.01568C16.7207 5.27842 15.9852 5.83619 15.434 6.54055L15.4338 6.54085C14.9473 7.16199 14.7624 7.95179 14.8342 8.7128C14.907 9.48325 15.2347 10.1476 15.6728 10.5293L19.0424 9.28567ZM19.0424 9.28567C18.177 10.9879 16.4133 11.1743 15.6728 10.5294L19.0424 9.28567Z" stroke="#0F172A" stroke-width="1.5"/>
<path d="M19.7826 12.4586L19.782 12.4589C19.1901 12.7634 18.7701 13.3181 18.5632 13.9605C18.3539 14.6106 18.3862 15.2781 18.6096 15.7604L18.6097 15.7606C18.9923 16.5871 20.4768 17.0871 21.7333 16.0772L19.7826 12.4586ZM19.7826 12.4586C20.4711 12.1035 21.2585 11.9384 21.9071 11.9944M19.7826 12.4586L21.9071 11.9944M21.9071 11.9944C22.5577 12.0505 22.9389 12.3054 23.1012 12.6554M21.9071 11.9944L23.1012 12.6554M23.1012 12.6554C23.3081 13.1035 23.3048 13.6799 23.0593 14.3151C22.8144 14.9486 22.3469 15.583 21.7337 16.0769L23.1012 12.6554Z" stroke="#0F172A" stroke-width="1.5"/>
<path d="M3.56641 16.5965C3.56641 15.0724 4.54577 13.5874 6.08765 12.4775C7.62253 11.3726 9.5793 10.7449 11.2704 10.8554C13.5195 11.0051 15.7579 13.0461 16.3925 16.5947C16.7 18.3206 16.5181 19.7889 15.7331 20.8043C14.9632 21.8001 13.4582 22.5562 10.6575 22.5142C8.9379 22.4862 7.1405 21.8098 5.78049 20.7136C4.42066 19.6175 3.56641 18.1631 3.56641 16.5965Z" stroke="#0F172A" stroke-width="1.5"/>
</g>
<defs>
<clipPath id="clip0_153_2643">
<rect width="24" height="24" fill="white"/>
</clipPath>
</defs>
</svg>
