<svg width="21" height="21" viewBox="0 0 21 21" fill="none" xmlns="http://www.w3.org/2000/svg">
<g clip-path="url(#clip0_333_88)">
<path d="M10.4999 4.47296C7.05869 4.47296 4.25732 7.14093 4.25732 10.4183C4.25732 13.6956 7.05869 16.3636 10.4999 16.3636C13.9411 16.3636 16.7425 13.6956 16.7425 10.4183C16.7425 7.13702 13.9411 4.47296 10.4999 4.47296ZM10.4999 14.7659C7.98154 14.7659 5.93076 12.8128 5.93076 10.4144C5.93076 8.01593 7.98154 6.06281 10.4999 6.06281C13.0183 6.06281 15.069 8.01593 15.069 10.4144C15.069 12.8128 13.0183 14.7659 10.4999 14.7659Z" fill="white"/>
<path d="M10.5 3.27374C10.9635 3.27374 11.3368 2.91827 11.3368 2.47687V1.57843C11.3368 1.13702 10.9635 0.781555 10.5 0.781555C10.0366 0.781555 9.66333 1.13702 9.66333 1.57843V2.47687C9.66333 2.91827 10.0366 3.27374 10.5 3.27374Z" fill="white"/>
<path d="M10.5 17.43C10.0366 17.43 9.66333 17.7855 9.66333 18.2269V19.1214C9.66333 19.5628 10.0366 19.9183 10.5 19.9183C10.9635 19.9183 11.3368 19.5628 11.3368 19.1214V18.2269C11.3368 17.7894 10.9635 17.43 10.5 17.43Z" fill="white"/>
<path d="M19.7122 9.55499H18.7688C18.3054 9.55499 17.9321 9.91046 17.9321 10.3519C17.9321 10.7933 18.3054 11.1487 18.7688 11.1487H19.7122C20.1757 11.1487 20.5489 10.7933 20.5489 10.3519C20.5489 9.91046 20.1757 9.55499 19.7122 9.55499Z" fill="white"/>
<path d="M2.23125 9.55499H1.28789C0.824414 9.55499 0.451172 9.91046 0.451172 10.3519C0.451172 10.7933 0.824414 11.1487 1.28789 11.1487H2.22715C2.69062 11.1487 3.06387 10.7933 3.06387 10.3519C3.06797 9.91046 2.69062 9.55499 2.23125 9.55499Z" fill="white"/>
<path d="M16.4227 3.58624L15.7542 4.21906C15.426 4.53156 15.426 5.03546 15.7542 5.34796C16.0823 5.66046 16.6114 5.66046 16.9395 5.34796L17.604 4.71515C17.9321 4.40265 17.9321 3.89874 17.604 3.58624C17.2758 3.27374 16.7467 3.27374 16.4227 3.58624Z" fill="white"/>
<path d="M4.06045 15.3558L3.396 15.9886C3.06787 16.3011 3.06787 16.805 3.396 17.1175C3.72412 17.43 4.25322 17.43 4.58135 17.1175L5.2458 16.4847C5.57393 16.1722 5.57393 15.6683 5.2458 15.3558C4.91768 15.0433 4.38857 15.0472 4.06045 15.3558Z" fill="white"/>
<path d="M16.9395 15.3558C16.6114 15.0433 16.0823 15.0433 15.7542 15.3558C15.426 15.6683 15.426 16.1722 15.7542 16.4847L16.4186 17.1175C16.7467 17.43 17.2758 17.43 17.604 17.1175C17.9321 16.805 17.9321 16.3011 17.604 15.9886L16.9395 15.3558Z" fill="white"/>
<path d="M4.06045 5.34796C4.38857 5.66046 4.91768 5.66046 5.2458 5.34796C5.57393 5.03546 5.57393 4.53156 5.2458 4.21906L4.58135 3.58624C4.25322 3.27374 3.72412 3.27374 3.396 3.58624C3.06787 3.89874 3.06787 4.40265 3.396 4.71515L4.06045 5.34796Z" fill="white"/>
</g>
<defs>
<clipPath id="clip0_333_88">
<rect width="21" height="20" fill="white" transform="translate(0 0.351868)"/>
</clipPath>
</defs>
</svg>
