<svg width="186" height="167" viewBox="0 0 186 167" fill="none" xmlns="http://www.w3.org/2000/svg">
<path fill-rule="evenodd" clip-rule="evenodd" d="M143.267 85.1625C144.116 85.9211 144.19 87.2246 143.431 88.0739L139.044 92.9859C138.285 93.8353 136.982 93.9089 136.133 93.1503C135.283 92.3917 135.21 91.0882 135.968 90.2388L140.355 85.3268C141.114 84.4775 142.417 84.4039 143.267 85.1625Z" fill="white"/>
<path fill-rule="evenodd" clip-rule="evenodd" d="M104.865 80.8747C105.699 80.0828 107.005 80.1032 107.782 80.9203L112.171 85.5338C112.949 86.3508 112.903 87.6552 112.07 88.4471C111.236 89.2389 109.93 89.2185 109.153 88.4015L104.764 83.788C103.986 82.9709 104.032 81.6666 104.865 80.8747Z" fill="white"/>
<path fill-rule="evenodd" clip-rule="evenodd" d="M85.6931 79.7915C86.8068 79.5537 87.9024 80.2638 88.1402 81.3775C88.2136 81.7215 88.5106 82.5817 89.0543 83.8972C89.5741 85.1549 90.2613 86.6922 91.0318 88.3127C92.5837 91.5762 94.4187 95.0607 95.8523 97.2359C95.8901 97.2932 95.9249 97.3523 95.9568 97.413C96.0976 97.6817 96.3738 98.1323 96.7393 98.7286C98.1685 101.061 100.963 105.621 102.371 110.237C103.274 113.201 103.736 116.518 102.841 119.63C101.913 122.852 99.6147 125.561 95.6107 127.349C95.5393 127.381 95.4662 127.409 95.3918 127.432C92.4253 128.371 88.8021 129.093 85.1647 129.116C81.543 129.138 77.7406 128.466 74.5801 126.445C73.6207 125.831 73.3404 124.556 73.9539 123.597C74.5675 122.637 75.8426 122.357 76.802 122.971C79.0587 124.414 81.9826 125.011 85.1394 124.992C88.2359 124.973 91.3969 124.36 94.0338 123.536C96.9938 122.186 98.3327 120.382 98.8775 118.489C99.4606 116.464 99.2182 114.038 98.426 111.44C97.206 107.438 94.9831 103.793 93.488 101.342C93.022 100.578 92.6266 99.9294 92.3545 99.4225C90.7725 97.0051 88.8664 93.3621 87.3075 90.0837C86.5137 88.4144 85.796 86.8104 85.243 85.4724C84.7139 84.1922 84.2701 83.0022 84.1071 82.2386C83.8693 81.1248 84.5794 80.0293 85.6931 79.7915Z" fill="white"/>
<path d="M73.7527 77.0139C63.6897 90.4444 61.0062 134.128 68.5976 164.649C-19.0794 92.0112 -32.3804 10.149 99.5276 2.2666C31.9178 33.1643 22.9377 65.4434 42.8227 115.676C37.0309 70.0673 60.0577 30.1937 104.683 35.774C111.041 20.1392 115.691 12.3944 127.88 2.2666C131.584 8.69071 133.34 12.5886 135.613 20.3091C147.758 25.1324 153.951 29.1144 163.965 38.3515C171.241 34.7862 175.795 33.7321 184.585 33.1965C182.071 47.8814 177.847 55.7464 166.543 69.2815C178.354 98.6955 159.552 134.716 125.303 138.874C108.318 139.353 110.308 116.212 125.303 115.676C142.979 115.039 149.744 85.908 138.19 84.7464C121.664 84.1239 123.949 83.7402 112.415 71.859C96.6685 60.4399 81.6091 64.8942 73.7527 77.0139Z" fill="white"/>
<path d="M68.5976 164.649L68.3425 164.957C68.4755 165.067 68.6643 165.079 68.8106 164.987C68.9568 164.895 69.0275 164.72 68.9858 164.552L68.5976 164.649ZM73.7527 77.0139L74.0728 77.2538C74.0782 77.2466 74.0834 77.2391 74.0883 77.2315L73.7527 77.0139ZM112.415 71.859L112.702 71.5803C112.686 71.5638 112.669 71.5487 112.65 71.5351L112.415 71.859ZM138.19 84.7464L138.23 84.3484C138.222 84.3476 138.213 84.347 138.205 84.3467L138.19 84.7464ZM125.303 115.676L125.317 116.076H125.317L125.303 115.676ZM125.303 138.874L125.314 139.274C125.326 139.273 125.339 139.272 125.351 139.271L125.303 138.874ZM166.543 69.2815L166.236 69.0251C166.141 69.1381 166.116 69.2939 166.171 69.4305L166.543 69.2815ZM184.585 33.1965L184.979 33.264C185 33.1436 184.964 33.0204 184.883 32.9295C184.801 32.8385 184.683 32.7899 184.561 32.7973L184.585 33.1965ZM163.965 38.3515L163.694 38.6455C163.815 38.7575 163.993 38.7834 164.141 38.7107L163.965 38.3515ZM135.613 20.3091L135.229 20.422C135.264 20.54 135.351 20.6354 135.465 20.6808L135.613 20.3091ZM127.88 2.2666L128.227 2.06682C128.168 1.96465 128.067 1.89367 127.951 1.87287C127.835 1.85207 127.715 1.88357 127.625 1.95894L127.88 2.2666ZM104.683 35.774L104.633 36.1709C104.813 36.1934 104.985 36.0924 105.053 35.9247L104.683 35.774ZM42.8227 115.676L42.4507 115.824C42.5249 116.011 42.727 116.114 42.9223 116.064C43.1175 116.014 43.2449 115.826 43.2195 115.626L42.8227 115.676ZM99.5276 2.2666L99.6938 2.63041C99.869 2.55035 99.9623 2.3568 99.9157 2.1699C99.8692 1.983 99.696 1.85582 99.5037 1.86731L99.5276 2.2666ZM68.9858 164.552C65.2018 149.339 63.9761 130.829 64.9541 114.446C65.443 106.256 66.482 98.6068 68.0234 92.1741C69.5669 85.7322 71.6057 80.5465 74.0728 77.2538L73.4326 76.7741C70.8682 80.1967 68.798 85.5078 67.2454 91.9877C65.6906 98.4767 64.6464 106.174 64.1555 114.399C63.1738 130.845 64.4021 149.438 68.2095 164.745L68.9858 164.552ZM74.0883 77.2315C77.965 71.2511 83.6041 67.1822 90.1955 66.0032C96.7845 64.8246 104.378 66.5246 112.18 72.1828L112.65 71.5351C104.706 65.7743 96.8961 63.9919 90.0546 65.2157C83.2156 66.439 77.3967 70.6571 73.4171 76.7964L74.0883 77.2315ZM112.128 72.1376C113.567 73.62 114.791 74.9233 115.864 76.0715C116.936 77.2185 117.861 78.2143 118.697 79.0761C120.369 80.798 121.714 82.014 123.234 82.873C126.274 84.5903 129.948 84.8362 138.175 85.1461L138.205 84.3467C129.906 84.0341 126.46 83.7769 123.627 82.1764C122.212 81.3765 120.932 80.2299 119.271 78.5189C118.442 77.6641 117.524 76.6758 116.449 75.5253C115.374 74.376 114.147 73.0683 112.702 71.5803L112.128 72.1376ZM138.15 85.1444C140.819 85.4128 142.46 87.2795 143.148 90.0752C143.839 92.8856 143.54 96.5768 142.327 100.284C139.896 107.714 133.886 114.967 125.288 115.277L125.317 116.076C134.395 115.749 140.606 108.117 143.088 100.533C144.331 96.7319 144.662 92.8825 143.925 89.8842C143.184 86.8712 141.338 84.6609 138.23 84.3484L138.15 85.1444ZM125.288 115.277C117.546 115.553 113.167 121.677 112.911 127.639C112.783 130.623 113.684 133.598 115.736 135.8C117.794 138.007 120.972 139.396 125.314 139.274L125.291 138.474C121.141 138.591 118.198 137.267 116.321 135.254C114.438 133.234 113.59 130.48 113.71 127.673C113.952 122.05 118.065 116.335 125.317 116.076L125.288 115.277ZM125.351 139.271C159.876 135.079 178.818 98.7764 166.914 69.1324L166.171 69.4305C177.891 98.6147 159.228 134.352 125.254 138.477L125.351 139.271ZM166.85 69.5379C172.509 62.7622 176.413 57.3849 179.217 51.851C182.023 46.3121 183.718 40.6339 184.979 33.264L184.191 33.129C182.938 40.444 181.264 46.0408 178.503 51.4894C175.74 56.943 171.881 62.2657 166.236 69.0251L166.85 69.5379ZM184.561 32.7973C175.727 33.3354 171.12 34.4 163.789 37.9923L164.141 38.7107C171.362 35.1724 175.862 34.1287 184.609 33.5958L184.561 32.7973ZM164.236 38.0575C154.188 28.7894 147.954 24.78 135.76 19.9373L135.465 20.6808C147.562 25.4849 153.713 29.4394 163.694 38.6455L164.236 38.0575ZM135.996 20.1961C133.714 12.4436 131.945 8.51661 128.227 2.06682L127.534 2.46638C131.222 8.86481 132.966 12.7337 135.229 20.422L135.996 20.1961ZM127.625 1.95894C121.509 7.04028 117.27 11.5357 113.763 16.7314C110.258 21.9228 107.494 27.7985 104.312 35.6234L105.053 35.9247C108.229 28.1147 110.969 22.3006 114.426 17.179C117.881 12.0616 122.062 7.62073 128.136 2.57426L127.625 1.95894ZM104.732 35.3771C82.2741 32.5687 65.2165 41.2052 54.52 56.2979C43.8372 71.3714 39.5208 92.8498 42.4259 115.727L43.2195 115.626C40.3328 92.8938 44.6339 71.6309 55.1727 56.7605C65.698 41.9092 82.4663 33.399 104.633 36.1709L104.732 35.3771ZM43.1946 115.529C33.266 90.4478 30.5855 69.948 38.7293 51.8852C46.8789 33.8094 65.9147 18.0675 99.6938 2.63041L99.3613 1.90279C65.5307 17.3634 46.2716 33.2099 38 51.5563C29.7225 69.9157 32.4944 90.672 42.4507 115.824L43.1946 115.529ZM99.5037 1.86731C66.4934 3.8399 42.5171 10.4426 26.5051 20.41C10.4768 30.3875 2.43133 43.7383 1.31926 59.1457C0.208902 74.5294 6.01452 91.9048 17.5551 109.956C29.0987 128.013 46.4008 146.779 68.3425 164.957L68.8528 164.341C46.9559 146.2 29.7165 127.494 18.2291 109.526C6.73876 91.5525 1.02393 74.3501 2.11719 59.2033C3.20874 44.0801 11.091 30.9475 26.9279 21.0891C42.7813 11.2205 66.6078 4.63449 99.5514 2.66589L99.5037 1.86731Z" fill="white"/>
<path fill-rule="evenodd" clip-rule="evenodd" d="M127.966 33.2877C126.719 32.5774 124.86 32.3849 121.578 32.756C120.729 32.852 119.963 32.2418 119.867 31.3931C119.771 30.5444 120.382 29.7786 121.23 29.6826C124.585 29.3032 127.325 29.3635 129.497 30.6C131.724 31.8684 132.998 34.1604 133.988 37.2826C134.247 38.0967 133.796 38.966 132.982 39.2242C132.168 39.4824 131.298 39.0316 131.04 38.2175C130.12 35.3146 129.157 33.966 127.966 33.2877Z" fill="#0F172A"/>
<path fill-rule="evenodd" clip-rule="evenodd" d="M154.141 49.3062C152.894 48.596 151.034 48.4034 147.753 48.7745C146.904 48.8705 146.138 48.2603 146.042 47.4116C145.946 46.5629 146.556 45.7971 147.405 45.7011C150.76 45.3218 153.5 45.3821 155.671 46.6185C157.899 47.8869 159.173 50.179 160.163 53.3011C160.421 54.1153 159.971 54.9846 159.157 55.2427C158.342 55.5009 157.473 55.0502 157.215 54.236C156.294 51.3331 155.332 49.9846 154.141 49.3062Z" fill="#0F172A"/>
<path d="M134.834 55.8383L129.007 51.4577L129.73 56.5617L134.834 55.8383Z" fill="#0F172A"/>
<path fill-rule="evenodd" clip-rule="evenodd" d="M128.483 50.5701C128.842 50.3581 129.294 50.3832 129.627 50.6337L135.454 55.0144C135.788 55.265 135.937 55.6917 135.833 56.0955C135.729 56.4993 135.392 56.8008 134.979 56.8593L130.298 57.5227L128.365 60.095C128.022 60.5502 127.376 60.6418 126.921 60.2996C126.466 59.9575 126.374 59.3111 126.716 58.856L128.65 56.2837L127.987 51.6025C127.928 51.1896 128.124 50.7822 128.483 50.5701ZM130.607 55.3964L132.226 55.167L130.378 53.7776L130.607 55.3964Z" fill="#0F172A"/>
</svg>
