<svg width="44" height="46" viewBox="0 0 44 46" fill="none" xmlns="http://www.w3.org/2000/svg">
<path fill-rule="evenodd" clip-rule="evenodd" d="M33.517 24.6236C33.7119 24.7977 33.7288 25.0968 33.5547 25.2918L32.5479 26.4191C32.3738 26.6141 32.0746 26.6309 31.8797 26.4568C31.6847 26.2827 31.6678 25.9836 31.8419 25.7886L32.8488 24.6613C33.0229 24.4664 33.322 24.4495 33.517 24.6236Z" fill="white"/>
<path fill-rule="evenodd" clip-rule="evenodd" d="M24.7036 23.6396C24.8949 23.4579 25.1946 23.4626 25.373 23.6501L26.3804 24.7089C26.5588 24.8964 26.5484 25.1958 26.3571 25.3775C26.1658 25.5593 25.866 25.5546 25.6876 25.3671L24.6802 24.3082C24.5018 24.1207 24.5123 23.8214 24.7036 23.6396Z" fill="white"/>
<path fill-rule="evenodd" clip-rule="evenodd" d="M20.3035 23.391C20.5592 23.3364 20.8106 23.4994 20.8652 23.755C20.882 23.8339 20.9502 24.0313 21.075 24.3333C21.1943 24.6219 21.352 24.9747 21.5288 25.3466C21.885 26.0956 22.3061 26.8954 22.6352 27.3946C22.6438 27.4077 22.6518 27.4213 22.6591 27.4352C22.6915 27.4969 22.7549 27.6003 22.8387 27.7372C23.1668 28.2724 23.8082 29.3191 24.1312 30.3785C24.3386 31.0587 24.4446 31.8199 24.239 32.5342C24.0261 33.2738 23.4987 33.8953 22.5797 34.3058C22.5633 34.3132 22.5466 34.3195 22.5295 34.3249C21.8486 34.5404 21.0171 34.7062 20.1823 34.7113C19.3511 34.7164 18.4784 34.5622 17.753 34.0983C17.5328 33.9575 17.4685 33.6648 17.6093 33.4446C17.7501 33.2245 18.0428 33.1601 18.263 33.3009C18.7809 33.6321 19.4519 33.7693 20.1765 33.7648C20.8871 33.7605 21.6126 33.6198 22.2178 33.4308C22.8972 33.1209 23.2044 32.7067 23.3295 32.2724C23.4633 31.8075 23.4077 31.2509 23.2259 30.6545C22.9458 29.7361 22.4357 28.8996 22.0925 28.3369C21.9856 28.1615 21.8948 28.0128 21.8324 27.8964C21.4693 27.3416 21.0318 26.5055 20.6741 25.7531C20.4919 25.37 20.3272 25.0019 20.2002 24.6948C20.0788 24.401 19.977 24.1278 19.9395 23.9526C19.885 23.697 20.0479 23.4455 20.3035 23.391Z" fill="white"/>
<path d="M17.5631 22.7535C15.2536 25.8359 14.6377 35.8616 16.38 42.8664C-3.74265 26.1954 -6.79532 7.4074 23.4786 5.59833C7.96164 12.6896 5.90064 20.0979 10.4644 31.6268C9.13513 21.1591 14.42 12.0078 24.6618 13.2886C26.121 9.70022 27.1882 7.92274 29.9858 5.59833C30.8357 7.07271 31.2389 7.96732 31.7604 9.73922C34.5479 10.8462 35.9692 11.7601 38.2675 13.8801C39.9374 13.0618 40.9826 12.8199 43 12.697C42.423 16.0673 41.4535 17.8724 38.8591 20.9788C41.57 27.7296 37.2548 35.9965 29.3942 36.9508C25.4961 37.0608 25.9529 31.7497 29.3942 31.6268C33.451 31.4806 35.0037 24.7947 32.352 24.5281C28.5592 24.3852 29.0836 24.2972 26.4364 21.5703C22.8225 18.9496 19.3662 19.9719 17.5631 22.7535Z" fill="white"/>
<path d="M16.38 42.8664L16.1248 43.1744C16.2578 43.2846 16.4466 43.297 16.5929 43.205C16.7392 43.113 16.8098 42.9375 16.7681 42.7698L16.38 42.8664ZM17.5631 22.7535L17.8832 22.9933C17.8886 22.9861 17.8938 22.9786 17.8987 22.971L17.5631 22.7535ZM26.4364 21.5703L26.7234 21.2917C26.7074 21.2752 26.6899 21.2601 26.6713 21.2465L26.4364 21.5703ZM32.352 24.5281L32.392 24.1301C32.3837 24.1293 32.3754 24.1287 32.367 24.1284L32.352 24.5281ZM29.3942 31.6268L29.4085 32.0265L29.4086 32.0265L29.3942 31.6268ZM29.3942 36.9508L29.4055 37.3506C29.4178 37.3503 29.4302 37.3494 29.4424 37.3479L29.3942 36.9508ZM38.8591 20.9788L38.5521 20.7224C38.4577 20.8354 38.433 20.9912 38.4879 21.1278L38.8591 20.9788ZM43 12.697L43.3943 12.7645C43.4149 12.6441 43.3793 12.5209 43.2978 12.4299C43.2162 12.339 43.0976 12.2903 42.9757 12.2977L43 12.697ZM38.2675 13.8801L37.9963 14.1741C38.1177 14.2861 38.2953 14.3119 38.4436 14.2393L38.2675 13.8801ZM31.7604 9.73922L31.3767 9.85217C31.4114 9.97014 31.4985 10.0656 31.6128 10.111L31.7604 9.73922ZM29.9858 5.59833L30.3323 5.39855C30.2734 5.29637 30.1724 5.2254 30.0563 5.2046C29.9402 5.1838 29.8209 5.21529 29.7302 5.29067L29.9858 5.59833ZM24.6618 13.2886L24.6121 13.6855C24.7918 13.7079 24.9641 13.6069 25.0323 13.4392L24.6618 13.2886ZM10.4644 31.6268L10.0925 31.774C10.1667 31.9615 10.3687 32.0644 10.564 32.0142C10.7592 31.964 10.8866 31.7764 10.8612 31.5764L10.4644 31.6268ZM23.4786 5.59833L23.6449 5.96214C23.8201 5.88208 23.9133 5.68853 23.8668 5.50163C23.8202 5.31472 23.647 5.18755 23.4548 5.19904L23.4786 5.59833ZM16.7681 42.7698C15.9087 39.3145 15.6284 35.0986 15.8514 31.3629C15.9628 29.4964 16.1993 27.7593 16.5479 26.3046C16.8986 24.8408 17.3545 23.6989 17.8832 22.9933L17.243 22.5136C16.6169 23.3492 16.1297 24.6164 15.7699 26.1182C15.4079 27.6292 15.1663 29.4143 15.0528 31.3152C14.826 35.1141 15.1089 39.4134 15.9918 42.9629L16.7681 42.7698ZM17.8987 22.971C18.7488 21.6597 19.9737 20.7833 21.3911 20.5298C22.8061 20.2767 24.4655 20.6351 26.2016 21.8942L26.6713 21.2465C24.7934 19.8848 22.9177 19.444 21.2502 19.7423C19.5852 20.0401 18.1805 21.0656 17.2274 22.5359L17.8987 22.971ZM26.1494 21.849C26.4776 22.1871 26.7569 22.4845 27.0028 22.7476C27.2476 23.0095 27.4626 23.2409 27.6571 23.4414C28.0448 23.8408 28.3787 24.1466 28.7678 24.3665C29.5451 24.8056 30.4769 24.8578 32.3369 24.9278L32.367 24.1284C30.4343 24.0556 29.7319 23.9923 29.1614 23.67C28.8766 23.5091 28.6082 23.2727 28.2312 22.8842C28.0434 22.6907 27.8354 22.4668 27.5873 22.2014C27.3404 21.9372 27.057 21.6353 26.7234 21.2917L26.1494 21.849ZM32.312 24.9261C32.7557 24.9707 33.0534 25.2668 33.1906 25.8247C33.3314 26.3973 33.2752 27.1835 33.0086 27.9982C32.47 29.6442 31.1681 31.1626 29.3798 31.2271L29.4086 32.0265C31.6771 31.9448 33.1799 30.0472 33.769 28.247C34.0662 27.3387 34.1545 26.3942 33.9674 25.6337C33.7768 24.8585 33.2741 24.2188 32.392 24.1301L32.312 24.9261ZM29.3799 31.2271C27.4138 31.2973 26.3067 32.86 26.2423 34.359C26.2099 35.1124 26.4369 35.8801 26.9732 36.4554C27.5154 37.0369 28.3354 37.3808 29.4055 37.3506L29.3829 36.551C28.504 36.5758 27.9194 36.2971 27.5583 35.9099C27.1915 35.5164 27.0168 34.9693 27.0416 34.3933C27.0914 33.2335 27.9332 32.0792 29.4085 32.0265L29.3799 31.2271ZM29.4424 37.3479C37.5788 36.3601 42.0335 27.8104 39.2303 20.8297L38.4879 21.1278C41.1064 27.6487 36.9308 35.6329 29.346 36.5537L29.4424 37.3479ZM39.1661 21.2352C40.4702 19.6738 41.3838 18.4187 42.0429 17.1176C42.7046 15.8117 43.1011 14.4771 43.3943 12.7645L42.6057 12.6295C42.3219 14.2872 41.9452 15.5403 41.3293 16.7561C40.7109 17.9767 39.8425 19.1774 38.5521 20.7224L39.1661 21.2352ZM42.9757 12.2977C40.9148 12.4233 39.8165 12.6756 38.0915 13.5209L38.4436 14.2393C40.0583 13.448 41.0503 13.2165 43.0243 13.0963L42.9757 12.2977ZM38.5387 13.5861C36.2067 11.4351 34.7441 10.4938 31.9081 9.36746L31.6128 10.111C34.3517 11.1987 35.7316 12.0852 37.9963 14.1741L38.5387 13.5861ZM32.1442 9.62627C31.6132 7.82224 31.1971 6.89861 30.3323 5.39855L29.6392 5.7981C30.4744 7.24681 30.8646 8.1124 31.3767 9.85217L32.1442 9.62627ZM29.7302 5.29067C28.3104 6.47031 27.3157 7.52307 26.4903 8.74567C25.6678 9.96407 25.0239 11.3363 24.2912 13.1379L25.0323 13.4392C25.7589 11.6525 26.3781 10.3418 27.1534 9.19327C27.9259 8.04894 28.8636 7.05076 30.2414 5.90599L29.7302 5.29067ZM24.7114 12.8916C19.4448 12.2331 15.4184 14.2638 12.8976 17.8207C10.3903 21.3585 9.39376 26.371 10.0676 31.6772L10.8612 31.5764C10.2058 26.415 11.187 21.618 13.5503 18.2833C15.9 14.9679 19.6369 13.0633 24.6121 13.6855L24.7114 12.8916ZM10.8363 31.4796C8.56833 25.7502 7.98833 21.1442 9.80588 17.1129C11.6293 13.0686 15.9121 9.496 23.6449 5.96214L23.3124 5.23452C15.5281 8.79192 11.022 12.4691 9.07658 16.7841C7.12532 21.1119 7.7967 25.9745 10.0925 31.774L10.8363 31.4796ZM23.4548 5.19904C15.8529 5.6533 10.2925 7.17511 6.55651 9.50073C2.80414 11.8366 0.894755 14.9847 0.631623 18.6304C0.370198 22.2523 1.73761 26.3068 4.40561 30.48C7.07666 34.6581 11.0718 38.9881 16.1248 43.1744L16.6351 42.5583C11.6268 38.4091 7.6944 34.1391 5.07964 30.0491C2.46185 25.9544 1.18522 22.073 1.42955 18.688C1.67217 15.3266 3.41832 12.3966 6.97929 10.1799C10.5567 7.95299 15.9674 6.44789 23.5025 5.99762L23.4548 5.19904Z" fill="white"/>
<path fill-rule="evenodd" clip-rule="evenodd" d="M30.0055 12.718C29.7193 12.555 29.2926 12.5108 28.5394 12.596C28.3446 12.618 28.1689 12.478 28.1468 12.2832C28.1248 12.0884 28.2649 11.9126 28.4596 11.8906C29.2295 11.8036 29.8585 11.8174 30.3568 12.1012C30.868 12.3923 31.1605 12.9183 31.3877 13.6349C31.447 13.8217 31.3435 14.0212 31.1567 14.0805C30.9698 14.1397 30.7703 14.0363 30.7111 13.8495C30.4998 13.1832 30.2789 12.8737 30.0055 12.718Z" fill="#0F172A"/>
<path fill-rule="evenodd" clip-rule="evenodd" d="M36.013 16.3942C35.7267 16.2312 35.3 16.187 34.5469 16.2722C34.3521 16.2942 34.1763 16.1542 34.1543 15.9594C34.1323 15.7646 34.2723 15.5889 34.4671 15.5668C35.237 15.4798 35.866 15.4936 36.3643 15.7774C36.8754 16.0685 37.168 16.5945 37.3952 17.3111C37.4544 17.4979 37.351 17.6975 37.1641 17.7567C36.9773 17.816 36.7778 17.7125 36.7185 17.5257C36.5073 16.8594 36.2863 16.5499 36.013 16.3942Z" fill="#0F172A"/>
<path d="M31.5819 17.8936L30.2445 16.8882L30.4105 18.0597L31.5819 17.8936Z" fill="#0F172A"/>
<path fill-rule="evenodd" clip-rule="evenodd" d="M30.1242 16.6842C30.2066 16.6356 30.3102 16.6413 30.3867 16.6988L31.7241 17.7042C31.8006 17.7617 31.8349 17.8597 31.8111 17.9524C31.7872 18.045 31.7099 18.1142 31.6151 18.1277L30.5408 18.2799L30.097 18.8703C30.0184 18.9747 29.8701 18.9958 29.7656 18.9172C29.6612 18.8387 29.6402 18.6904 29.7187 18.5859L30.1625 17.9955L30.0102 16.9212C29.9968 16.8264 30.0418 16.7329 30.1242 16.6842ZM30.6116 17.7919L30.9831 17.7392L30.559 17.4204L30.6116 17.7919Z" fill="#0F172A"/>
</svg>
