<svg width="105" height="95" viewBox="0 0 105 95" fill="none" xmlns="http://www.w3.org/2000/svg">
<path fill-rule="evenodd" clip-rule="evenodd" d="M80.4637 48.4115C80.939 48.836 80.9802 49.5654 80.5557 50.0407L78.1009 52.7894C77.6764 53.2647 76.9469 53.3059 76.4717 52.8814C75.9964 52.4569 75.9552 51.7275 76.3797 51.2522L78.8345 48.5035C79.259 48.0282 79.9885 47.987 80.4637 48.4115Z" fill="#0F172A"/>
<path fill-rule="evenodd" clip-rule="evenodd" d="M58.9757 46.0122C59.4422 45.5691 60.1729 45.5805 60.6079 46.0377L63.0641 48.6194C63.4991 49.0766 63.4737 49.8064 63.0072 50.2496C62.5408 50.6927 61.81 50.6813 61.375 50.2241L58.9189 47.6425C58.4838 47.1852 58.5093 46.4554 58.9757 46.0122Z" fill="#0F172A"/>
<path fill-rule="evenodd" clip-rule="evenodd" d="M48.2478 45.4063C48.871 45.2733 49.4841 45.6707 49.6171 46.2939C49.6582 46.4863 49.8244 46.9677 50.1287 47.7038C50.4196 48.4076 50.8041 49.2679 51.2353 50.1747C52.1037 52.0009 53.1305 53.9508 53.9327 55.168C53.9539 55.2 53.9734 55.2331 53.9912 55.2671C54.07 55.4174 54.2245 55.6696 54.4291 56.0033C55.2288 57.3083 56.7928 59.8602 57.5803 62.4433C58.086 64.1017 58.3446 65.9578 57.8433 67.6992C57.3241 69.5025 56.0381 71.018 53.7975 72.0189C53.7576 72.0367 53.7167 72.0523 53.675 72.0654C52.015 72.5907 49.9876 72.9949 47.9521 73.0074C45.9255 73.0199 43.7977 72.6438 42.0292 71.5128C41.4923 71.1695 41.3354 70.456 41.6787 69.9191C42.0221 69.3822 42.7356 69.2253 43.2725 69.5687C44.5353 70.3762 46.1715 70.7106 47.938 70.6997C49.6707 70.6891 51.4395 70.3461 52.9151 69.8853C54.5715 69.1298 55.3207 68.12 55.6256 67.0609C55.9519 65.9274 55.8162 64.5703 55.3729 63.1163C54.6902 60.877 53.4463 58.8373 52.6097 57.4656C52.3489 57.0379 52.1277 56.6752 51.9754 56.3915C51.0901 55.0388 50.0235 53.0002 49.1512 51.1657C48.707 50.2316 48.3054 49.334 47.9959 48.5853C47.6999 47.8689 47.4515 47.203 47.3603 46.7757C47.2272 46.1525 47.6246 45.5394 48.2478 45.4063Z" fill="#0F172A"/>
<path d="M41.5655 43.8518C35.9344 51.3672 34.4328 75.8118 38.6808 92.8908C-10.3818 52.244 -17.8248 6.43527 55.9887 2.02441C18.1554 19.3142 13.1303 37.3771 24.2576 65.4866C21.0166 39.9646 33.902 17.6519 58.8734 20.7746C62.4311 12.0256 65.0333 7.69177 71.8543 2.02441C73.9267 5.61924 74.9096 7.80045 76.1813 12.1207C82.9776 14.8198 86.4429 17.048 92.0468 22.2169C96.1182 20.2218 98.6665 19.632 103.585 19.3323C102.179 27.5497 99.8148 31.9508 93.4891 39.5248C100.099 55.9844 89.5775 76.1408 70.412 78.4675C60.9078 78.7358 62.0213 65.7864 70.4119 65.4866C80.3032 65.1302 84.089 48.8288 77.6235 48.1787C68.3761 47.8304 69.6546 47.6157 63.2004 40.9671C54.3888 34.5772 45.9618 37.0698 41.5655 43.8518Z" fill="#0F172A"/>
<path d="M38.6808 92.8908L38.4256 93.1988C38.5587 93.309 38.7475 93.3214 38.8938 93.2294C39.04 93.1374 39.1107 92.9619 39.069 92.7942L38.6808 92.8908ZM41.5655 43.8518L41.8856 44.0916C41.891 44.0844 41.8962 44.077 41.9011 44.0694L41.5655 43.8518ZM63.2004 40.9671L63.4874 40.6885C63.4713 40.672 63.4539 40.6568 63.4352 40.6433L63.2004 40.9671ZM77.6235 48.1787L77.6635 47.7808C77.6552 47.7799 77.6469 47.7793 77.6386 47.779L77.6235 48.1787ZM70.4119 65.4866L70.4262 65.8864L70.4263 65.8864L70.4119 65.4866ZM70.412 78.4675L70.4233 78.8674C70.4356 78.867 70.4479 78.8661 70.4602 78.8646L70.412 78.4675ZM93.4891 39.5248L93.1821 39.2684C93.0877 39.3814 93.0631 39.5372 93.1179 39.6739L93.4891 39.5248ZM103.585 19.3323L103.98 19.3998C104 19.2794 103.965 19.1562 103.883 19.0652C103.802 18.9743 103.683 18.9256 103.561 18.933L103.585 19.3323ZM92.0468 22.2169L91.7756 22.511C91.8969 22.6229 92.0746 22.6488 92.2228 22.5761L92.0468 22.2169ZM76.1813 12.1207L75.7976 12.2336C75.8323 12.3516 75.9193 12.447 76.0336 12.4924L76.1813 12.1207ZM71.8543 2.02441L72.2009 1.82464C72.1419 1.72246 72.0409 1.65148 71.9249 1.63068C71.8088 1.60988 71.6894 1.64138 71.5987 1.71675L71.8543 2.02441ZM58.8734 20.7746L58.8238 21.1715C59.0034 21.194 59.1757 21.093 59.2439 20.9253L58.8734 20.7746ZM24.2576 65.4866L23.8857 65.6338C23.9599 65.8213 24.1619 65.9242 24.3572 65.874C24.5524 65.8238 24.6798 65.6362 24.6544 65.4362L24.2576 65.4866ZM55.9887 2.02441L56.155 2.38822C56.3302 2.30816 56.4234 2.11461 56.3768 1.92771C56.3303 1.74081 56.1571 1.61364 55.9648 1.62513L55.9887 2.02441ZM39.069 92.7942C36.9567 84.3018 36.2714 73.9626 36.8178 64.8088C37.0909 60.2332 37.6712 55.9635 38.5308 52.3762C39.3925 48.7798 40.5265 45.9055 41.8856 44.0916L41.2454 43.6119C39.789 45.5558 38.6236 48.5554 37.7528 52.1898C36.8798 55.8333 36.2944 60.1512 36.0192 64.7611C35.469 73.9782 36.1569 84.4007 38.2926 92.9873L39.069 92.7942ZM41.9011 44.0694C44.0478 40.7578 47.1637 38.5138 50.7976 37.8638C54.4291 37.2142 58.6306 38.1474 62.9655 41.291L63.4352 40.6433C58.9586 37.397 54.5408 36.3815 50.6568 37.0762C46.7752 37.7705 43.4795 40.1638 41.2299 43.6342L41.9011 44.0694ZM62.9134 41.2458C63.7175 42.0741 64.4014 42.8024 65.0016 43.4447C65.6008 44.0858 66.1199 44.6447 66.5894 45.1284C67.527 46.0944 68.294 46.7901 69.1677 47.2838C70.9142 48.2705 73.0211 48.4056 77.6085 48.5785L77.6386 47.779C72.9785 47.6035 71.101 47.4571 69.5612 46.5872C68.7919 46.1526 68.0904 45.5263 67.1635 44.5712C66.7007 44.0944 66.1886 43.5431 65.5861 42.8985C64.9848 42.2551 64.2968 41.5223 63.4874 40.6885L62.9134 41.2458ZM77.5835 48.5767C78.9807 48.7172 79.8538 49.6861 80.2269 51.2027C80.6035 52.734 80.4433 54.7646 79.7713 56.8184C78.4219 60.9425 75.103 64.9173 70.3975 65.0869L70.4263 65.8864C75.6121 65.6995 79.1317 61.3454 80.5316 57.0672C81.2343 54.9198 81.4265 52.7309 81.0037 51.0117C80.5772 49.2778 79.4991 47.9653 77.6635 47.7808L77.5835 48.5767ZM70.3976 65.0869C65.9569 65.2455 63.4482 68.762 63.3018 72.1729C63.2284 73.8822 63.7441 75.5955 64.9299 76.8673C66.1215 78.1455 67.9516 78.9371 70.4233 78.8674L70.4007 78.0677C68.1202 78.132 66.5255 77.4056 65.515 76.3218C64.4988 75.2318 64.0352 73.7392 64.101 72.2072C64.2329 69.1356 66.4763 66.0275 70.4262 65.8864L70.3976 65.0869ZM70.4602 78.8646C89.9015 76.5044 100.562 56.0653 93.8603 39.3758L93.1179 39.6739C99.6352 55.9035 89.2535 75.7772 70.3638 78.0704L70.4602 78.8646ZM93.7961 39.7812C96.9658 35.986 99.1608 32.965 100.739 29.8506C102.319 26.7313 103.272 23.5359 103.98 19.3998L103.191 19.2648C102.492 23.3461 101.56 26.46 100.025 29.4891C98.4879 32.5231 96.3381 35.4896 93.1821 39.2684L93.7961 39.7812ZM103.561 18.933C98.5987 19.2353 95.9973 19.8356 91.8708 21.8577L92.2228 22.5761C96.2391 20.608 98.7342 20.0286 103.61 19.7315L103.561 18.933ZM92.318 21.9229C86.6805 16.7229 83.1739 14.4673 76.3289 11.7489L76.0336 12.4924C82.7814 15.1722 86.2053 17.373 91.7756 22.511L92.318 21.9229ZM76.565 12.0077C75.2839 7.65538 74.288 5.44514 72.2009 1.82464L71.5078 2.22419C73.5654 5.79334 74.5354 7.94553 75.7976 12.2336L76.565 12.0077ZM71.5987 1.71675C68.1672 4.56786 65.7829 7.09545 63.8086 10.0201C61.8371 12.9405 60.2848 16.242 58.5029 20.6239L59.2439 20.9253C61.0198 16.5582 62.5474 13.3183 64.4716 10.4677C66.3931 7.62132 68.7204 5.14832 72.1099 2.33208L71.5987 1.71675ZM58.923 20.3777C46.2916 18.7982 36.6827 23.6587 30.6595 32.1576C24.6499 40.6372 22.2311 52.7036 23.8608 65.537L24.6544 65.4362C23.0431 52.7476 25.4465 40.8967 31.3122 32.6201C37.1643 24.3628 46.4838 19.6284 58.8238 21.1715L58.923 20.3777ZM24.6295 65.3394C19.0798 51.3197 17.5999 39.9049 22.1276 29.8625C26.6611 19.8073 37.2641 11.0214 56.155 2.38822L55.8224 1.6606C36.88 10.3173 26.0538 19.2077 21.3983 29.5337C16.7369 39.8726 18.3081 51.544 23.8857 65.6338L24.6295 65.3394ZM55.9648 1.62513C37.4781 2.72983 24.0284 6.42827 15.0335 12.0276C6.02211 17.6371 1.48406 25.156 0.857252 33.8403C0.232146 42.501 3.50086 52.2621 9.96984 62.3808C16.4419 72.5042 26.1376 83.0186 38.4256 93.1988L38.936 92.5827C26.6927 82.4396 17.0596 71.9853 10.6439 61.9499C4.2251 51.9097 1.04717 42.3216 1.65518 33.8979C2.26147 25.4978 6.6363 18.1971 15.4562 12.7067C24.2926 7.20614 37.5925 3.52442 56.0126 2.4237L55.9648 1.62513Z" fill="#0F172A"/>
<path fill-rule="evenodd" clip-rule="evenodd" d="M71.9021 19.3835C71.2042 18.9861 70.1638 18.8783 68.3274 19.086C67.8525 19.1397 67.424 18.7982 67.3703 18.3233C67.3166 17.8484 67.658 17.4199 68.133 17.3661C70.0101 17.1539 71.5436 17.1876 72.7586 17.8795C74.005 18.5893 74.7182 19.8719 75.2722 21.619C75.4167 22.0746 75.1644 22.561 74.7089 22.7055C74.2533 22.8499 73.7668 22.5977 73.6224 22.1421C73.1073 20.5177 72.5686 19.7631 71.9021 19.3835Z" fill="white"/>
<path fill-rule="evenodd" clip-rule="evenodd" d="M86.5496 28.3464C85.8517 27.949 84.8113 27.8412 82.9749 28.0489C82.5 28.1026 82.0715 27.7611 82.0177 27.2862C81.964 26.8113 82.3055 26.3827 82.7804 26.329C84.6575 26.1168 86.1911 26.1505 87.4061 26.8424C88.6524 27.5522 89.3656 28.8347 89.9196 30.5819C90.0641 31.0375 89.8119 31.5239 89.3563 31.6684C88.9007 31.8128 88.4143 31.5606 88.2698 31.105C87.7547 29.4806 87.2161 28.726 86.5496 28.3464Z" fill="white"/>
<path d="M75.7456 32.0029L72.4847 29.5515L72.8895 32.4076L75.7456 32.0029Z" fill="white"/>
<path fill-rule="evenodd" clip-rule="evenodd" d="M72.1921 29.0538C72.393 28.9352 72.6457 28.9492 72.8322 29.0894L76.0931 31.5408C76.2796 31.681 76.3633 31.9198 76.3051 32.1457C76.2469 32.3717 76.0584 32.5404 75.8273 32.5732L73.2078 32.9444L72.1258 34.3838C71.9343 34.6385 71.5726 34.6898 71.3179 34.4983C71.0632 34.3068 71.012 33.9452 71.2034 33.6905L72.2855 32.251L71.9143 29.6315C71.8815 29.4005 71.9912 29.1725 72.1921 29.0538ZM73.3805 31.7545L74.2864 31.6262L73.2522 30.8487L73.3805 31.7545Z" fill="white"/>
</svg>
