<svg width="106" height="95" viewBox="0 0 106 95" fill="none" xmlns="http://www.w3.org/2000/svg">
<path fill-rule="evenodd" clip-rule="evenodd" d="M81.0594 48.4115C81.5347 48.836 81.5759 49.5654 81.1514 50.0407L78.6966 52.7894C78.2721 53.2647 77.5427 53.3059 77.0674 52.8814C76.5921 52.4569 76.5509 51.7275 76.9754 51.2522L79.4302 48.5035C79.8547 48.0282 80.5842 47.987 81.0594 48.4115Z" fill="white"/>
<path fill-rule="evenodd" clip-rule="evenodd" d="M59.5715 46.0122C60.0379 45.5691 60.7686 45.5805 61.2036 46.0377L63.6598 48.6194C64.0948 49.0766 64.0694 49.8064 63.6029 50.2496C63.1365 50.6927 62.4057 50.6813 61.9707 50.2241L59.5146 47.6425C59.0796 47.1852 59.105 46.4554 59.5715 46.0122Z" fill="white"/>
<path fill-rule="evenodd" clip-rule="evenodd" d="M48.8435 45.4063C49.4667 45.2733 50.0798 45.6707 50.2128 46.2939C50.2539 46.4863 50.4201 46.9677 50.7244 47.7038C51.0153 48.4076 51.3998 49.2679 51.831 50.1747C52.6994 52.0009 53.7262 53.9508 54.5284 55.168C54.5496 55.2 54.5691 55.2331 54.5869 55.2671C54.6657 55.4174 54.8203 55.6696 55.0248 56.0033C55.8246 57.3083 57.3885 59.8602 58.176 62.4433C58.6817 64.1017 58.9403 65.9578 58.439 67.6992C57.9198 69.5025 56.6338 71.018 54.3932 72.0189C54.3533 72.0367 54.3124 72.0523 54.2707 72.0654C52.6107 72.5907 50.5833 72.9949 48.5478 73.0074C46.5212 73.0199 44.3934 72.6438 42.6249 71.5128C42.088 71.1695 41.9311 70.456 42.2745 69.9191C42.6178 69.3822 43.3313 69.2253 43.8682 69.5687C45.131 70.3762 46.7672 70.7106 48.5337 70.6997C50.2664 70.6891 52.0352 70.3461 53.5108 69.8853C55.1672 69.1298 55.9164 68.12 56.2213 67.0609C56.5476 65.9274 56.412 64.5703 55.9686 63.1163C55.2859 60.877 54.042 58.8373 53.2054 57.4656C52.9446 57.0379 52.7234 56.6752 52.5711 56.3915C51.6858 55.0388 50.6192 53.0002 49.7469 51.1657C49.3027 50.2316 48.9011 49.334 48.5916 48.5853C48.2956 47.8689 48.0472 47.203 47.956 46.7757C47.8229 46.1525 48.2203 45.5394 48.8435 45.4063Z" fill="white"/>
<path d="M42.1612 43.8518C36.5301 51.3672 35.0285 75.8118 39.2765 92.8908C-9.7861 52.244 -17.2291 6.43527 56.5844 2.02441C18.7511 19.3142 13.726 37.3771 24.8533 65.4866C21.6123 39.9646 34.4977 17.6519 59.4691 20.7746C63.0269 12.0256 65.629 7.69177 72.45 2.02441C74.5224 5.61924 75.5053 7.80045 76.777 12.1207C83.5733 14.8198 87.0386 17.048 92.6425 22.2169C96.7139 20.2218 99.2622 19.632 104.181 19.3323C102.774 27.5497 100.411 31.9508 94.0848 39.5248C100.694 55.9844 90.1732 76.1408 71.0077 78.4675C61.5035 78.7358 62.617 65.7864 71.0076 65.4866C80.8989 65.1302 84.6847 48.8288 78.2192 48.1787C68.9718 47.8304 70.2503 47.6157 63.7961 40.9671C54.9845 34.5772 46.5575 37.0698 42.1612 43.8518Z" fill="white"/>
<path d="M39.2765 92.8908L39.0213 93.1988C39.1544 93.309 39.3432 93.3214 39.4895 93.2294C39.6357 93.1374 39.7064 92.9619 39.6647 92.7942L39.2765 92.8908ZM42.1612 43.8518L42.4813 44.0916C42.4867 44.0844 42.4919 44.077 42.4969 44.0694L42.1612 43.8518ZM63.7961 40.9671L64.0831 40.6885C64.067 40.672 64.0496 40.6568 64.0309 40.6433L63.7961 40.9671ZM78.2192 48.1787L78.2592 47.7808C78.2509 47.7799 78.2426 47.7793 78.2343 47.779L78.2192 48.1787ZM71.0076 65.4866L71.0219 65.8864L71.022 65.8864L71.0076 65.4866ZM71.0077 78.4675L71.019 78.8674C71.0313 78.867 71.0436 78.8661 71.0559 78.8646L71.0077 78.4675ZM94.0848 39.5248L93.7778 39.2684C93.6834 39.3814 93.6588 39.5372 93.7136 39.6739L94.0848 39.5248ZM104.181 19.3323L104.575 19.3998C104.596 19.2794 104.56 19.1562 104.479 19.0652C104.397 18.9743 104.279 18.9256 104.157 18.933L104.181 19.3323ZM92.6425 22.2169L92.3713 22.511C92.4926 22.6229 92.6703 22.6488 92.8185 22.5761L92.6425 22.2169ZM76.777 12.1207L76.3933 12.2336C76.428 12.3516 76.515 12.447 76.6293 12.4924L76.777 12.1207ZM72.45 2.02441L72.7966 1.82464C72.7376 1.72246 72.6367 1.65148 72.5206 1.63068C72.4045 1.60988 72.2851 1.64138 72.1944 1.71675L72.45 2.02441ZM59.4691 20.7746L59.4195 21.1715C59.5991 21.194 59.7715 21.093 59.8396 20.9253L59.4691 20.7746ZM24.8533 65.4866L24.4814 65.6338C24.5556 65.8213 24.7576 65.9242 24.9529 65.874C25.1481 65.8238 25.2755 65.6362 25.2501 65.4362L24.8533 65.4866ZM56.5844 2.02441L56.7507 2.38822C56.9259 2.30816 57.0191 2.11461 56.9725 1.92771C56.926 1.74081 56.7528 1.61364 56.5605 1.62513L56.5844 2.02441ZM39.6647 92.7942C37.5524 84.3018 36.8671 73.9626 37.4135 64.8088C37.6866 60.2332 38.2669 55.9635 39.1265 52.3762C39.9882 48.7798 41.1222 45.9055 42.4813 44.0916L41.8411 43.6119C40.3847 45.5558 39.2193 48.5554 38.3485 52.1898C37.4755 55.8333 36.8901 60.1512 36.6149 64.7611C36.0647 73.9782 36.7526 84.4007 38.8884 92.9873L39.6647 92.7942ZM42.4969 44.0694C44.6435 40.7578 47.7594 38.5138 51.3933 37.8638C55.0248 37.2142 59.2263 38.1474 63.5612 41.291L64.0309 40.6433C59.5543 37.397 55.1365 36.3815 51.2525 37.0762C47.3709 37.7705 44.0752 40.1638 41.8256 43.6342L42.4969 44.0694ZM63.5091 41.2458C64.3132 42.0741 64.9971 42.8024 65.5973 43.4447C66.1965 44.0858 66.7156 44.6447 67.1851 45.1284C68.1227 46.0944 68.8897 46.7901 69.7634 47.2838C71.5099 48.2705 73.6168 48.4056 78.2042 48.5785L78.2343 47.779C73.5742 47.6035 71.6967 47.4571 70.1569 46.5872C69.3876 46.1526 68.6861 45.5263 67.7592 44.5712C67.2964 44.0944 66.7843 43.5431 66.1818 42.8985C65.5805 42.2551 64.8925 41.5223 64.0831 40.6885L63.5091 41.2458ZM78.1792 48.5767C79.5764 48.7172 80.4495 49.6861 80.8226 51.2027C81.1992 52.734 81.039 54.7646 80.367 56.8184C79.0176 60.9425 75.6987 64.9173 70.9932 65.0869L71.022 65.8864C76.2078 65.6995 79.7274 61.3454 81.1273 57.0672C81.83 54.9198 82.0222 52.7309 81.5994 51.0117C81.173 49.2778 80.0948 47.9653 78.2592 47.7808L78.1792 48.5767ZM70.9933 65.0869C66.5526 65.2455 64.0439 68.762 63.8975 72.1729C63.8241 73.8822 64.3398 75.5955 65.5256 76.8673C66.7172 78.1455 68.5473 78.9371 71.019 78.8674L70.9964 78.0677C68.7159 78.132 67.1212 77.4056 66.1107 76.3218C65.0945 75.2318 64.6309 73.7392 64.6967 72.2072C64.8286 69.1356 67.072 66.0275 71.0219 65.8864L70.9933 65.0869ZM71.0559 78.8646C90.4972 76.5044 101.158 56.0653 94.456 39.3758L93.7136 39.6739C100.231 55.9035 89.8492 75.7772 70.9595 78.0704L71.0559 78.8646ZM94.3918 39.7812C97.5615 35.986 99.7565 32.965 101.334 29.8506C102.915 26.7313 103.867 23.5359 104.575 19.3998L103.787 19.2648C103.088 23.3461 102.155 26.46 100.621 29.4891C99.0836 32.5231 96.9338 35.4896 93.7778 39.2684L94.3918 39.7812ZM104.157 18.933C99.1944 19.2353 96.593 19.8356 92.4665 21.8577L92.8185 22.5761C96.8348 20.608 99.3299 20.0286 104.205 19.7315L104.157 18.933ZM92.9137 21.9229C87.2762 16.7229 83.7696 14.4673 76.9246 11.7489L76.6293 12.4924C83.3771 15.1722 86.801 17.373 92.3713 22.511L92.9137 21.9229ZM77.1607 12.0077C75.8796 7.65538 74.8837 5.44514 72.7966 1.82464L72.1035 2.22419C74.1611 5.79334 75.1311 7.94553 76.3933 12.2336L77.1607 12.0077ZM72.1944 1.71675C68.7629 4.56786 66.3786 7.09545 64.4043 10.0201C62.4328 12.9405 60.8805 16.242 59.0986 20.6239L59.8396 20.9253C61.6155 16.5582 63.1431 13.3183 65.0673 10.4677C66.9888 7.62132 69.3161 5.14832 72.7056 2.33208L72.1944 1.71675ZM59.5187 20.3777C46.8873 18.7982 37.2784 23.6587 31.2552 32.1576C25.2456 40.6372 22.8268 52.7036 24.4565 65.537L25.2501 65.4362C23.6388 52.7476 26.0422 40.8967 31.9079 32.6201C37.76 24.3628 47.0795 19.6284 59.4195 21.1715L59.5187 20.3777ZM25.2252 65.3394C19.6755 51.3197 18.1956 39.9049 22.7233 29.8625C27.2568 19.8073 37.8598 11.0214 56.7507 2.38822L56.4181 1.6606C37.4757 10.3173 26.6495 19.2077 21.994 29.5337C17.3326 39.8726 18.9038 51.544 24.4814 65.6338L25.2252 65.3394ZM56.5605 1.62513C38.0738 2.72983 24.6241 6.42827 15.6292 12.0276C6.61781 17.6371 2.07977 25.156 1.45296 33.8403C0.827849 42.501 4.09657 52.2621 10.5655 62.3808C17.0376 72.5042 26.7333 83.0186 39.0213 93.1988L39.5317 92.5827C27.2884 82.4396 17.6553 71.9853 11.2396 61.9499C4.8208 51.9097 1.64288 42.3216 2.25088 33.8979C2.85718 25.4978 7.232 18.1971 16.0519 12.7067C24.8883 7.20614 38.1882 3.52442 56.6083 2.4237L56.5605 1.62513Z" fill="white"/>
<path fill-rule="evenodd" clip-rule="evenodd" d="M72.4978 19.3835C71.7999 18.9861 70.7595 18.8783 68.9231 19.086C68.4482 19.1397 68.0197 18.7982 67.966 18.3233C67.9123 17.8484 68.2537 17.4199 68.7287 17.3661C70.6058 17.1539 72.1393 17.1876 73.3543 17.8795C74.6007 18.5893 75.3139 19.8719 75.8679 21.619C76.0124 22.0746 75.7601 22.561 75.3046 22.7055C74.849 22.8499 74.3625 22.5977 74.2181 22.1421C73.703 20.5177 73.1644 19.7631 72.4978 19.3835Z" fill="#0F172A"/>
<path fill-rule="evenodd" clip-rule="evenodd" d="M87.1453 28.3464C86.4474 27.949 85.407 27.8412 83.5706 28.0489C83.0957 28.1026 82.6672 27.7611 82.6134 27.2862C82.5597 26.8113 82.9012 26.3827 83.3761 26.329C85.2532 26.1168 86.7868 26.1505 88.0018 26.8424C89.2481 27.5522 89.9613 28.8347 90.5154 30.5819C90.6598 31.0375 90.4076 31.5239 89.952 31.6684C89.4964 31.8128 89.01 31.5606 88.8655 31.105C88.3504 29.4806 87.8118 28.726 87.1453 28.3464Z" fill="#0F172A"/>
<path d="M76.3413 32.0029L73.0804 29.5515L73.4852 32.4076L76.3413 32.0029Z" fill="#0F172A"/>
<path fill-rule="evenodd" clip-rule="evenodd" d="M72.7878 29.0538C72.9887 28.9352 73.2414 28.9492 73.4279 29.0894L76.6888 31.5408C76.8753 31.681 76.959 31.9198 76.9008 32.1457C76.8426 32.3717 76.6541 32.5404 76.423 32.5732L73.8035 32.9444L72.7215 34.3838C72.53 34.6385 72.1683 34.6898 71.9136 34.4983C71.6589 34.3068 71.6077 33.9452 71.7991 33.6905L72.8812 32.251L72.51 29.6315C72.4772 29.4005 72.5869 29.1725 72.7878 29.0538ZM73.9762 31.7545L74.8821 31.6262L73.8479 30.8487L73.9762 31.7545Z" fill="#0F172A"/>
</svg>
