<svg width="25" height="25" viewBox="0 0 25 25" fill="none" xmlns="http://www.w3.org/2000/svg">
<path fill-rule="evenodd" clip-rule="evenodd" d="M18.722 12.6661C18.8259 12.7589 18.8349 12.9183 18.7421 13.0223L18.2054 13.6232C18.1126 13.7271 17.9531 13.7361 17.8492 13.6433C17.7453 13.5505 17.7363 13.391 17.8291 13.2871L18.3658 12.6862C18.4586 12.5823 18.6181 12.5733 18.722 12.6661Z" fill="black"/>
<path fill-rule="evenodd" clip-rule="evenodd" d="M14.0244 12.142C14.1264 12.0452 14.2862 12.0477 14.3813 12.1476L14.9183 12.712C15.0134 12.812 15.0078 12.9716 14.9059 13.0685C14.8039 13.1653 14.6441 13.1628 14.549 13.0629L14.012 12.4985C13.9169 12.3985 13.9225 12.2389 14.0244 12.142Z" fill="black"/>
<path fill-rule="evenodd" clip-rule="evenodd" d="M11.6792 12.0095C11.8154 11.9804 11.9495 12.0673 11.9786 12.2035C11.9876 12.2456 12.0239 12.3508 12.0904 12.5118C12.154 12.6656 12.2381 12.8537 12.3323 13.052C12.5222 13.4512 12.7467 13.8776 12.9221 14.1437C12.9267 14.1507 12.931 14.1579 12.9349 14.1653C12.9521 14.1982 12.9859 14.2533 13.0306 14.3263C13.2055 14.6116 13.5474 15.1696 13.7196 15.7343C13.8301 16.0969 13.8867 16.5027 13.7771 16.8834C13.6636 17.2777 13.3824 17.609 12.8925 17.8278C12.8838 17.8317 12.8749 17.8351 12.8658 17.838C12.5028 17.9529 12.0596 18.0412 11.6145 18.044C11.1715 18.0467 10.7063 17.9645 10.3196 17.7172C10.2022 17.6421 10.1679 17.4861 10.243 17.3688C10.318 17.2514 10.474 17.2171 10.5914 17.2921C10.8675 17.4687 11.2252 17.5418 11.6115 17.5394C11.9903 17.5371 12.377 17.4621 12.6996 17.3614C13.0618 17.1962 13.2256 16.9754 13.2922 16.7439C13.3635 16.4961 13.3339 16.1993 13.237 15.8814C13.0877 15.3919 12.8158 14.9459 12.6328 14.646C12.5758 14.5525 12.5275 14.4732 12.4942 14.4112C12.3006 14.1154 12.0674 13.6697 11.8767 13.2687C11.7796 13.0644 11.6918 12.8682 11.6241 12.7045C11.5594 12.5479 11.5051 12.4023 11.4852 12.3089C11.4561 12.1726 11.5429 12.0386 11.6792 12.0095Z" fill="black"/>
<path d="M10.2179 11.6692C8.98677 13.3124 8.65846 18.6567 9.58721 22.3908C-1.13947 13.5041 -2.76676 3.48877 13.3713 2.52441C5.09969 6.30453 4.00104 10.2537 6.43382 16.3993C5.72524 10.8194 8.54241 5.9411 14.002 6.62382C14.7798 4.711 15.3487 3.76348 16.84 2.52441C17.2931 3.31036 17.508 3.78724 17.786 4.73179C19.2719 5.32189 20.0296 5.80906 21.2548 6.93916C22.1449 6.50296 22.702 6.374 23.7775 6.30848C23.4699 8.10507 22.9531 9.06731 21.5701 10.7232C23.0152 14.3218 20.7149 18.7287 16.5247 19.2374C14.4467 19.296 14.6902 16.4649 16.5247 16.3993C18.6872 16.3214 19.5149 12.7574 18.1014 12.6153C16.0796 12.5391 16.3591 12.4922 14.948 11.0386C13.0215 9.64152 11.1791 10.1865 10.2179 11.6692Z" fill="black"/>
<path d="M9.58721 22.3908L9.33203 22.6988C9.46508 22.809 9.65388 22.8214 9.80015 22.7294C9.94642 22.6374 10.0171 22.4619 9.97539 22.2942L9.58721 22.3908ZM10.2179 11.6692L10.538 11.9091C10.5434 11.9018 10.5486 11.8944 10.5535 11.8868L10.2179 11.6692ZM14.948 11.0386L15.235 10.7599C15.2189 10.7434 15.2015 10.7283 15.1828 10.7147L14.948 11.0386ZM18.1014 12.6153L18.1414 12.2173C18.1331 12.2164 18.1248 12.2159 18.1164 12.2155L18.1014 12.6153ZM16.5247 16.3993L16.5389 16.7991L16.5391 16.7991L16.5247 16.3993ZM16.5247 19.2374L16.536 19.6372C16.5483 19.6369 16.5606 19.6359 16.5729 19.6345L16.5247 19.2374ZM21.5701 10.7232L21.2631 10.4668C21.1687 10.5798 21.144 10.7356 21.1989 10.8723L21.5701 10.7232ZM23.7775 6.30848L24.1717 6.37597C24.1923 6.25558 24.1568 6.13236 24.0753 6.04142C23.9937 5.95048 23.8751 5.90179 23.7531 5.90922L23.7775 6.30848ZM21.2548 6.93916L20.9836 7.23318C21.1049 7.3451 21.2825 7.37099 21.4308 7.29835L21.2548 6.93916ZM17.786 4.73179L17.4023 4.84473C17.437 4.96271 17.5241 5.05815 17.6384 5.10354L17.786 4.73179ZM16.84 2.52441L17.1866 2.32464C17.1277 2.22246 17.0267 2.15148 16.9106 2.13068C16.7945 2.10988 16.6751 2.14138 16.5844 2.21675L16.84 2.52441ZM14.002 6.62382L13.9523 7.02073C14.132 7.04319 14.3043 6.9422 14.3725 6.77449L14.002 6.62382ZM6.43382 16.3993L6.0619 16.5465C6.1361 16.734 6.33818 16.8369 6.53341 16.7867C6.72865 16.7365 6.85603 16.5489 6.83064 16.3489L6.43382 16.3993ZM13.3713 2.52441L13.5375 2.88822C13.7127 2.80816 13.806 2.61461 13.7594 2.42771C13.7129 2.24081 13.5397 2.11364 13.3474 2.12513L13.3713 2.52441ZM9.97539 22.2942C9.52272 20.4743 9.3739 18.2464 9.49189 16.2697C9.5508 15.2828 9.6757 14.3681 9.85835 13.6058C10.0432 12.8343 10.2789 12.2549 10.538 11.9091L9.89779 11.4294C9.54133 11.9051 9.27432 12.6099 9.08037 13.4194C8.88424 14.2379 8.75427 15.2008 8.69331 16.2221C8.57155 18.2619 8.72295 20.5732 9.19904 22.4873L9.97539 22.2942ZM10.5535 11.8868C10.9826 11.2249 11.5936 10.7925 12.2914 10.6677C12.9867 10.5434 13.8208 10.7152 14.7132 11.3624L15.1828 10.7147C14.1487 9.96486 13.0983 9.71069 12.1505 9.88022C11.2052 10.0493 10.4143 10.6308 9.88225 11.4517L10.5535 11.8868ZM14.661 11.3172C14.8347 11.4961 14.9826 11.6537 15.1135 11.7936C15.2431 11.9324 15.3594 12.0576 15.4647 12.166C15.6738 12.3815 15.8671 12.5607 16.0989 12.6917C16.5615 12.9531 17.1117 12.9783 18.0863 13.015L18.1164 12.2155C17.0692 12.1761 16.7483 12.1397 16.4924 11.9952C16.365 11.9232 16.2372 11.8134 16.0387 11.6089C15.9402 11.5073 15.831 11.3897 15.6979 11.2474C15.5661 11.1063 15.4141 10.9444 15.235 10.7599L14.661 11.3172ZM18.0613 13.0132C18.1955 13.0267 18.3064 13.1044 18.367 13.351C18.4313 13.6124 18.4088 13.9945 18.2739 14.407C17.9986 15.2484 17.3514 15.9693 16.5103 15.9996L16.5391 16.7991C17.8605 16.7514 18.7084 15.6513 19.0342 14.6558C19.1998 14.1497 19.2544 13.6093 19.1439 13.16C19.0298 12.696 18.714 12.2748 18.1414 12.2173L18.0613 13.0132ZM16.5104 15.9996C15.3478 16.0411 14.6956 16.9695 14.6579 17.8478C14.6389 18.2907 14.772 18.7515 15.0975 19.1006C15.4288 19.456 15.9209 19.6546 16.536 19.6372L16.5134 18.8375C16.0895 18.8495 15.8328 18.7162 15.6827 18.5551C15.5267 18.3878 15.4458 18.1477 15.4572 17.8821C15.4803 17.343 15.8671 16.8231 16.5389 16.7991L16.5104 15.9996ZM16.5729 19.6345C21.0389 19.0923 23.4787 14.4027 21.9413 10.5742L21.1989 10.8723C22.5516 14.2409 20.3909 18.3651 16.4765 18.8403L16.5729 19.6345ZM21.8771 10.9796C22.5755 10.1435 23.073 9.4617 23.4339 8.74938C23.7973 8.03214 24.0133 7.30169 24.1717 6.37597L23.3832 6.24098C23.2341 7.11186 23.0379 7.76082 22.7203 8.38783C22.4001 9.01975 21.9478 9.64705 21.2631 10.4668L21.8771 10.9796ZM23.7531 5.90922C22.6343 5.97738 22.024 6.11676 21.0787 6.57997L21.4308 7.29835C22.2658 6.88916 22.7698 6.77061 23.8018 6.70774L23.7531 5.90922ZM21.526 6.64513C20.2671 5.48402 19.4682 4.96944 17.9337 4.36003L17.6384 5.10354C19.0757 5.67435 19.792 6.13409 20.9836 7.23318L21.526 6.64513ZM18.1698 4.61884C17.8823 3.64217 17.6545 3.13626 17.1866 2.32464L16.4935 2.72419C16.9318 3.48446 17.1337 3.93232 17.4023 4.84473L18.1698 4.61884ZM16.5844 2.21675C15.8178 2.85372 15.2742 3.42766 14.8219 4.09766C14.3725 4.76346 14.0234 5.50929 13.6314 6.47314L14.3725 6.77449C14.7584 5.82553 15.0827 5.14119 15.485 4.54526C15.8844 3.95353 16.371 3.43417 17.0956 2.83208L16.5844 2.21675ZM14.0516 6.22691C11.1761 5.86733 8.96223 6.97932 7.57849 8.93178C6.20836 10.865 5.67353 13.5873 6.03701 16.4497L6.83064 16.3489C6.48554 13.6313 7.00499 11.1245 8.23119 9.39436C9.44379 7.68338 11.3683 6.69759 13.9523 7.02073L14.0516 6.22691ZM6.80574 16.2521C5.60324 13.2144 5.3154 10.8189 6.25306 8.7392C7.19655 6.64655 9.4275 4.76651 13.5375 2.88822L13.205 2.1606C9.04347 4.06243 6.5893 6.04702 5.52376 8.41038C4.45239 10.7867 4.83162 13.4386 6.0619 16.5465L6.80574 16.2521ZM13.3474 2.12513C9.27956 2.36821 6.28049 3.18334 4.25196 4.44609C2.207 5.71907 1.15107 7.4482 1.00601 9.45791C0.862664 11.444 1.61278 13.6457 3.04673 15.8886C4.48371 18.1363 6.62801 20.4586 9.33203 22.6988L9.8424 22.0827C7.18307 19.8796 5.10145 17.6174 3.72076 15.4577C2.33702 13.2933 1.67769 11.2646 1.80394 9.5155C1.92848 7.79001 2.82119 6.27908 4.67473 5.12526C6.5447 3.96121 9.39398 3.1628 13.3951 2.9237L13.3474 2.12513Z" fill="black"/>
<path fill-rule="evenodd" clip-rule="evenodd" d="M16.8508 6.31932C16.6983 6.23243 16.4708 6.20887 16.0693 6.25427C15.9655 6.26601 15.8718 6.19136 15.86 6.08753C15.8483 5.9837 15.923 5.89 16.0268 5.87826C16.4372 5.83185 16.7725 5.83923 17.0381 5.9905C17.3106 6.14568 17.4665 6.42609 17.5877 6.80807C17.6192 6.90768 17.5641 7.01403 17.4645 7.04561C17.3649 7.0772 17.2585 7.02206 17.2269 6.92245C17.1143 6.5673 16.9966 6.40231 16.8508 6.31932Z" fill="white"/>
<path fill-rule="evenodd" clip-rule="evenodd" d="M20.053 8.27928C19.9004 8.19239 19.6729 8.16883 19.2715 8.21423C19.1676 8.22598 19.0739 8.15132 19.0622 8.04749C19.0504 7.94366 19.1251 7.84997 19.2289 7.83822C19.6393 7.79181 19.9746 7.79919 20.2403 7.95046C20.5127 8.10564 20.6687 8.38605 20.7898 8.76803C20.8214 8.86764 20.7662 8.97399 20.6666 9.00557C20.567 9.03716 20.4607 8.98202 20.4291 8.88241C20.3165 8.52726 20.1987 8.36227 20.053 8.27928Z" fill="white"/>
<path d="M17.6912 9.07861L16.9782 8.54267L17.0667 9.1671L17.6912 9.07861Z" fill="white"/>
<path fill-rule="evenodd" clip-rule="evenodd" d="M16.9141 8.43383C16.958 8.40788 17.0133 8.41096 17.054 8.44161L17.767 8.97756C17.8078 9.00821 17.826 9.06041 17.8133 9.10982C17.8006 9.15923 17.7594 9.19611 17.7089 9.20327L17.1362 9.28443L16.8996 9.59914C16.8577 9.65482 16.7787 9.66603 16.723 9.62417C16.6673 9.58231 16.6561 9.50323 16.6979 9.44755L16.9345 9.13284L16.8534 8.56014C16.8462 8.50962 16.8702 8.45977 16.9141 8.43383ZM17.1739 9.02429L17.372 8.99622L17.1459 8.82624L17.1739 9.02429Z" fill="white"/>
</svg>
