<svg width="187" height="167" viewBox="0 0 187 167" fill="none" xmlns="http://www.w3.org/2000/svg">
<path fill-rule="evenodd" clip-rule="evenodd" d="M143.732 85.168C144.584 85.929 144.658 87.2368 143.897 88.089L139.495 93.0171C138.734 93.8693 137.427 93.9431 136.574 93.182C135.722 92.4209 135.648 91.1131 136.409 90.261L140.811 85.3329C141.572 84.4807 142.88 84.4069 143.732 85.168Z" fill="#0F172A"/>
<path fill-rule="evenodd" clip-rule="evenodd" d="M105.204 80.8671C106.04 80.0726 107.35 80.0931 108.13 80.9128L112.534 85.5415C113.314 86.3612 113.268 87.6698 112.432 88.4643C111.596 89.2588 110.286 89.2383 109.506 88.4186L105.102 83.79C104.322 82.9702 104.368 81.6616 105.204 80.8671Z" fill="#0F172A"/>
<path fill-rule="evenodd" clip-rule="evenodd" d="M85.9695 79.7793C87.0869 79.5408 88.1861 80.2532 88.4246 81.3706C88.4983 81.7157 88.7963 82.5787 89.3418 83.8985C89.8633 85.1604 90.5527 86.7027 91.3258 88.3285C92.8827 91.6028 94.7238 95.0988 96.1621 97.2811C96.2 97.3386 96.235 97.3979 96.2669 97.4588C96.4082 97.7283 96.6853 98.1804 97.052 98.7787C98.486 101.119 101.29 105.694 102.702 110.325C103.609 113.299 104.072 116.626 103.173 119.749C102.243 122.982 99.9369 125.699 95.9197 127.493C95.8481 127.525 95.7748 127.553 95.7 127.577C92.7238 128.519 89.0887 129.243 85.4394 129.266C81.8058 129.288 77.9908 128.614 74.82 126.586C73.8575 125.971 73.5762 124.691 74.1917 123.729C74.8073 122.766 76.0866 122.485 77.0491 123.1C79.3133 124.548 82.2468 125.148 85.414 125.128C88.5206 125.109 91.692 124.494 94.3376 123.668C97.3074 122.314 98.6507 120.503 99.1973 118.604C99.7823 116.572 99.5391 114.139 98.7443 111.532C97.5202 107.517 95.29 103.86 93.7901 101.401C93.3225 100.634 92.9258 99.9834 92.6528 99.4748C91.0656 97.0495 89.1533 93.3945 87.5892 90.1054C86.7928 88.4306 86.0728 86.8213 85.5179 85.4789C84.9871 84.1945 84.5418 83.0006 84.3782 82.2344C84.1397 81.1171 84.8521 80.0179 85.9695 79.7793Z" fill="#0F172A"/>
<path d="M73.99 76.9931C63.8939 90.4677 61.2016 134.295 68.818 164.916C-19.1474 92.0397 -32.4921 9.90831 99.8496 2C32.0175 32.9993 23.008 65.3845 42.9583 115.783C37.1474 70.0236 60.25 30.0189 105.022 35.6176C111.4 19.9313 116.066 12.1611 128.295 2C132.011 8.44523 133.773 12.356 136.053 20.1018C148.239 24.941 154.452 28.9361 164.499 38.2036C171.799 34.6265 176.367 33.5689 185.187 33.0316C182.664 47.7648 178.426 55.6557 167.085 69.2352C178.935 98.746 160.072 134.885 125.709 139.056C108.669 139.537 110.666 116.32 125.709 115.783C143.443 115.144 150.231 85.9164 138.639 84.751C122.059 84.1264 124.351 83.7415 112.78 71.8212C96.9811 60.3646 81.8722 64.8335 73.99 76.9931Z" fill="#0F172A"/>
<path d="M68.818 164.916L68.5628 165.224C68.6958 165.334 68.8846 165.347 69.0309 165.255C69.1772 165.163 69.2479 164.987 69.2062 164.82L68.818 164.916ZM73.99 76.9931L74.3101 77.233C74.3155 77.2257 74.3207 77.2183 74.3256 77.2107L73.99 76.9931ZM112.78 71.8212L113.067 71.5426C113.051 71.526 113.033 71.5109 113.014 71.4974L112.78 71.8212ZM138.639 84.751L138.679 84.353C138.671 84.3522 138.663 84.3516 138.654 84.3513L138.639 84.751ZM125.709 115.783L125.724 116.182H125.724L125.709 115.783ZM125.709 139.056L125.721 139.456C125.733 139.456 125.745 139.455 125.758 139.453L125.709 139.056ZM167.085 69.2352L166.778 68.9788C166.683 69.0918 166.659 69.2476 166.714 69.3843L167.085 69.2352ZM185.187 33.0316L185.581 33.0991C185.602 32.9787 185.566 32.8555 185.484 32.7646C185.403 32.6736 185.284 32.6249 185.162 32.6324L185.187 33.0316ZM164.499 38.2036L164.228 38.4976C164.349 38.6095 164.527 38.6354 164.675 38.5628L164.499 38.2036ZM136.053 20.1018L135.67 20.2147C135.704 20.3327 135.791 20.4282 135.906 20.4735L136.053 20.1018ZM128.295 2L128.642 1.80022C128.583 1.69804 128.482 1.62707 128.366 1.60627C128.25 1.58547 128.13 1.61697 128.04 1.69234L128.295 2ZM105.022 35.6176L104.972 36.0145C105.152 36.037 105.324 35.936 105.392 35.7683L105.022 35.6176ZM42.9583 115.783L42.5863 115.93C42.6605 116.117 42.8626 116.22 43.0578 116.17C43.2531 116.12 43.3805 115.932 43.3551 115.732L42.9583 115.783ZM99.8496 2L100.016 2.36381C100.191 2.28375 100.284 2.0902 100.238 1.9033C100.191 1.7164 100.018 1.58922 99.8258 1.60071L99.8496 2ZM69.2062 164.82C65.4097 149.556 64.18 130.986 65.1611 114.548C65.6516 106.331 66.6941 98.6568 68.2405 92.2028C69.7891 85.7396 71.8348 80.5367 74.3101 77.233L73.6699 76.7533C71.0972 80.1869 69.0203 85.5153 67.4625 92.0164C65.9027 98.5266 64.8551 106.249 64.3625 114.501C63.3776 131.001 64.6099 149.655 68.4298 165.013L69.2062 164.82ZM74.3256 77.2107C78.2152 71.2104 83.8731 67.1278 90.4866 65.9448C97.0977 64.7623 104.716 66.4681 112.545 72.145L113.014 71.4974C105.044 65.7177 97.2093 63.9296 90.3458 65.1573C83.4846 66.3846 77.6469 70.6163 73.6543 76.7755L74.3256 77.2107ZM112.493 72.0998C113.936 73.5871 115.164 74.8947 116.241 76.0467C117.316 77.1975 118.244 78.1966 119.083 79.0611C120.76 80.7887 122.109 82.0086 123.635 82.8703C126.684 84.593 130.37 84.8398 138.624 85.1507L138.654 84.3513C130.328 84.0376 126.871 83.7797 124.028 82.1737C122.607 81.371 121.324 80.2206 119.657 78.5039C118.825 77.6463 117.904 76.6548 116.825 75.5005C115.748 74.3473 114.516 73.0353 113.067 71.5426L112.493 72.0998ZM138.599 85.149C141.278 85.4183 142.925 87.2918 143.615 90.097C144.308 92.917 144.008 96.6205 142.791 100.34C140.352 107.795 134.322 115.072 125.695 115.383L125.724 116.182C134.831 115.854 141.062 108.198 143.552 100.589C144.799 96.7756 145.131 92.9139 144.392 89.906C143.648 86.8834 141.796 84.6664 138.679 84.353L138.599 85.149ZM125.695 115.383C117.928 115.66 113.535 121.803 113.278 127.784C113.15 130.779 114.054 133.763 116.112 135.971C118.177 138.186 121.365 139.579 125.721 139.456L125.698 138.657C121.534 138.774 118.581 137.446 116.698 135.426C114.808 133.399 113.957 130.636 114.077 127.819C114.32 122.177 118.447 116.442 125.724 116.182L125.695 115.383ZM125.758 139.453C160.396 135.248 179.399 98.8269 167.456 69.0861L166.714 69.3843C178.472 98.6651 159.748 134.521 125.661 138.659L125.758 139.453ZM167.392 69.4916C173.069 62.6937 176.987 57.2988 179.8 51.7468C182.615 46.1899 184.315 40.4931 185.581 33.0991L184.792 32.9641C183.536 40.3033 181.856 45.9185 179.086 51.3852C176.314 56.8569 172.442 62.1972 166.778 68.9788L167.392 69.4916ZM185.162 32.6324C176.3 33.1723 171.678 34.2403 164.323 37.8444L164.675 38.5628C171.919 35.0127 176.435 33.9655 185.211 33.4309L185.162 32.6324ZM164.77 37.9095C154.689 28.611 148.435 24.5886 136.201 19.73L135.906 20.4735C148.042 25.2935 154.214 29.2611 164.228 38.4976L164.77 37.9095ZM136.437 19.9888C134.148 12.2109 132.372 8.27113 128.642 1.80022L127.949 2.19978C131.65 8.61933 133.399 12.5011 135.67 20.2147L136.437 19.9888ZM128.04 1.69234C121.904 6.79033 117.652 11.3004 114.133 16.5131C110.617 21.7215 107.844 27.6163 104.651 35.4669L105.392 35.7683C108.579 27.9326 111.327 22.0992 114.796 16.9607C118.262 11.8263 122.457 7.37078 128.551 2.30766L128.04 1.69234ZM105.071 35.2207C82.5398 32.4031 65.4265 41.0677 54.6952 56.2097C43.9775 71.3325 39.6468 92.8811 42.5614 115.833L43.3551 115.732C40.4589 92.9251 44.7741 71.5919 55.3479 56.6723C65.908 41.7718 82.7319 33.2334 104.972 36.0145L105.071 35.2207ZM43.3302 115.635C33.3689 90.4715 30.6794 69.9039 38.8502 51.7812C47.0268 33.6455 66.1256 17.8517 100.016 2.36381L99.6834 1.63619C65.7416 17.1476 46.4195 33.046 38.1209 51.4523C29.8164 69.8716 32.5973 90.6957 42.5863 115.93L43.3302 115.635ZM99.8258 1.60071C66.707 3.57978 42.6521 10.2042 26.5878 20.2041C10.507 30.2143 2.43539 43.6086 1.3197 59.0662C0.205717 74.5001 6.03027 91.9324 17.6087 110.043C29.1902 128.159 46.5491 146.986 68.5628 165.224L69.0732 164.608C47.1042 146.407 29.808 127.64 18.2828 109.612C6.75451 91.58 1.02074 74.3208 2.11763 59.1238C3.2128 43.9504 11.1212 30.7743 27.0105 20.8833C42.9163 10.982 66.8214 4.37437 99.8735 2.39929L99.8258 1.60071Z" fill="#0F172A"/>
<path fill-rule="evenodd" clip-rule="evenodd" d="M128.382 33.1232C127.131 32.4106 125.265 32.2174 121.973 32.5897C121.121 32.686 120.353 32.0738 120.257 31.2223C120.16 30.3708 120.773 29.6025 121.624 29.5062C124.99 29.1256 127.739 29.1861 129.918 30.4266C132.152 31.6992 133.431 33.9988 134.424 37.1312C134.683 37.948 134.231 38.8202 133.414 39.0792C132.597 39.3382 131.725 38.886 131.466 38.0692C130.543 35.1567 129.577 33.8037 128.382 33.1232Z" fill="white"/>
<path fill-rule="evenodd" clip-rule="evenodd" d="M154.643 49.1935C153.391 48.4809 151.526 48.2877 148.233 48.6601C147.382 48.7563 146.614 48.1441 146.517 47.2926C146.421 46.4412 147.033 45.6728 147.885 45.5765C151.25 45.196 154 45.2564 156.178 46.4969C158.413 47.7695 159.692 50.0691 160.685 53.2015C160.944 54.0184 160.492 54.8905 159.675 55.1495C158.858 55.4085 157.986 54.9563 157.727 54.1395C156.803 51.227 155.838 49.8741 154.643 49.1935Z" fill="white"/>
<path d="M135.273 55.748L129.427 51.353L130.152 56.4737L135.273 55.748Z" fill="white"/>
<path fill-rule="evenodd" clip-rule="evenodd" d="M128.9 50.4624C129.26 50.2497 129.713 50.2749 130.048 50.5263L135.894 54.9213C136.228 55.1727 136.378 55.6008 136.274 56.006C136.17 56.4111 135.832 56.7136 135.418 56.7723L130.721 57.4379L128.781 60.0187C128.438 60.4753 127.789 60.5672 127.333 60.2239C126.876 59.8807 126.784 59.2322 127.127 58.7756L129.067 56.1948L128.402 51.4982C128.343 51.084 128.54 50.6752 128.9 50.4624ZM131.031 55.3046L132.655 55.0744L130.801 53.6805L131.031 55.3046Z" fill="white"/>
</svg>
