<svg width="25" height="25" viewBox="0 0 25 25" fill="none" xmlns="http://www.w3.org/2000/svg">
<path fill-rule="evenodd" clip-rule="evenodd" d="M18.3333 12.6661C18.4372 12.7589 18.4462 12.9183 18.3534 13.0223L17.8167 13.6232C17.7239 13.7271 17.5644 13.7361 17.4605 13.6433C17.3566 13.5505 17.3476 13.391 17.4404 13.2871L17.9771 12.6862C18.0699 12.5823 18.2294 12.5733 18.3333 12.6661Z" fill="white"/>
<path fill-rule="evenodd" clip-rule="evenodd" d="M13.6358 12.142C13.7377 12.0452 13.8975 12.0477 13.9926 12.1476L14.5296 12.712C14.6247 12.812 14.6192 12.9716 14.5172 13.0685C14.4152 13.1653 14.2554 13.1628 14.1603 13.0629L13.6233 12.4985C13.5282 12.3985 13.5338 12.2389 13.6358 12.142Z" fill="white"/>
<path fill-rule="evenodd" clip-rule="evenodd" d="M11.2905 12.0095C11.4268 11.9804 11.5608 12.0673 11.5899 12.2035C11.5989 12.2456 11.6352 12.3508 11.7017 12.5118C11.7653 12.6656 11.8494 12.8537 11.9437 13.052C12.1335 13.4512 12.358 13.8776 12.5334 14.1437C12.538 14.1507 12.5423 14.1579 12.5462 14.1653C12.5634 14.1982 12.5972 14.2533 12.6419 14.3263C12.8168 14.6116 13.1587 15.1696 13.3309 15.7343C13.4415 16.0969 13.498 16.5027 13.3884 16.8834C13.2749 17.2777 12.9937 17.609 12.5039 17.8278C12.4951 17.8317 12.4862 17.8351 12.4771 17.838C12.1142 17.9529 11.6709 18.0412 11.2259 18.044C10.7828 18.0467 10.3176 17.9645 9.93093 17.7172C9.81355 17.6421 9.77925 17.4861 9.85431 17.3688C9.92937 17.2514 10.0854 17.2171 10.2028 17.2921C10.4788 17.4687 10.8366 17.5418 11.2228 17.5394C11.6016 17.5371 11.9883 17.4621 12.3109 17.3614C12.6731 17.1962 12.8369 16.9754 12.9035 16.7439C12.9749 16.4961 12.9452 16.1993 12.8483 15.8814C12.699 15.3919 12.4271 14.9459 12.2442 14.646C12.1872 14.5525 12.1388 14.4732 12.1055 14.4112C11.9119 14.1154 11.6788 13.6697 11.488 13.2687C11.3909 13.0644 11.3031 12.8682 11.2355 12.7045C11.1707 12.5479 11.1164 12.4023 11.0965 12.3089C11.0674 12.1726 11.1543 12.0386 11.2905 12.0095Z" fill="white"/>
<path d="M9.82923 11.6692C8.59809 13.3124 8.26979 18.6567 9.19854 22.3908C-1.52815 13.5041 -3.15543 3.48877 12.9826 2.52441C4.71102 6.30453 3.61237 10.2537 6.04515 16.3993C5.33657 10.8194 8.15374 5.9411 13.6133 6.62382C14.3911 4.711 14.96 3.76348 16.4513 2.52441C16.9044 3.31036 17.1193 3.78724 17.3974 4.73179C18.8833 5.32189 19.6409 5.80906 20.8661 6.93916C21.7562 6.50296 22.3134 6.374 23.3888 6.30848C23.0812 8.10507 22.5644 9.06731 21.1814 10.7232C22.6265 14.3218 20.3262 18.7287 16.136 19.2374C14.0581 19.296 14.3015 16.4649 16.136 16.3993C18.2985 16.3214 19.1262 12.7574 17.7127 12.6153C15.6909 12.5391 15.9704 12.4922 14.5593 11.0386C12.6328 9.64152 10.7904 10.1865 9.82923 11.6692Z" fill="white"/>
<path d="M9.19854 22.3908L8.94335 22.6988C9.07641 22.809 9.26521 22.8214 9.41148 22.7294C9.55775 22.6374 9.62842 22.4619 9.58672 22.2942L9.19854 22.3908ZM9.82923 11.6692L10.1493 11.9091C10.1548 11.9018 10.16 11.8944 10.1649 11.8868L9.82923 11.6692ZM14.5593 11.0386L14.8463 10.7599C14.8303 10.7434 14.8128 10.7283 14.7941 10.7147L14.5593 11.0386ZM17.7127 12.6153L17.7527 12.2173C17.7444 12.2164 17.7361 12.2159 17.7277 12.2155L17.7127 12.6153ZM16.136 16.3993L16.1503 16.7991L16.1504 16.7991L16.136 16.3993ZM16.136 19.2374L16.1473 19.6372C16.1596 19.6369 16.172 19.6359 16.1842 19.6345L16.136 19.2374ZM21.1814 10.7232L20.8744 10.4668C20.78 10.5798 20.7554 10.7356 20.8102 10.8723L21.1814 10.7232ZM23.3888 6.30848L23.7831 6.37597C23.8037 6.25558 23.7681 6.13236 23.6866 6.04142C23.605 5.95048 23.4864 5.90179 23.3645 5.90922L23.3888 6.30848ZM20.8661 6.93916L20.5949 7.23318C20.7162 7.3451 20.8939 7.37099 21.0421 7.29835L20.8661 6.93916ZM17.3974 4.73179L17.0136 4.84473C17.0484 4.96271 17.1354 5.05815 17.2497 5.10354L17.3974 4.73179ZM16.4513 2.52441L16.7979 2.32464C16.739 2.22246 16.638 2.15148 16.5219 2.13068C16.4058 2.10988 16.2864 2.14138 16.1957 2.21675L16.4513 2.52441ZM13.6133 6.62382L13.5637 7.02073C13.7433 7.04319 13.9156 6.9422 13.9838 6.77449L13.6133 6.62382ZM6.04515 16.3993L5.67323 16.5465C5.74743 16.734 5.9495 16.8369 6.14474 16.7867C6.33998 16.7365 6.46736 16.5489 6.44196 16.3489L6.04515 16.3993ZM12.9826 2.52441L13.1489 2.88822C13.3241 2.80816 13.4173 2.61461 13.3707 2.42771C13.3242 2.24081 13.151 2.11364 12.9587 2.12513L12.9826 2.52441ZM9.58672 22.2942C9.13405 20.4743 8.98523 18.2464 9.10322 16.2697C9.16213 15.2828 9.28702 14.3681 9.46968 13.6058C9.65453 12.8343 9.89023 12.2549 10.1493 11.9091L9.50912 11.4294C9.15266 11.9051 8.88565 12.6099 8.6917 13.4194C8.49557 14.2379 8.3656 15.2008 8.30464 16.2221C8.18287 18.2619 8.33428 20.5732 8.81037 22.4873L9.58672 22.2942ZM10.1649 11.8868C10.594 11.2249 11.2049 10.7925 11.9027 10.6677C12.598 10.5434 13.4321 10.7152 14.3245 11.3624L14.7941 10.7147C13.7601 9.96486 12.7097 9.71069 11.7618 9.88022C10.8165 10.0493 10.0257 10.6308 9.49358 11.4517L10.1649 11.8868ZM14.2723 11.3172C14.446 11.4961 14.5939 11.6537 14.7248 11.7936C14.8545 11.9324 14.9707 12.0576 15.076 12.166C15.2851 12.3815 15.4784 12.5607 15.7102 12.6917C16.1728 12.9531 16.7231 12.9783 17.6976 13.015L17.7277 12.2155C16.6805 12.1761 16.3596 12.1397 16.1037 11.9952C15.9763 11.9232 15.8486 11.8134 15.6501 11.6089C15.5515 11.5073 15.4423 11.3897 15.3093 11.2474C15.1774 11.1063 15.0254 10.9444 14.8463 10.7599L14.2723 11.3172ZM17.6727 13.0132C17.8069 13.0267 17.9177 13.1044 17.9784 13.351C18.0426 13.6124 18.0202 13.9945 17.8852 14.407C17.6099 15.2484 16.9627 15.9693 16.1216 15.9996L16.1504 16.7991C17.4718 16.7514 18.3198 15.6513 18.6455 14.6558C18.8111 14.1497 18.8657 13.6093 18.7552 13.16C18.6411 12.696 18.3253 12.2748 17.7527 12.2173L17.6727 13.0132ZM16.1217 15.9996C14.9591 16.0411 14.3069 16.9695 14.2692 17.8478C14.2502 18.2907 14.3833 18.7515 14.7088 19.1006C15.0401 19.456 15.5322 19.6546 16.1473 19.6372L16.1247 18.8375C15.7008 18.8495 15.4441 18.7162 15.294 18.5551C15.138 18.3878 15.0571 18.1477 15.0685 17.8821C15.0916 17.343 15.4784 16.8231 16.1503 16.7991L16.1217 15.9996ZM16.1842 19.6345C20.6502 19.0923 23.09 14.4027 21.5526 10.5742L20.8102 10.8723C22.163 14.2409 20.0023 18.3651 16.0878 18.8403L16.1842 19.6345ZM21.4884 10.9796C22.1868 10.1435 22.6843 9.4617 23.0452 8.74938C23.4086 8.03214 23.6246 7.30169 23.7831 6.37597L22.9945 6.24098C22.8454 7.11186 22.6492 7.76082 22.3316 8.38783C22.0114 9.01975 21.5591 9.64705 20.8744 10.4668L21.4884 10.9796ZM23.3645 5.90922C22.2456 5.97738 21.6353 6.11676 20.6901 6.57997L21.0421 7.29835C21.8771 6.88916 22.3811 6.77061 23.4131 6.70774L23.3645 5.90922ZM21.1373 6.64513C19.8785 5.48402 19.0795 4.96944 17.545 4.36003L17.2497 5.10354C18.687 5.67435 19.4033 6.13409 20.5949 7.23318L21.1373 6.64513ZM17.7811 4.61884C17.4936 3.64217 17.2658 3.13626 16.7979 2.32464L16.1048 2.72419C16.5431 3.48446 16.7451 3.93232 17.0136 4.84473L17.7811 4.61884ZM16.1957 2.21675C15.4291 2.85372 14.8855 3.42766 14.4332 4.09766C13.9838 4.76346 13.6347 5.50929 13.2428 6.47314L13.9838 6.77449C14.3697 5.82553 14.694 5.14119 15.0963 4.54526C15.4958 3.95353 15.9823 3.43417 16.707 2.83208L16.1957 2.21675ZM13.6629 6.22691C10.7875 5.86733 8.57356 6.97932 7.18982 8.93178C5.81969 10.865 5.28485 13.5873 5.64834 16.4497L6.44196 16.3489C6.09687 13.6313 6.61632 11.1245 7.84252 9.39436C9.05512 7.68338 10.9796 6.69759 13.5637 7.02073L13.6629 6.22691ZM6.41707 16.2521C5.21457 13.2144 4.92673 10.8189 5.86439 8.7392C6.80788 6.64655 9.03883 4.76651 13.1489 2.88822L12.8163 2.1606C8.6548 4.06243 6.20063 6.04702 5.13509 8.41038C4.06372 10.7867 4.44295 13.4386 5.67323 16.5465L6.41707 16.2521ZM12.9587 2.12513C8.89089 2.36821 5.89182 3.18334 3.86329 4.44609C1.81833 5.71907 0.762398 7.4482 0.617342 9.45791C0.473992 11.444 1.22411 13.6457 2.65806 15.8886C4.09504 18.1363 6.23934 20.4586 8.94335 22.6988L9.45373 22.0827C6.7944 19.8796 4.71278 17.6174 3.33208 15.4577C1.94835 13.2933 1.28902 11.2646 1.41527 9.5155C1.53981 7.79001 2.43252 6.27908 4.28606 5.12526C6.15603 3.96121 9.00531 3.1628 13.0065 2.9237L12.9587 2.12513Z" fill="white"/>
<path fill-rule="evenodd" clip-rule="evenodd" d="M16.4622 6.31932C16.3096 6.23243 16.0821 6.20887 15.6806 6.25427C15.5768 6.26601 15.4831 6.19136 15.4714 6.08753C15.4596 5.9837 15.5343 5.89 15.6381 5.87826C16.0485 5.83185 16.3838 5.83923 16.6494 5.9905C16.9219 6.14568 17.0779 6.42609 17.199 6.80807C17.2306 6.90768 17.1754 7.01403 17.0758 7.04561C16.9762 7.0772 16.8699 7.02206 16.8383 6.92245C16.7257 6.5673 16.6079 6.40231 16.4622 6.31932Z" fill="#0F172A"/>
<path fill-rule="evenodd" clip-rule="evenodd" d="M19.6643 8.27928C19.5117 8.19239 19.2843 8.16883 18.8828 8.21423C18.779 8.22598 18.6853 8.15132 18.6735 8.04749C18.6618 7.94366 18.7364 7.84997 18.8403 7.83822C19.2507 7.79181 19.586 7.79919 19.8516 7.95046C20.1241 8.10564 20.28 8.38605 20.4011 8.76803C20.4327 8.86764 20.3776 8.97399 20.278 9.00557C20.1784 9.03716 20.072 8.98202 20.0404 8.88241C19.9278 8.52726 19.81 8.36227 19.6643 8.27928Z" fill="#0F172A"/>
<path d="M17.3025 9.07861L16.5896 8.54267L16.6781 9.1671L17.3025 9.07861Z" fill="#0F172A"/>
<path fill-rule="evenodd" clip-rule="evenodd" d="M16.5254 8.43383C16.5694 8.40788 16.6246 8.41096 16.6654 8.44161L17.3783 8.97756C17.4191 9.00821 17.4374 9.06041 17.4247 9.10982C17.4119 9.15923 17.3707 9.19611 17.3202 9.20327L16.7475 9.28443L16.5109 9.59914C16.4691 9.65482 16.39 9.66603 16.3343 9.62417C16.2786 9.58231 16.2674 9.50323 16.3093 9.44755L16.5458 9.13284L16.4647 8.56014C16.4575 8.50962 16.4815 8.45977 16.5254 8.43383ZM16.7853 9.02429L16.9833 8.99622L16.7572 8.82624L16.7853 9.02429Z" fill="#0F172A"/>
</svg>
