<svg width="32" height="32" viewBox="0 0 32 32" fill="none" xmlns="http://www.w3.org/2000/svg">
<path d="M0 8C0 3.58172 3.58172 0 8 0H24C28.4183 0 32 3.58172 32 8V24C32 28.4183 28.4183 32 24 32H8C3.58172 32 0 28.4183 0 24V8Z" fill="#4C6FFF"/>
<path d="M21.8333 9.33333H10.1667C9.24619 9.33333 8.5 10.0795 8.5 11V22.6667C8.5 23.5871 9.24619 24.3333 10.1667 24.3333H21.8333C22.7538 24.3333 23.5 23.5871 23.5 22.6667V11C23.5 10.0795 22.7538 9.33333 21.8333 9.33333Z" stroke="#EDF2F7" stroke-width="2" stroke-linecap="round" stroke-linejoin="round"/>
<path d="M19.3333 7.66667V11" stroke="#EDF2F7" stroke-width="2" stroke-linecap="round" stroke-linejoin="round"/>
<path d="M12.6667 7.66667V11" stroke="#EDF2F7" stroke-width="2" stroke-linecap="round" stroke-linejoin="round"/>
<path d="M8.5 14.3333H23.5" stroke="#EDF2F7" stroke-width="2" stroke-linecap="round" stroke-linejoin="round"/>
</svg>
