<svg width="43" height="42" viewBox="0 0 43 42" fill="none" xmlns="http://www.w3.org/2000/svg">
<rect x="0.5" width="42" height="42" rx="21" fill="#4C6FFF"/>
<g clip-path="url(#clip0_854_749)">
<path d="M32.8864 25.5992C32.0619 24.9514 28.0102 22.103 24.4354 19.5899C23.4179 18.8745 22.4392 18.1864 21.5852 17.5845C21.4264 17.4727 21.2071 17.5106 21.0952 17.6693C20.9833 17.8281 21.0212 18.0474 21.18 18.1593C22.0343 18.7614 23.0132 19.4496 24.0309 20.165C27.5985 22.6732 31.6422 25.5159 32.4519 26.1522C32.6429 26.3022 33.0381 26.7658 32.5856 27.8287C32.1509 28.8505 31.2665 29.5984 30.8245 29.5371C30.4944 29.4911 29.7094 29.178 28.1596 27.5989C28.0235 27.4603 27.8011 27.4581 27.6624 27.5942C27.5238 27.7302 27.5216 27.9529 27.6577 28.0915C28.9691 29.4276 29.9731 30.1284 30.7273 30.2336C30.7749 30.2402 30.8234 30.2435 30.873 30.2435C31.2757 30.2435 31.732 30.0245 32.1753 29.6151C32.6094 29.2139 32.9948 28.6631 33.2327 28.1041C33.6852 27.0406 33.559 26.1279 32.8864 25.5992Z" fill="#EDF2F7"/>
<path d="M26.2148 25.3847C26.0951 25.2309 25.8649 25.2051 25.714 25.3291C25.1691 25.7771 23.4924 26.6031 21.3125 26.9124C19.5664 27.1601 17.0086 27.1407 14.7387 25.6425C14.5766 25.5356 14.3586 25.5801 14.2514 25.7423C14.1445 25.9044 14.1892 26.1224 14.3512 26.2294C15.2565 26.8269 16.2006 27.207 17.1256 27.4357V29.7111L15.4651 29.9629C15.273 29.9918 15.141 30.1711 15.1701 30.3632C15.1988 30.5527 15.3808 30.6867 15.5703 30.6582L16.5554 30.5087L16.0455 31.0729C15.9151 31.2168 15.9265 31.4391 16.0704 31.5695C16.2125 31.6978 16.4386 31.6865 16.567 31.5444L17.7379 30.2491C17.7387 30.2485 17.739 30.2476 17.7396 30.2471C17.7953 30.1845 17.8288 30.1024 17.8288 30.0134V27.5823C18.4625 27.6907 19.0799 27.7343 19.6611 27.7343C19.948 27.7343 20.2256 27.7233 20.4926 27.7048V30.0312L18.832 30.2828C18.6401 30.3119 18.5081 30.4912 18.5372 30.6831C18.5659 30.8726 18.748 31.0068 18.9375 30.978L19.9224 30.8288L19.4124 31.3928C19.2823 31.5369 19.2934 31.7592 19.4375 31.8894C19.5796 32.0179 19.8056 32.0065 19.9341 31.8645L21.1051 30.5692C21.1056 30.5686 21.106 30.5679 21.1065 30.5671C21.1622 30.5047 21.1959 30.4225 21.1959 30.3333V27.6369C21.2688 27.6279 21.3409 27.6184 21.4114 27.6083C23.2787 27.3434 24.9774 26.6767 25.8728 26.0829C26.0531 26.3048 26.3375 26.6478 26.6885 27.046C26.8169 27.1916 27.039 27.2057 27.1847 27.0773C27.3305 26.9488 27.3444 26.7267 27.216 26.5811C26.6268 25.9128 26.2188 25.3898 26.2148 25.3847V25.3847Z" fill="#EDF2F7"/>
<path d="M13.2354 24.3635C12.3796 23.4419 11.7358 22.3654 11.3401 21.2089C11.7508 21.3864 12.2095 21.4025 12.6458 21.3274C13.6371 21.1573 14.2154 20.5335 14.2925 19.5615C14.6178 19.3275 14.8337 18.8515 14.865 18.241C14.9225 17.1189 14.3199 15.8147 12.8617 15.6024C12.3078 15.5219 11.7958 15.5753 11.3448 15.7561C11.9773 14.0189 13.1762 12.8608 14.5517 12.7249C16.1347 12.5687 17.3551 13.2618 18.1794 14.7849C18.6738 15.6984 19.3072 16.5249 20.0616 17.242C20.2004 17.3738 20.4267 17.3681 20.5585 17.2293C20.6924 17.0885 20.6867 16.8659 20.5459 16.7322C19.8451 16.0662 19.257 15.2985 18.798 14.4502C18.1298 13.2155 16.8385 11.7929 14.4827 12.0251C12.6006 12.211 11.0138 13.9239 10.419 16.3995C9.64689 17.2359 9.44108 18.4779 9.51359 19.3962C9.55753 19.9527 9.67161 20.6115 10.1676 20.7697C10.2687 20.8019 10.3751 20.8098 10.4798 20.7946C10.8719 22.2878 11.6407 23.6796 12.7199 24.8418C12.8747 25.0086 13.0365 25.1704 13.2006 25.3231C13.3409 25.4537 13.5672 25.4455 13.6975 25.3052C13.8298 25.1631 13.8219 24.9406 13.6796 24.8083C13.528 24.6673 13.3784 24.5177 13.2354 24.3635V24.3635ZM12.5268 20.6344C11.9985 20.725 11.5878 20.6278 11.2802 20.3379C11.5675 20.0812 11.8885 19.7236 12.2609 19.2777C12.398 19.1135 12.4759 19.0613 12.5063 19.0456C12.5469 19.0716 12.6202 19.1433 12.6709 19.1928C12.8587 19.3768 13.1277 19.6385 13.5652 19.7047C13.4645 20.2321 13.1283 20.5311 12.5268 20.6344ZM11.0414 16.7696C11.3972 16.4361 11.841 16.2684 12.3645 16.2684C12.4918 16.2684 12.6238 16.2783 12.7602 16.2981C13.9356 16.4691 14.1949 17.5772 14.1626 18.2049C14.1363 18.7196 13.9391 19.0119 13.8127 19.0172C13.5097 19.0302 13.3489 18.8727 13.1629 18.6903C12.9953 18.5265 12.786 18.3216 12.4779 18.3379C12.156 18.3538 11.9044 18.6076 11.7213 18.8269C11.3304 19.2948 11.0374 19.6108 10.7995 19.8216C10.5483 20.0444 10.4236 20.0874 10.3848 20.0957C10.3537 20.057 10.2585 19.8963 10.2145 19.3409C10.1343 18.3243 10.4588 17.3148 11.0414 16.7696Z" fill="#EDF2F7"/>
<path d="M18.1582 23.4645C18.8247 23.7743 19.6758 24.0369 20.6475 24.0369C21.6099 24.0369 22.6904 23.7793 23.8253 23.0546C23.989 22.9502 24.0368 22.7327 23.9324 22.5691C23.8279 22.4054 23.6105 22.3575 23.4468 22.462C21.8386 23.4887 20.1661 23.6149 18.4761 22.8368C17.1899 22.2449 16.3698 21.3259 16.3573 21.3118C16.2294 21.166 16.0074 21.1514 15.8615 21.2793C15.7154 21.4073 15.7007 21.6294 15.8287 21.7756C15.8652 21.8171 16.7408 22.8057 18.1582 23.4645V23.4645Z" fill="#EDF2F7"/>
<path d="M16.5934 15.777C16.5934 15.2799 16.2801 14.8906 15.8798 14.8906C15.4797 14.8906 15.1662 15.2801 15.1662 15.777C15.1662 16.274 15.4797 16.6635 15.8798 16.6635C16.2801 16.6635 16.5934 16.274 16.5934 15.777Z" fill="#EDF2F7"/>
</g>
<defs>
<clipPath id="clip0_854_749">
<rect width="24" height="24" fill="white" transform="translate(9.5 9)"/>
</clipPath>
</defs>
</svg>
