<svg width="43" height="42" viewBox="0 0 43 42" fill="none" xmlns="http://www.w3.org/2000/svg">
<rect x="0.5" width="42" height="42" rx="21" fill="#4C6FFF"/>
<path d="M23.8491 17.5112C24.057 17.5112 24.2257 17.3427 24.2257 17.1345V16.3991C24.2257 16.191 24.057 16.0225 23.8491 16.0225C23.6411 16.0225 23.4724 16.191 23.4724 16.3991V17.1345C23.4724 17.3427 23.6411 17.5112 23.8491 17.5112Z" fill="#EDF2F7"/>
<path d="M23.3481 18.5926H24.3501C24.558 18.5926 24.7267 18.4241 24.7267 18.216C24.7267 18.0081 24.558 17.8394 24.3501 17.8394H23.3481C23.1401 17.8394 22.9714 18.0081 22.9714 18.216C22.9714 18.4241 23.1401 18.5926 23.3481 18.5926Z" fill="#EDF2F7"/>
<path d="M16.2825 17.5112C16.4905 17.5112 16.6592 17.3427 16.6592 17.1345V16.3991C16.6592 16.191 16.4905 16.0225 16.2825 16.0225C16.0744 16.0225 15.9059 16.191 15.9059 16.3991V17.1345C15.9059 17.3427 16.0744 17.5112 16.2825 17.5112Z" fill="#EDF2F7"/>
<path d="M15.7815 18.5926H16.7834C16.9915 18.5926 17.16 18.4241 17.16 18.216C17.16 18.0081 16.9915 17.8394 16.7834 17.8394H15.7815C15.5734 17.8394 15.4049 18.0081 15.4049 18.216C15.4049 18.4241 15.5734 18.5926 15.7815 18.5926Z" fill="#EDF2F7"/>
<path d="M20.0659 18.5513C20.4383 18.5513 20.7884 18.3951 21.0262 18.123C21.1631 17.9665 21.1472 17.7285 20.9905 17.5916C20.834 17.4547 20.596 17.4708 20.4591 17.6273C20.3643 17.7358 20.2209 17.798 20.0659 17.798C19.911 17.798 19.7676 17.7358 19.6728 17.6273C19.5359 17.4708 19.2979 17.4547 19.1414 17.5916C18.9847 17.7285 18.9688 17.9665 19.1057 18.123C19.3435 18.3951 19.6934 18.5513 20.0659 18.5513Z" fill="#EDF2F7"/>
<path d="M11.39 17.9362C11.39 20.2622 12.3106 21.9341 14.1264 22.906C14.6072 23.1631 15.147 23.3729 15.7573 23.5372C15.6496 24.1874 15.3263 24.8347 14.9864 25.5146C14.4914 26.5047 13.9304 27.6268 13.9689 28.9621C13.9749 29.1701 14.1485 29.3339 14.3563 29.3276C14.5642 29.3217 14.7278 29.1483 14.7219 28.9404C14.6888 27.7943 15.1826 26.8068 15.6602 25.8517C16.02 25.1321 16.3629 24.4459 16.4936 23.7067C17.1197 23.8288 17.812 23.9115 18.58 23.9565C19.5683 24.0141 20.5639 24.0128 21.552 23.9565C22.32 23.9115 23.0121 23.8288 23.6381 23.7067C23.7687 24.4459 24.112 25.1321 24.4718 25.8517C24.9181 26.7438 25.3795 27.6662 25.4105 28.7165C25.416 28.906 25.4065 29.1 25.3834 29.2895C25.2592 30.3024 24.7294 31.3536 23.7754 32.4849C23.5211 32.7863 23.1457 32.9591 22.7447 32.9591H22.4793C23.4705 30.8269 23.1835 28.2086 23.1694 28.0884C23.1455 27.8818 22.9585 27.7337 22.7522 27.7576C22.5454 27.7816 22.3973 27.9683 22.4212 28.1751C22.4246 28.2037 22.7302 30.9823 21.6352 32.9591H20.4425V28.1317C20.4425 27.9238 20.2738 27.7551 20.0658 27.7551C19.8579 27.7551 19.6892 27.9238 19.6892 28.1317V32.9591H18.4965C17.4061 30.9897 17.7063 28.2124 17.7104 28.1749C17.7343 27.9683 17.5862 27.7816 17.3795 27.7576C17.1729 27.7337 16.9859 27.8818 16.9622 28.0884C16.9483 28.2086 16.6611 30.8269 17.6523 32.9591H17.3869C16.9861 32.9591 16.6105 32.7863 16.3564 32.4849C15.725 31.7364 15.272 31.0092 15.0097 30.3234C14.9356 30.1289 14.7178 30.0316 14.5234 30.106C14.3292 30.1801 14.2319 30.3979 14.3061 30.5923C14.6027 31.368 15.0851 32.146 15.7805 32.9707C16.1781 33.4421 16.7637 33.7124 17.3869 33.7124H22.7447C23.3681 33.7124 23.9537 33.4421 24.3511 32.9707C24.7896 32.4508 25.147 31.9425 25.4254 31.4425C26.7013 31.2032 27.6731 30.6698 28.3899 29.8143C29.253 28.7842 29.5591 27.5064 29.8551 26.2705C30.0281 25.5476 30.1917 24.8647 30.4561 24.2278C30.5358 24.0355 30.4448 23.8152 30.2525 23.7354C30.0603 23.6557 29.84 23.7468 29.7603 23.939C29.4731 24.6313 29.2948 25.3754 29.1224 26.0949C28.8468 27.246 28.5615 28.4364 27.8126 29.3303C27.3164 29.9226 26.665 30.3326 25.8336 30.5735C25.9678 30.2198 26.0596 29.8696 26.112 29.5196C26.1349 29.3666 26.1512 29.2124 26.159 29.0577C27.2378 28.436 27.5195 27.2604 27.8704 25.795C28.106 24.8112 28.3732 23.6959 28.9425 22.6684C29.5893 21.5014 30.5307 20.6241 31.8211 19.9866C32.136 19.8312 32.5283 19.9648 32.6833 20.2787C32.8388 20.5937 32.7054 20.9857 32.3912 21.141C31.6318 21.5161 31.0323 21.9836 30.5582 22.5703C30.4273 22.732 30.4524 22.9691 30.6143 23.1C30.7761 23.2306 31.0133 23.2055 31.1439 23.0439C31.5482 22.5436 32.0653 22.1423 32.7249 21.8162C33.4026 21.4814 33.6935 20.6375 33.364 19.956C33.3622 19.9524 33.3604 19.9487 33.3587 19.945C33.024 19.2676 32.1793 18.9767 31.4984 19.3059C31.4947 19.3076 31.4911 19.3094 31.4874 19.3112C30.055 20.0189 29.007 20.9976 28.2836 22.3031C27.6645 23.4205 27.3847 24.5887 27.1377 25.6196C26.8486 26.8268 26.6503 27.6529 26.1149 28.158C25.9709 27.1678 25.5366 26.2966 25.1454 25.5146C24.8053 24.8347 24.482 24.1874 24.3743 23.5372C24.9846 23.3729 25.5244 23.1631 26.0051 22.906C27.8208 21.9341 28.7416 20.262 28.7416 17.936C28.7416 16.9469 28.6337 16.0118 28.4228 15.14C29.9302 12.7744 29.7072 10.3334 29.4339 9.07462C29.3121 8.51318 28.8427 8.09553 28.2663 8.03511C28.0433 8.01177 27.819 8 27.6001 8C25.6433 8 24.3855 8.91866 23.9123 9.33906C22.7298 8.75368 21.406 8.43569 20.0658 8.43569C18.7254 8.43569 17.4016 8.75368 16.2193 9.33906C15.746 8.91866 14.4879 8 12.5313 8C12.3124 8 12.0884 8.01177 11.8653 8.03511C11.2888 8.09553 10.8195 8.51318 10.6977 9.07462C10.4243 10.3334 10.2014 12.7744 11.7088 15.14C11.4979 16.0118 11.39 16.9469 11.39 17.9362ZM12.8142 10.296C13.4241 10.3442 13.9004 10.5353 14.2243 10.7146C14.1674 10.7676 14.1117 10.8217 14.0563 10.8764C13.6352 11.2935 13.2587 11.7553 12.9348 12.2518C12.7642 11.5218 12.7612 10.8394 12.8142 10.296ZM27.1968 12.2518C26.9892 11.9334 26.7611 11.6309 26.5133 11.3447C26.3295 11.1324 26.1349 10.9294 25.9307 10.7368C25.9229 10.7295 25.9152 10.7219 25.9074 10.7146C26.2312 10.5355 26.7075 10.3442 27.3172 10.2962C27.3702 10.8392 27.3673 11.522 27.1968 12.2518ZM27.6003 8.75329C27.7931 8.75329 27.9907 8.76369 28.1878 8.78429C28.4401 8.81077 28.6451 8.99164 28.6977 9.2345C28.9235 10.2734 29.1132 12.1965 28.127 14.1421C28.1111 14.0974 28.0132 13.8531 27.9868 13.7735C27.9016 13.5624 27.8096 13.3562 27.7104 13.155C28.1825 11.8775 28.1427 10.661 28.0211 9.85204C27.9936 9.66901 27.8373 9.53326 27.6523 9.5315L27.6107 9.5313C26.5418 9.5313 25.764 9.89579 25.3006 10.2002C25.0831 10.0329 24.8569 9.87597 24.6221 9.73022C25.1225 9.34729 26.1351 8.75329 27.6003 8.75329ZM25.0878 10.9957C27.1105 12.6855 27.9883 15.3636 27.9883 17.936C27.9883 19.9913 27.2235 21.3996 25.6498 22.2417C24.2156 23.0092 22.5121 23.1796 20.9115 23.2314C20.8986 23.2318 19.2331 23.2318 19.2201 23.2314C17.619 23.1792 15.9178 23.0101 14.4818 22.2417C12.9082 21.3996 12.1433 19.9913 12.1433 17.936C12.1433 15.552 12.8585 13.1428 14.575 11.4253C16.0112 9.98838 18.0406 9.18899 20.0658 9.18899C21.9041 9.18899 23.7075 9.84262 25.0878 10.9957ZM11.4337 9.2345C11.4865 8.99164 11.6915 8.81077 11.9438 8.78429C12.1409 8.76369 12.3385 8.75329 12.5313 8.75329C13.9861 8.75329 15.0036 9.34867 15.5074 9.7314C15.2734 9.87695 15.048 10.0335 14.831 10.2002C14.3677 9.89579 13.5897 9.5313 12.5209 9.5313L12.4793 9.5315C12.2943 9.53326 12.138 9.66901 12.1105 9.85204C11.9889 10.661 11.9491 11.8775 12.4213 13.155C12.3216 13.357 12.2292 13.5642 12.1439 13.776C12.1133 13.8517 12.0211 14.0958 12.0046 14.1423C11.0185 12.1965 11.2082 10.2734 11.4337 9.2345Z" fill="#EDF2F7"/>
</svg>
