<svg width="43" height="42" viewBox="0 0 43 42" fill="none" xmlns="http://www.w3.org/2000/svg">
<rect x="0.5" width="42" height="42" rx="21" fill="#4C6FFF"/>
<path d="M29.8449 29.3724C29.3762 29.1576 28.9609 28.9439 28.5752 28.719C28.4076 28.6211 28.1923 28.6778 28.0944 28.8455C27.9967 29.0133 28.0533 29.2285 28.221 29.3263C28.6268 29.5629 29.0622 29.7871 29.5522 30.0116C30.2025 30.3093 30.5825 30.8055 30.5438 31.3066C30.5111 31.7294 30.1822 32.0692 29.6638 32.2155C29.4727 32.2695 29.258 32.2969 29.0258 32.2969H26.0398C23.9678 32.2969 22.4637 31.1835 21.6975 30.4497V29.6921C21.6975 29.4979 21.54 29.3406 21.3459 29.3406C21.1517 29.3406 20.9944 29.498 20.9944 29.6922V30.9793C20.9944 31.7058 20.4034 32.2969 19.6769 32.2969H16.9838C15.8925 32.2969 15.1303 31.8335 15.1303 31.17C15.1303 30.6272 15.6337 30.2108 16.444 30.0834C16.5694 30.0637 16.6745 29.9778 16.7188 29.8589C16.7632 29.7399 16.7399 29.6063 16.658 29.5093C15.7952 28.4878 15.4025 26.9931 15.6806 25.7899C15.8962 24.857 16.4914 24.1116 17.41 23.6166C17.8999 23.3534 18.4455 23.1798 18.9881 23.0696C19.1784 23.031 19.3013 22.8454 19.2627 22.6551C19.224 22.4648 19.0385 22.3419 18.8482 22.3805C18.5236 22.4464 18.2161 22.53 17.9267 22.6295C17.9112 22.3503 17.8876 22.0523 17.8561 21.7369C17.9976 21.6881 18.1381 21.6359 18.2762 21.5798C18.7791 21.3758 19.2169 21.1452 19.5776 20.8943C19.737 20.7834 19.7763 20.5643 19.6655 20.4049C19.5546 20.2456 19.3355 20.2062 19.1761 20.3171C18.5958 20.7207 17.9667 20.9591 17.3586 21.1617C15.9076 21.6451 14.8208 21.4594 14.6736 21.0964C14.5052 20.6811 15.4 19.6157 17.1857 18.8914C17.838 18.6267 18.4394 18.482 18.9248 18.4728C19.119 18.4691 19.2734 18.3088 19.2697 18.1146C19.266 17.9228 19.1094 17.7697 18.9183 17.7697C18.9161 17.7697 18.9138 17.7697 18.9115 17.7698C18.4238 17.779 17.8715 17.8931 17.266 18.1087C17.1482 17.5758 17.0225 17.0739 16.8902 16.6083C17.1286 16.5819 17.3749 16.5494 17.6291 16.51C17.821 16.4803 17.9525 16.3007 17.9228 16.1088C17.8931 15.9169 17.7134 15.786 17.5216 15.8151C17.0023 15.8955 16.4577 15.9569 15.9307 15.9774C14.5762 16.0296 13.6108 15.7988 13.0579 15.2887C12.6512 14.9135 12.4535 14.3822 12.4535 13.6645C12.4535 13.2434 12.5444 12.8245 12.724 12.4195C12.8026 12.242 12.7225 12.0343 12.545 11.9556C12.3675 11.8768 12.1598 11.957 12.0811 12.1345C11.8616 12.6299 11.7503 13.1446 11.7503 13.6645C11.7503 14.5766 12.0299 15.2969 12.5811 15.8055C13.4889 16.6429 14.9452 16.7422 16.1767 16.6697C16.3272 17.1875 16.4729 17.7682 16.6049 18.3758C14.9986 19.1053 13.609 20.3423 14.022 21.3606C14.2456 21.9116 14.8923 22.1409 15.7019 22.1409C16.1553 22.1409 16.6598 22.0686 17.1696 21.9411C17.2025 22.2901 17.225 22.6159 17.2366 22.9142C16.0119 23.5181 15.2625 24.4765 14.9955 25.6314C14.7036 26.8946 15.0138 28.368 15.7888 29.5223C14.9462 29.8107 14.4272 30.4208 14.4272 31.17C14.4272 32.2475 15.4785 33 16.9838 33H19.6769C20.6618 33 21.4844 32.2916 21.662 31.3577C22.5892 32.1199 24.0836 33 26.0398 33H29.0258C29.3226 33 29.6016 32.9637 29.8548 32.8921C30.6566 32.6658 31.1892 32.079 31.2447 31.3606C31.3068 30.5579 30.7703 29.796 29.8449 29.3724Z" fill="#EDF2F7"/>
<path d="M13.6393 11.1502C14.7788 10.0677 16.4548 9.53175 18.0132 9.75132C21.0208 10.1755 22.3743 14.8849 22.6999 17.6007C23.0701 20.6851 23.4698 22.6737 24.0363 24.2502C24.6181 25.8691 25.4558 27.2358 26.8152 28.3562C26.9647 28.4793 27.1863 28.4587 27.3101 28.3085C27.4336 28.1586 27.4122 27.937 27.2624 27.8135C26.8619 27.4835 26.5062 27.1299 26.1877 26.7421C26.5894 26.4406 26.9916 25.9738 27.2943 25.444C27.5031 25.0786 27.9547 24.1549 27.6396 23.4723C27.5107 23.1934 27.1188 22.6914 25.9424 22.4624C25.3455 22.3463 24.7251 22.3461 24.2303 22.4534C24.1256 22.0344 24.0269 21.5831 23.9327 21.0921C25.0352 20.7417 26.579 19.234 26.343 18.1229C26.1286 17.1121 24.3862 16.38 23.2201 16.3731C23.1669 16.0909 23.1013 15.7795 23.0213 15.4487C23.0285 15.4453 23.0356 15.4424 23.0428 15.4389C23.5536 15.1911 24.1138 14.598 24.5048 13.8912C24.7114 13.5177 25.1561 12.5753 24.8243 11.8919C24.4929 11.2081 23.4773 10.9743 23.056 10.9056C22.3471 10.7898 21.6267 10.8353 21.1166 11.021C20.2707 9.87769 19.2644 9.21783 18.1115 9.05522C16.3457 8.80641 14.4465 9.41382 13.1551 10.6406C13.0143 10.7743 13.0086 10.9968 13.1423 11.1376C13.2759 11.2782 13.4985 11.2839 13.6393 11.1502ZM27.0012 23.767C27.2403 24.2851 26.5224 25.6212 25.7685 26.1803C25.1458 25.2602 24.7263 24.2085 24.413 23.1311C25.3354 22.9402 26.7668 23.2599 27.0012 23.767ZM25.6551 18.2687C25.7787 18.8506 24.6799 20.0743 23.8063 20.3939C23.5434 18.8562 23.4226 17.6427 23.3385 17.0761C24.2827 17.1191 25.5409 17.7304 25.6551 18.2687ZM22.9426 11.5994C23.5749 11.7026 24.0651 11.9377 24.1916 12.1986C24.3182 12.4593 24.1996 12.9901 23.8894 13.5507C23.6024 14.0695 23.1917 14.534 22.8372 14.7498C22.5288 13.6709 22.1 12.5776 21.5244 11.6301C21.9103 11.532 22.439 11.5171 22.9426 11.5994Z" fill="#EDF2F7"/>
<path d="M15.4455 11.7639V12.0613C15.4455 12.2555 15.6029 12.4129 15.7971 12.4129C15.9912 12.4129 16.1486 12.2555 16.1486 12.0613V11.7639C16.1486 11.5697 15.9912 11.4124 15.7971 11.4124C15.6029 11.4124 15.4455 11.5697 15.4455 11.7639Z" fill="#EDF2F7"/>
</svg>
