<svg width="43" height="42" viewBox="0 0 43 42" fill="none" xmlns="http://www.w3.org/2000/svg">
<rect x="0.5" width="42" height="42" rx="21" fill="#4C6FFF"/>
<path d="M17.1379 17.4824V16.616C17.1379 16.4218 16.9805 16.2644 16.7863 16.2644C16.5922 16.2644 16.4348 16.4218 16.4348 16.616V17.4824C16.4348 17.6765 16.5922 17.8339 16.7863 17.8339C16.9805 17.8339 17.1379 17.6765 17.1379 17.4824Z" fill="#EDF2F7"/>
<path d="M26.1553 17.4824V16.616C26.1553 16.4218 25.9979 16.2644 25.8037 16.2644C25.6096 16.2644 25.4521 16.4218 25.4521 16.616V17.4824C25.4521 17.6765 25.6096 17.8339 25.8037 17.8339C25.9979 17.8339 26.1553 17.6765 26.1553 17.4824Z" fill="#EDF2F7"/>
<path d="M20.5385 21.1013C20.8358 21.1013 21.1061 20.9847 21.3069 20.795C21.5075 20.9847 21.7779 21.1013 22.0751 21.1013C23.1717 21.1013 23.534 19.6299 22.8435 19.6299C22.6493 19.6299 22.4919 19.7873 22.4919 19.9814C22.4919 20.2113 22.3049 20.3982 22.0751 20.3982C21.8454 20.3982 21.6584 20.2112 21.6584 19.9814C21.6584 19.7873 21.501 19.6299 21.3068 19.6299C21.1127 19.6299 20.9552 19.7873 20.9552 19.9814C20.9552 20.2113 20.7683 20.3982 20.5385 20.3982C20.3087 20.3982 20.1217 20.2112 20.1217 19.9814C20.1217 19.7873 19.9643 19.6299 19.7702 19.6299C19.0809 19.6298 19.441 21.1013 20.5385 21.1013Z" fill="#EDF2F7"/>
<path d="M21.3034 19.2992C22.9307 19.2992 23.4701 17.4294 21.3034 17.4294C19.1359 17.4295 19.6772 19.2992 21.3034 19.2992ZM21.3034 18.1326C21.6888 18.1326 21.9419 18.2175 22.0227 18.2754C21.9822 18.4144 21.7052 18.5962 21.3034 18.5962C20.9016 18.5962 20.6246 18.4144 20.5842 18.2754C20.665 18.2175 20.9181 18.1326 21.3034 18.1326Z" fill="#EDF2F7"/>
<path d="M33.0875 10.8257C33.0654 9.93936 32.409 9.206 31.5266 9.08183C30.9143 8.99567 30.3012 8.97847 29.7045 9.03092C29.5111 9.04789 29.3681 9.21847 29.3851 9.41188C29.4021 9.60528 29.5728 9.7482 29.766 9.73133C30.3097 9.68361 30.8691 9.69931 31.4287 9.77806C31.8383 9.83572 32.1683 10.1069 32.31 10.4704C30.7261 10.4812 29.1194 11.003 28.0224 12.1382C27.5543 11.6779 27.0372 11.2819 26.4409 10.9431C26.8389 10.6572 27.5307 10.2401 28.4731 9.97025C28.6598 9.91681 28.7678 9.72219 28.7144 9.53548C28.6609 9.34888 28.4663 9.24092 28.2796 9.29427C26.9771 9.6672 26.1057 10.2943 25.745 10.5908C24.4798 10.0264 22.9927 9.74183 21.2951 9.74183C19.5984 9.74183 18.1118 10.0269 16.8466 10.5912C16.2383 10.0882 14.1813 8.64303 11.0636 9.08183C10.1811 9.206 9.52471 9.93936 9.50268 10.8257V10.826C9.46579 12.2947 9.78093 14.935 12.2427 16.4361C11.8512 18.0152 11.8227 19.5304 11.8694 20.5323C11.8784 20.7262 12.0434 20.8771 12.2369 20.8671C12.4309 20.8581 12.5807 20.6935 12.5717 20.4995C12.4956 18.8646 12.6709 17.513 12.9707 16.4088C13.2847 15.7055 14.1768 10.4449 21.2951 10.4449C25.4558 10.4449 28.4833 12.2628 29.6007 16.3573C30.1156 18.2506 30.0633 20.1031 29.9811 21.0702C29.8765 22.2998 28.7715 23.1912 27.5551 23.0284C26.8019 22.9275 26.0082 22.8852 25.2681 22.9002C27.3395 17.6446 22.7587 18.2772 22.6355 14.0037C22.6148 13.2752 22.027 12.7007 21.2951 12.7007C20.5649 12.7007 19.9752 13.2826 19.9547 14.0035C19.832 18.2622 15.2518 17.6392 17.3221 22.9002C16.0462 22.8744 15.0482 23.0272 15.0349 23.0284C14.0848 23.1555 13.1562 22.626 12.7767 21.7409C12.7001 21.5624 12.4934 21.4799 12.315 21.5563C12.1366 21.6329 12.0539 21.8396 12.1304 22.018C12.5835 23.0746 13.6274 23.7484 14.7513 23.7498C14.7936 24.1285 14.9009 24.4962 15.0725 24.8521C14.9702 25.0332 14.806 25.344 14.6368 25.7455C12.7647 25.3115 10.9924 26.7422 10.9924 28.6413C10.9924 30.6926 13.0357 32.1352 14.9684 31.4397C15.7331 32.4036 16.771 33 18.0163 33H24.5739C25.4227 33 26.2464 32.7076 26.8934 32.1767C28.3202 31.0058 28.8578 29.3265 28.4481 27.3205C28.2122 26.1657 27.733 25.2317 27.5178 24.8519C27.6892 24.4965 27.7964 24.1291 27.8388 23.7509C29.2736 23.7542 30.552 22.654 30.6817 21.1298C30.7643 20.1589 30.8165 18.3429 30.3459 16.437C32.8091 14.9361 33.1244 12.295 33.0875 10.8259C33.0875 10.8258 33.0875 10.8258 33.0875 10.8257ZM11.1615 9.77806C13.0809 9.50811 14.8402 10.0036 16.1484 10.9432C15.5664 11.2738 15.0389 11.6721 14.5674 12.1378C13.4755 10.9974 11.8478 10.4864 10.2801 10.4704C10.4218 10.1069 10.7519 9.83572 11.1615 9.77806ZM10.2043 11.1748C11.627 11.1748 13.1203 11.6298 14.0894 12.6564C13.3354 13.5526 12.7965 14.613 12.4417 15.7294C10.8955 14.7017 10.2365 13.031 10.2043 11.1748ZM22.8907 27.5293C21.8617 27.9333 20.7285 27.9333 19.6995 27.5293C17.9339 26.8362 15.6783 25.5593 15.4519 23.6859C16.7399 23.5437 18.1371 23.5744 19.5224 23.8186C22.5793 24.3563 23.6067 23.2935 27.1383 23.6859C26.9119 25.5593 24.6561 26.8363 22.8907 27.5293ZM18.7709 18.071C19.5997 17.1994 20.5357 16.2151 20.6491 14.2199C20.6528 14.1555 20.6556 14.0901 20.6575 14.0236C20.6672 13.684 20.9443 13.4038 21.2951 13.4038C21.644 13.4038 21.9228 13.6773 21.9327 14.0238C22.0707 18.8113 26.67 17.8101 24.4936 22.9356C22.8082 23.0676 21.7342 23.4964 19.641 23.1257C18.7944 22.9766 18.1028 22.9361 18.0967 22.9356C17.1959 20.8174 17.209 19.714 18.7709 18.071ZM11.6955 28.6413C11.6955 27.2232 12.9881 26.1475 14.3862 26.4106C14.0847 27.3139 13.9836 28.1001 14.0091 28.7774C13.6948 28.7209 13.4156 28.5156 13.275 28.2162C13.1925 28.0405 12.9832 27.9648 12.8074 28.0474C12.6317 28.1299 12.5561 28.3392 12.6386 28.515C12.907 29.0868 13.473 29.4565 14.0873 29.4927C14.1848 30.0203 14.3596 30.4653 14.5618 30.8321C13.1174 31.2258 11.6955 30.1308 11.6955 28.6413ZM26.4473 31.6331C25.4437 32.4567 24.364 32.2717 24.1774 32.2969C24.9146 31.1066 25.1194 29.8737 25.1289 29.8136C25.1595 29.6221 25.0291 29.4422 24.8376 29.4113C24.6462 29.3808 24.4657 29.5109 24.4347 29.7024C24.4323 29.7172 24.1939 31.1369 23.3281 32.2969H21.6466V30.0909C21.6466 29.8967 21.4892 29.7393 21.295 29.7393C21.1009 29.7393 20.9435 29.8967 20.9435 30.0909V32.2969H19.262C18.3972 31.1382 18.1583 29.7204 18.1554 29.7025C18.1246 29.5109 17.9444 29.3805 17.7529 29.4111C17.5612 29.4417 17.4305 29.622 17.4612 29.8137C17.4708 29.8737 17.6755 31.1066 18.4127 32.2969C18.1357 32.2596 16.6027 32.5688 15.3749 30.8104C14.3031 29.2704 14.6691 27.2291 15.5011 25.5475C16.4245 26.7666 18.1382 27.7105 19.5618 28.2289C20.1232 28.4333 20.709 28.5356 21.2951 28.5356C22.2493 28.5356 22.9166 28.2979 23.7035 27.9528C24.941 27.4112 26.2734 26.6242 27.089 25.5474C28.161 27.7148 28.3252 30.0921 26.4473 31.6331ZM30.1484 15.7294C29.7952 14.6178 29.2608 13.5598 28.5009 12.6563C29.4753 11.6255 30.966 11.1826 32.3859 11.1756C32.3534 13.0315 31.6945 14.7018 30.1484 15.7294Z" fill="#EDF2F7"/>
</svg>
