<svg width="43" height="42" viewBox="0 0 43 42" fill="none" xmlns="http://www.w3.org/2000/svg">
<rect x="0.5" width="42" height="42" rx="21" fill="#4C6FFF"/>
<g clip-path="url(#clip0_854_768)">
<path d="M28.2782 21.2844C27.89 21.2844 27.5751 21.5994 27.5751 21.9875C27.5751 22.3754 27.89 22.6907 28.2782 22.6907C28.6662 22.6907 28.9813 22.3754 28.9813 21.9875C28.9813 21.5994 28.6662 21.2844 28.2782 21.2844Z" fill="#EDF2F7"/>
<path d="M30.3542 19.0366L28.9813 17.8926V16.7156C28.9813 14.6668 27.3143 13 25.2648 13C23.4481 13 21.9319 14.3109 21.6121 16.0368C17.3854 16.3598 14.0187 19.8882 14.0187 24.2462V25.7538C14.0187 26.0369 14.0729 26.3074 14.1703 26.5562H12.8805C11.769 26.5562 10.9062 25.6497 10.9062 24.5816C10.9062 24.068 11.1064 23.5848 11.4697 23.2213L12.2903 22.4006C13.5347 21.1575 12.6512 19.0251 10.8922 19.0251H10.2031C9.81476 19.0251 9.5 19.3398 9.5 19.7282C9.5 20.1164 9.81476 20.4313 10.2031 20.4313H10.8922C11.4001 20.4313 11.6559 21.0466 11.2959 21.4064L10.475 22.2271C9.84625 22.8564 9.5 23.6924 9.5 24.582C9.5 26.4522 11.0141 27.9625 12.8805 27.9625H31.2914C32.5092 27.9625 33.5 26.9717 33.5 25.7538V25.7527C33.5 23.1503 32.3534 20.7023 30.3542 19.0366ZM32.0938 25.7538C32.0938 26.1962 31.7338 26.5562 31.2914 26.5562H16.2273C15.7849 26.5562 15.4249 26.1962 15.4249 25.7531V24.2462C15.4249 20.671 18.1589 17.7631 21.6216 17.4478C22.0966 19.8381 24.2916 20.4313 25.2648 20.4313H25.2657C25.6539 20.4313 25.9683 20.1164 25.9683 19.7282C25.9683 19.3398 25.6532 19.0251 25.2648 19.0251C24.0109 19.0251 22.9562 18.0114 22.9562 16.7156C22.9562 16.7156 22.9562 16.7154 22.9562 16.7152C22.9562 16.7152 22.9562 16.715 22.9562 16.7148C22.9562 15.4419 23.9919 14.4062 25.2657 14.4062C26.5391 14.4062 27.5751 15.4423 27.5751 16.7158V18.2218C27.5751 18.4305 27.6677 18.6285 27.8281 18.7621L29.4541 20.1169C31.1317 21.5148 32.0938 23.5688 32.0938 25.7527V25.7538Z" fill="#EDF2F7"/>
</g>
<defs>
<clipPath id="clip0_854_768">
<rect width="24" height="24" fill="white" transform="translate(9.5 9)"/>
</clipPath>
</defs>
</svg>
