<svg width="43" height="42" viewBox="0 0 43 42" fill="none" xmlns="http://www.w3.org/2000/svg">
<rect x="0.5" width="42" height="42" rx="21" fill="#4C6FFF"/>
<g clip-path="url(#clip0_854_760)">
<path d="M16.9943 28.8934C17.1937 28.8934 17.3571 28.7209 17.3457 28.5219C17.2906 27.5458 17.2201 26.8381 17.1361 26.4186C16.8343 24.9096 14.9935 22.1004 14.9154 21.9816C14.8678 21.9092 14.7952 21.8571 14.7114 21.8349C11.5446 20.9976 10.0332 19.8132 10.2198 18.3143C10.3962 16.8977 13.6179 15.3319 14.8445 14.8482C14.9787 14.7953 15.0672 14.6654 15.0672 14.5211V9.95799C15.0672 9.76536 15.2799 9.64287 15.4473 9.73826C15.9931 10.0494 16.7433 10.5978 17.2185 11.4439C17.765 12.4173 17.8339 13.5783 17.4232 14.895C17.3801 15.0333 17.4261 15.1836 17.5389 15.2743C17.5526 15.2852 18.9158 16.3991 19.1718 18.4447C19.1903 18.5936 19.3015 18.7142 19.4483 18.7452C19.4822 18.7521 22.8647 19.4776 25.7934 21.2118C25.9606 21.3107 26.1763 21.2556 26.2752 21.0884C26.3741 20.9212 26.3189 20.7055 26.1518 20.6066C23.5445 19.0627 20.6764 18.3107 19.8337 18.1113C19.5426 16.374 18.5672 15.2792 18.1589 14.8868C18.5553 13.4659 18.4456 12.1928 17.8317 11.0995C17.2776 10.1129 16.4187 9.48247 15.7955 9.12724C15.4954 8.95622 15.138 8.95769 14.8396 9.13109C14.7394 9.18913 14.6533 9.26292 14.5825 9.34807C14.4721 9.28288 14.3584 9.21916 14.2421 9.15745C13.896 8.97343 13.489 8.98387 13.153 9.18565C12.8179 9.38707 12.6178 9.74101 12.6178 10.1321V11.7971C12.6178 11.9914 12.775 12.1488 12.9693 12.1488C13.1636 12.1488 13.3211 11.9914 13.3211 11.7971V10.1323C13.3211 9.83311 13.647 9.63756 13.9119 9.77836C14.0687 9.86168 14.2197 9.94865 14.3638 10.0376V14.2857C14.1399 14.3805 13.7656 14.5451 13.3211 14.7654V13.2037C13.3211 13.0096 13.1636 12.8521 12.9693 12.8521C12.775 12.8521 12.6178 13.0096 12.6178 13.2037V15.1323C12.4819 15.2071 12.3438 15.2852 12.2052 15.3669C10.5388 16.3482 9.63608 17.3106 9.52201 18.2274C9.288 20.1073 10.9288 21.5374 14.3999 22.4794C14.7431 23.0141 16.203 25.3384 16.4465 26.5564C16.5239 26.9437 16.5902 27.6184 16.6435 28.5614C16.6541 28.7487 16.8092 28.8934 16.9943 28.8934Z" fill="#EDF2F7"/>
<path d="M13.3868 17.8517C13.3868 18.3489 13.7003 18.7383 14.1005 18.7383C14.5006 18.7383 14.8143 18.3489 14.8143 17.8517C14.8143 17.3548 14.5006 16.9653 14.1005 16.9653C13.7003 16.9653 13.3868 17.3548 13.3868 17.8517Z" fill="#EDF2F7"/>
<path d="M30.8429 27.4984C30.8644 26.6891 30.704 25.8537 30.3615 24.9977C29.836 23.6838 28.8238 22.4718 27.3533 21.3961C27.1966 21.2813 26.9765 21.3155 26.8619 21.472C26.7471 21.6288 26.7813 21.8489 26.938 21.9635C28.3005 22.9605 29.2327 24.0692 29.7086 25.259C30.3136 26.7713 30.2808 28.2034 29.611 29.5153C29.1822 30.355 28.5232 31.0587 27.7051 31.5501C26.8919 32.0385 25.9577 32.2967 25.0035 32.2967H20.7366C20.2651 32.2967 19.8812 31.9176 19.872 31.4482C19.872 31.4445 19.8722 31.4408 19.8722 31.437V31.4086C19.8845 30.9419 20.267 30.5656 20.7366 30.5656H23.941C24.2457 30.5656 24.4044 30.186 24.1922 29.9679C24.1418 29.9161 22.9687 28.6822 23.6141 26.8916C24.1966 25.2761 25.4488 25.2186 25.5049 25.2167C25.6979 25.2127 25.8519 25.0536 25.8491 24.8602C25.8462 24.6678 25.6894 24.5136 25.4975 24.5136C25.4959 24.5136 25.4941 24.5136 25.4924 24.5136C25.4199 24.5147 23.706 24.563 22.9526 26.6532C22.508 27.8864 22.7671 28.9061 23.0954 29.5792C21.0437 28.7961 19.7988 27.4059 19.7848 27.3904C19.5752 27.1516 19.1691 27.3056 19.1691 27.6224V31.3861C19.1685 31.4011 19.168 31.4161 19.168 31.4311C19.168 31.4375 19.1683 31.4438 19.1683 31.4502C19.1612 31.9182 18.7789 32.2967 18.3092 32.2967C17.8447 32.2967 17.459 31.9191 17.4497 31.4547C17.4391 30.9316 17.4257 30.429 17.4094 29.961C17.4028 29.7669 17.2399 29.6153 17.046 29.6217C16.8519 29.6285 16.6999 29.7911 16.7067 29.9853C16.7226 30.45 16.736 30.9492 16.7466 31.4688C16.7634 32.3131 17.4645 33 18.3092 33C18.7979 33 19.2348 32.7746 19.5215 32.4223C19.8094 32.7746 20.2472 33 20.7366 33H25.0035C26.0851 33 27.1446 32.7072 28.0671 32.1531C28.4303 31.9348 28.7656 31.6794 29.069 31.3925C29.4175 31.6186 29.8247 31.7409 30.2453 31.7409C31.4382 31.7409 32.4088 30.7703 32.4088 29.5772C32.4088 28.602 31.7552 27.7601 30.8429 27.4984ZM21.9878 29.8625H20.7366C20.4175 29.8625 20.1203 29.9586 19.8722 30.123V28.4504C20.3378 28.8552 21.0556 29.3988 21.9878 29.8625ZM30.2453 31.0376C30.0043 31.0376 29.7697 30.9783 29.5605 30.8672C29.8738 30.4872 30.1369 30.0653 30.3421 29.6178C30.5523 29.1615 30.6966 28.6941 30.775 28.2164C31.3238 28.43 31.7055 28.9649 31.7055 29.5772C31.7055 30.3825 31.0506 31.0376 30.2453 31.0376Z" fill="#EDF2F7"/>
</g>
<defs>
<clipPath id="clip0_854_760">
<rect width="24" height="24" fill="white" transform="translate(9.5 9)"/>
</clipPath>
</defs>
</svg>
